M48
;Layer_Color=9474304
;FILE_FORMAT=2:5
INCH,LZ
;TYPE=PLATED
T1F00S00C0.01575
T2F00S00C0.03150
T3F00S00C0.11811
%
T01
X0112106Y-0006004
X0147539
X015935
X0171161
X0182972
X0165256Y0011713
X013937Y0016831
X0122343Y0022933
X0099852Y0015256
X0091437Y0020079
X0071949Y0028346
X0052658Y0025197
X003189Y0028346
X0035335Y0005807
X0047146
X0058956
X0070767
X0076673Y-0006004
X0088484
X0100295
X0064862
X0053051
X004124
X0029429
X0017618
X0023524Y0005807
X0011712
X-0006004Y0017618
X0004169Y0031323
X0018307Y0032579
X0029921Y0033661
X0033268Y0045472
X0046654
X0047638Y005557
X0060532Y0048228
X0067618Y0052658
X0068701Y0058071
X0068335Y0074606
X0084055Y006191
X0091437Y0047736
X0090256Y0041142
X0102165Y0046161
X0069208Y0040966
X0064567Y0035827
X0050317Y0035659
X0045177Y0033071
X0042126Y0037795
X0023917Y0054494
X0018307Y0049508
X000935Y0052756
X-0001579Y0059843
X0011712Y0076673
X0023524
X0035827Y0070706
X0112992Y0075689
X0141634Y0076673
X0153445
X0165256
X0177067
X0188878
X0165256Y004124
Y0029429
X0135728Y004124
X0122524Y0037402
T02
X0148425Y0027953
X0156299
X0176969
X0184843
Y0065354
X0176969
X0156299
X0148425
T03
X0125394Y0
X0
X-0003248Y0072244
X0125394Y0077165
M30
