G04 Layer_Color=8421504*
%FSLAX25Y25*%
%MOIN*%
G70*
G01*
G75*
%ADD10R,0.07874X0.06299*%
%ADD11R,0.01181X0.04724*%
%ADD12R,0.04724X0.01181*%
%ADD13R,0.01181X0.05512*%
%ADD14R,0.04724X0.05512*%
%ADD15R,0.03937X0.07087*%
%ADD16R,0.04331X0.02362*%
%ADD17C,0.03937*%
%ADD18R,0.05315X0.01575*%
%ADD19R,0.06299X0.08268*%
%ADD20R,0.07480X0.07087*%
%ADD21R,0.03937X0.05118*%
%ADD22R,0.03543X0.02756*%
%ADD23R,0.02756X0.03543*%
%ADD24R,0.03347X0.03740*%
D10*
X36516Y33858D02*
D03*
X57776D02*
D03*
D11*
X102067Y35433D02*
D03*
X100098D02*
D03*
X98130D02*
D03*
X96161D02*
D03*
X94193D02*
D03*
X92224D02*
D03*
X90256D02*
D03*
X88287D02*
D03*
X86319D02*
D03*
X84350D02*
D03*
X82382D02*
D03*
X80413D02*
D03*
Y69685D02*
D03*
X82382D02*
D03*
X84350D02*
D03*
X86319D02*
D03*
X88287D02*
D03*
X90256D02*
D03*
X92224D02*
D03*
X94193D02*
D03*
X96161D02*
D03*
X98130D02*
D03*
X100098D02*
D03*
X102067D02*
D03*
D12*
X74114Y41732D02*
D03*
Y43701D02*
D03*
Y45669D02*
D03*
Y51575D02*
D03*
Y53543D02*
D03*
Y55512D02*
D03*
Y57480D02*
D03*
Y59449D02*
D03*
Y61417D02*
D03*
Y63386D02*
D03*
X108366D02*
D03*
Y61417D02*
D03*
Y59449D02*
D03*
Y57480D02*
D03*
Y55512D02*
D03*
Y53543D02*
D03*
Y51575D02*
D03*
Y49606D02*
D03*
Y47638D02*
D03*
Y45669D02*
D03*
Y43701D02*
D03*
Y41732D02*
D03*
X74114Y49606D02*
D03*
Y47638D02*
D03*
D13*
X94193Y27559D02*
D03*
X92224D02*
D03*
X90256D02*
D03*
X88287D02*
D03*
X86319D02*
D03*
X94193Y10236D02*
D03*
X92224D02*
D03*
X90256D02*
D03*
X88287D02*
D03*
X86319D02*
D03*
D14*
X127953Y53445D02*
D03*
Y62106D02*
D03*
X119291Y53445D02*
D03*
Y62106D02*
D03*
D15*
X117421Y41831D02*
D03*
X127264D02*
D03*
D16*
X36417Y59310D02*
D03*
X47441D02*
D03*
X36417Y55570D02*
D03*
Y51830D02*
D03*
X47441D02*
D03*
D17*
X135663Y13943D02*
D03*
Y7185D02*
D03*
X135630Y19980D02*
D03*
X135663Y26575D02*
D03*
X65551Y28375D02*
D03*
X17126Y69291D02*
D03*
X22343Y49409D02*
D03*
X17323Y60433D02*
D03*
D18*
X-1969Y39173D02*
D03*
Y41732D02*
D03*
Y36614D02*
D03*
Y44291D02*
D03*
Y34055D02*
D03*
D19*
X-2461Y26772D02*
D03*
Y51575D02*
D03*
D20*
X-12500Y34646D02*
D03*
Y43701D02*
D03*
Y24213D02*
D03*
Y54134D02*
D03*
D21*
X39587Y66732D02*
D03*
X47224D02*
D03*
X32658D02*
D03*
X25020D02*
D03*
D22*
X29035Y53598D02*
D03*
Y59819D02*
D03*
X8661Y38543D02*
D03*
Y32323D02*
D03*
Y48878D02*
D03*
Y42658D02*
D03*
X113287Y23071D02*
D03*
Y29291D02*
D03*
X119291Y23071D02*
D03*
Y29291D02*
D03*
X134646Y60177D02*
D03*
Y66398D02*
D03*
X134547Y49154D02*
D03*
Y55374D02*
D03*
X149803Y18268D02*
D03*
Y12047D02*
D03*
X178051D02*
D03*
Y18268D02*
D03*
X177856Y55374D02*
D03*
Y49154D02*
D03*
X125295Y23071D02*
D03*
Y29291D02*
D03*
X149351Y55499D02*
D03*
Y49278D02*
D03*
X14665Y38543D02*
D03*
Y32323D02*
D03*
Y48878D02*
D03*
Y42658D02*
D03*
X101279Y29193D02*
D03*
Y22972D02*
D03*
X107283Y23031D02*
D03*
Y29252D02*
D03*
X155807Y18268D02*
D03*
Y12047D02*
D03*
X143898Y18268D02*
D03*
Y12047D02*
D03*
X184055Y12146D02*
D03*
Y18366D02*
D03*
X172047Y12087D02*
D03*
Y18307D02*
D03*
X183858Y55374D02*
D03*
Y49154D02*
D03*
X171803Y55400D02*
D03*
Y49180D02*
D03*
X155315Y49252D02*
D03*
Y55472D02*
D03*
X143307Y49252D02*
D03*
Y55472D02*
D03*
D23*
X53878Y69587D02*
D03*
X60098D02*
D03*
X53878Y57579D02*
D03*
X60098D02*
D03*
X74665Y70079D02*
D03*
X68445D02*
D03*
X107028D02*
D03*
X113248D02*
D03*
X74665Y34350D02*
D03*
X68445D02*
D03*
X8701Y18504D02*
D03*
X14921D02*
D03*
X130472Y34252D02*
D03*
X124252D02*
D03*
X120827D02*
D03*
X114606D02*
D03*
X60098Y63583D02*
D03*
X53878D02*
D03*
X38839Y74902D02*
D03*
X32618D02*
D03*
X6772Y60335D02*
D03*
X12992D02*
D03*
X26929Y42815D02*
D03*
X20709D02*
D03*
X20807Y38091D02*
D03*
X27028D02*
D03*
X44252Y21358D02*
D03*
X38032D02*
D03*
Y13386D02*
D03*
X44252D02*
D03*
X8701Y24508D02*
D03*
X14921D02*
D03*
D24*
X43701Y74902D02*
D03*
X50394D02*
D03*
X56102Y21358D02*
D03*
X49409D02*
D03*
Y13484D02*
D03*
X56102D02*
D03*
M02*
