G04 Layer_Physical_Order=1*
G04 Layer_Color=255*
%FSLAX25Y25*%
%MOIN*%
G70*
G01*
G75*
%ADD10R,0.07874X0.06299*%
%ADD11R,0.01181X0.04724*%
%ADD12R,0.04724X0.01181*%
%ADD13R,0.01181X0.05512*%
%ADD14R,0.04724X0.05512*%
%ADD15R,0.03937X0.07087*%
%ADD16R,0.04331X0.02362*%
%ADD17C,0.03937*%
%ADD18R,0.05315X0.01575*%
%ADD19R,0.06299X0.08268*%
%ADD20R,0.07480X0.07087*%
%ADD21R,0.03937X0.05118*%
%ADD22R,0.03543X0.02756*%
%ADD23R,0.02756X0.03543*%
%ADD24R,0.03347X0.03740*%
%ADD25C,0.01575*%
%ADD26C,0.01772*%
%ADD27C,0.01181*%
%ADD28C,0.01968*%
%ADD29C,0.01500*%
%ADD30C,0.03543*%
%ADD31C,0.00787*%
%ADD32R,0.01460X0.00532*%
%ADD33C,0.06000*%
%ADD34C,0.15748*%
%ADD35C,0.03150*%
%ADD36C,0.02362*%
G36*
X180783Y86641D02*
X182989Y86202D01*
X185120Y85479D01*
X187138Y84483D01*
X189009Y83233D01*
X190701Y81750D01*
X192184Y80058D01*
X193434Y78187D01*
X194429Y76169D01*
X195153Y74039D01*
X195592Y71832D01*
X195735Y69640D01*
X195725Y69587D01*
Y3937D01*
X195735Y3884D01*
X195592Y1692D01*
X195153Y-515D01*
X194429Y-2646D01*
X193434Y-4664D01*
X192184Y-6535D01*
X190701Y-8226D01*
X189009Y-9710D01*
X187138Y-10960D01*
X185120Y-11955D01*
X182989Y-12678D01*
X180783Y-13117D01*
X178591Y-13261D01*
X178537Y-13250D01*
X0D01*
X-53Y-13261D01*
X-2245Y-13117D01*
X-4452Y-12678D01*
X-6583Y-11955D01*
X-8601Y-10960D01*
X-10472Y-9710D01*
X-12163Y-8226D01*
X-13647Y-6535D01*
X-14897Y-4664D01*
X-15892Y-2646D01*
X-16615Y-515D01*
X-17054Y1692D01*
X-17198Y3884D01*
X-17187Y3937D01*
Y19669D01*
X-9174D01*
X-13010Y23505D01*
X-12303Y24213D01*
X-13010Y24920D01*
X-9174Y28756D01*
X-17187D01*
Y30102D01*
X-7760D01*
Y39158D01*
Y48244D01*
X-17187D01*
Y49591D01*
X-9174D01*
X-13010Y53427D01*
X-12303Y54134D01*
X-13010Y54841D01*
X-9174Y58677D01*
X-17187D01*
Y69587D01*
X-17198Y69640D01*
X-17054Y71832D01*
X-16615Y74039D01*
X-15892Y76169D01*
X-14897Y78187D01*
X-13647Y80058D01*
X-12163Y81750D01*
X-10472Y83233D01*
X-8601Y84483D01*
X-6583Y85479D01*
X-4452Y86202D01*
X-2245Y86641D01*
X-53Y86785D01*
X0Y86774D01*
X178537D01*
X178591Y86785D01*
X180783Y86641D01*
D02*
G37*
%LPC*%
G36*
X143307Y48232D02*
X141950Y46874D01*
X144665D01*
X143307Y48232D01*
D02*
G37*
G36*
X171803Y48159D02*
X170446Y46802D01*
X173161D01*
X171803Y48159D01*
D02*
G37*
G36*
X169032Y50143D02*
Y48216D01*
X169995Y49180D01*
X169032Y50143D01*
D02*
G37*
G36*
X175084Y50117D02*
Y48190D01*
X176048Y49154D01*
X175084Y50117D01*
D02*
G37*
G36*
X5890Y33287D02*
Y31359D01*
X6854Y32323D01*
X5890Y33287D01*
D02*
G37*
G36*
X188309Y30005D02*
X186257Y27953D01*
X188309Y25900D01*
X188337Y25936D01*
X188740Y26908D01*
X188877Y27953D01*
X188740Y28997D01*
X188337Y29970D01*
X188309Y30005D01*
D02*
G37*
G36*
X159766D02*
X157713Y27953D01*
X159766Y25900D01*
X159793Y25936D01*
X160196Y26908D01*
X160334Y27953D01*
X160196Y28997D01*
X159793Y29970D01*
X159766Y30005D01*
D02*
G37*
G36*
X184843Y31987D02*
X183798Y31850D01*
X182825Y31447D01*
X182790Y31420D01*
X184843Y29367D01*
X186895Y31420D01*
X186860Y31447D01*
X185887Y31850D01*
X184843Y31987D01*
D02*
G37*
G36*
X156299D02*
X155255Y31850D01*
X154282Y31447D01*
X154247Y31420D01*
X156299Y29367D01*
X158352Y31420D01*
X158317Y31447D01*
X157343Y31850D01*
X156299Y31987D01*
D02*
G37*
G36*
X174575Y50143D02*
X173611Y49180D01*
X174575Y48216D01*
Y50143D01*
D02*
G37*
G36*
X144665Y51630D02*
X141950D01*
X143307Y50273D01*
X144665Y51630D01*
D02*
G37*
G36*
X173161Y51558D02*
X170446D01*
X171803Y50200D01*
X173161Y51558D01*
D02*
G37*
G36*
X125394Y86082D02*
X123654Y85911D01*
X121981Y85404D01*
X120440Y84579D01*
X119088Y83471D01*
X117980Y82119D01*
X117156Y80578D01*
X116648Y78905D01*
X116477Y77165D01*
X116648Y75426D01*
X117156Y73753D01*
X117980Y72211D01*
X119088Y70860D01*
X120440Y69751D01*
X121981Y68927D01*
X123326Y68519D01*
X123252Y68019D01*
X120827D01*
X120206Y67896D01*
X119680Y67544D01*
X118145Y66009D01*
X118047Y65862D01*
X115929D01*
Y59427D01*
X115654Y59372D01*
X115127Y59021D01*
X114109Y58003D01*
X113758Y57476D01*
X113634Y56856D01*
Y53964D01*
X112867Y53197D01*
X111728D01*
Y57858D01*
Y61795D01*
Y64976D01*
X106407D01*
X106216Y65438D01*
X108085Y67307D01*
X109406D01*
Y72850D01*
X108649D01*
Y73681D01*
X108526Y74302D01*
X108174Y74828D01*
X106462Y76540D01*
X105936Y76892D01*
X105315Y77015D01*
X76476D01*
X75856Y76892D01*
X75330Y76540D01*
X73519Y74729D01*
X73167Y74203D01*
X73044Y73583D01*
Y72850D01*
X72287D01*
Y67710D01*
X70823D01*
Y71436D01*
X69152Y69765D01*
X68445Y70472D01*
X67738Y69765D01*
X66067Y71436D01*
Y67710D01*
X65409D01*
Y72933D01*
X65255Y73707D01*
X64816Y74364D01*
X62848Y76332D01*
X62191Y76771D01*
X61417Y76925D01*
X53067D01*
Y77772D01*
X47721D01*
Y72031D01*
X51500D01*
Y66815D01*
X51500D01*
X51500Y66354D01*
X51500D01*
Y65405D01*
X50193D01*
Y70291D01*
X44256D01*
Y63173D01*
X45510D01*
Y61491D01*
X44276D01*
Y57129D01*
X50606D01*
Y61491D01*
X50995Y61760D01*
X51500D01*
Y60850D01*
X51500Y60811D01*
Y60350D01*
X51500Y60311D01*
Y56221D01*
X53171Y57892D01*
X54585Y56478D01*
X52914Y54807D01*
X55766D01*
X55938Y54807D01*
X56322Y54374D01*
X56317Y54257D01*
X53001Y50940D01*
X50606D01*
Y54011D01*
X44276D01*
Y50940D01*
X42740D01*
X42356Y51440D01*
X42434Y51830D01*
Y58898D01*
X42287Y59634D01*
X41871Y60258D01*
X41459Y60670D01*
X40835Y61087D01*
X40099Y61233D01*
X39583D01*
Y61491D01*
X33252D01*
Y61133D01*
X31807D01*
Y62197D01*
X28227D01*
X28031Y62236D01*
X28031Y62236D01*
X26842D01*
Y63173D01*
X27988D01*
Y70291D01*
X22051D01*
Y63173D01*
X23197D01*
Y62157D01*
X19742D01*
X19440Y62550D01*
X18820Y63026D01*
X18098Y63325D01*
X17323Y63427D01*
X16548Y63325D01*
X15870Y63044D01*
X15370Y63106D01*
Y63106D01*
X10614D01*
Y57563D01*
X15370D01*
Y57625D01*
X15504Y57690D01*
X15870Y57822D01*
X16548Y57541D01*
X17323Y57439D01*
X18098Y57541D01*
X18820Y57840D01*
X19440Y58316D01*
X19591Y58512D01*
X24496D01*
X25000Y58412D01*
X25736Y58558D01*
X25764Y58577D01*
X26264Y58478D01*
Y57441D01*
X31807D01*
Y57488D01*
X33252D01*
Y53389D01*
Y50940D01*
X32191D01*
X31807Y51221D01*
X31807Y51440D01*
Y54562D01*
X30136Y52891D01*
X29035Y53992D01*
X27935Y52891D01*
X26264Y54562D01*
Y51440D01*
X26264Y51221D01*
X25880Y50940D01*
X24909D01*
X24460Y51527D01*
X23840Y52002D01*
X23118Y52302D01*
X22343Y52404D01*
X21568Y52302D01*
X20845Y52002D01*
X20225Y51527D01*
X19735Y51657D01*
X19606Y51757D01*
X18979Y52016D01*
X18307Y52105D01*
X17635Y52016D01*
X17009Y51757D01*
X16714Y51531D01*
X15295D01*
X14521Y51377D01*
X14340Y51256D01*
X11933D01*
X11894Y51256D01*
X11433D01*
X11394Y51256D01*
X5964D01*
X5890Y51256D01*
X5464Y51436D01*
Y57563D01*
X9150D01*
Y63106D01*
X4394D01*
Y62123D01*
X3867Y62018D01*
X3276Y61623D01*
X3276Y61623D01*
X2353Y60701D01*
X1958Y60110D01*
X1819Y59412D01*
X1819Y59412D01*
Y57155D01*
X1689Y56709D01*
X1319Y56709D01*
X-6610D01*
Y46441D01*
X-5959D01*
X-5626Y46079D01*
X-5626Y45941D01*
Y42504D01*
Y39945D01*
Y37386D01*
Y34827D01*
Y32405D01*
X-5626Y32268D01*
X-5959Y31905D01*
X-6610D01*
Y21638D01*
X1689D01*
Y31768D01*
X1689Y31905D01*
Y32268D01*
X1689Y32405D01*
Y37389D01*
X5169D01*
X5179Y37387D01*
X5189Y37389D01*
X5890D01*
Y36165D01*
X11433D01*
Y36165D01*
X11894D01*
Y36165D01*
X17437D01*
Y37389D01*
X18429D01*
Y35664D01*
X18332Y35277D01*
X18005Y35136D01*
X17635Y35087D01*
X17009Y34828D01*
X16843Y34701D01*
X11894D01*
Y34701D01*
X11433D01*
Y34701D01*
X7304D01*
X8975Y33030D01*
X8268Y32323D01*
X8975Y31616D01*
X7304Y29945D01*
X7631D01*
X7823Y29483D01*
X7270Y28931D01*
X6832Y28274D01*
X6678Y27500D01*
Y27279D01*
X6323D01*
Y21776D01*
X6323Y21736D01*
Y21276D01*
X6323Y21236D01*
Y17146D01*
X7994Y18817D01*
X8701Y18110D01*
X9408Y18817D01*
X11079Y17146D01*
Y21236D01*
X11079Y21276D01*
Y21736D01*
X11079Y21776D01*
Y27017D01*
X11173Y27111D01*
X12543D01*
Y21736D01*
X12543D01*
Y21276D01*
X12543D01*
Y15732D01*
X17299D01*
Y21276D01*
X17299D01*
Y21736D01*
X17299D01*
Y22857D01*
X19488D01*
X20109Y22980D01*
X20635Y23332D01*
X24056Y26753D01*
X29867D01*
X30053Y26510D01*
X30591Y26097D01*
X31218Y25838D01*
X31890Y25749D01*
X32562Y25838D01*
X33188Y26097D01*
X33726Y26510D01*
X33913Y26753D01*
X50013D01*
X50308Y26253D01*
X50149Y25869D01*
X50060Y25197D01*
X50122Y24728D01*
X49787Y24228D01*
X46736D01*
Y24228D01*
X46630Y24130D01*
X41874D01*
Y18587D01*
X46630D01*
X46736Y18488D01*
Y18488D01*
X52083D01*
Y22296D01*
X52459Y22626D01*
X52658Y22600D01*
X52929Y22636D01*
X53429Y22212D01*
Y18488D01*
X58776D01*
Y19737D01*
X77559D01*
X78180Y19860D01*
X78706Y20211D01*
X82267Y23773D01*
X82729Y23581D01*
Y21439D01*
X76395Y15106D01*
X58776D01*
Y16354D01*
X53429D01*
Y10614D01*
X58776D01*
Y11863D01*
X77067D01*
X77688Y11986D01*
X78214Y12337D01*
X85497Y19621D01*
X85849Y20147D01*
X85972Y20768D01*
Y23803D01*
X88634D01*
Y21358D01*
X88758Y20738D01*
X88899Y20526D01*
X88840Y20079D01*
X88929Y19407D01*
X89188Y18780D01*
X89601Y18242D01*
X90139Y17830D01*
X90765Y17570D01*
X91437Y17482D01*
X92109Y17570D01*
X92212Y17613D01*
X92421Y17571D01*
X105118D01*
X105739Y17695D01*
X106265Y18046D01*
X108430Y20212D01*
X108726Y20653D01*
X110032D01*
X110055Y20653D01*
X110539Y20693D01*
X116020D01*
X116059Y20693D01*
X116520Y20693D01*
X116559Y20693D01*
X122024D01*
X122063Y20693D01*
X122524Y20693D01*
X122563Y20693D01*
X127293D01*
X127485Y20231D01*
X126581Y19327D01*
X111308D01*
X110687Y19204D01*
X110161Y18852D01*
X98935Y7626D01*
X95784D01*
Y12578D01*
X94900Y11694D01*
X93815Y12779D01*
Y13438D01*
X94369Y13992D01*
X84728D01*
Y10786D01*
X84697Y10630D01*
Y3740D01*
X84821Y3119D01*
X85172Y2593D01*
X88628Y-862D01*
X89154Y-1214D01*
X89775Y-1338D01*
X103040D01*
X103661Y-1214D01*
X104187Y-862D01*
X115490Y10441D01*
X130770D01*
X132911Y8299D01*
X132771Y7960D01*
X132669Y7185D01*
X132771Y6410D01*
X133070Y5688D01*
X133546Y5068D01*
X134166Y4592D01*
X134888Y4293D01*
X135663Y4191D01*
X136438Y4293D01*
X137160Y4592D01*
X137780Y5068D01*
X138160Y5563D01*
X181693D01*
X182314Y5687D01*
X182840Y6038D01*
X185202Y8400D01*
X185553Y8927D01*
X185677Y9547D01*
Y9768D01*
X186827D01*
Y14524D01*
X181283D01*
Y14520D01*
X180823Y14425D01*
X180783Y14425D01*
X175303D01*
X174819Y14465D01*
X174796Y14465D01*
X170690D01*
X172361Y12794D01*
X171653Y12087D01*
X172361Y11379D01*
X170690Y9709D01*
X174796D01*
X175279Y9669D01*
X175303Y9669D01*
X180823D01*
Y9673D01*
X181283Y9768D01*
X181329Y9768D01*
X181520Y9306D01*
X181021Y8807D01*
X157029D01*
X156838Y9269D01*
X156954Y9385D01*
X157144Y9669D01*
X158579D01*
Y14425D01*
X153035D01*
Y14425D01*
X152575Y14425D01*
Y14425D01*
X147031D01*
Y14425D01*
X146669D01*
Y14425D01*
X142540D01*
X144211Y12754D01*
X142797Y11340D01*
X141126Y13011D01*
Y11481D01*
X140626Y11274D01*
X138576Y13324D01*
X138657Y13943D01*
X138555Y14718D01*
X138256Y15440D01*
X137780Y16060D01*
X137160Y16536D01*
X136769Y16698D01*
Y17239D01*
X137127Y17387D01*
X137747Y17863D01*
X138223Y18483D01*
X138522Y19205D01*
X138624Y19980D01*
X138542Y20599D01*
X141993Y24050D01*
X142345Y24576D01*
X142468Y25197D01*
Y29545D01*
X148802Y35878D01*
X177756D01*
X178376Y36002D01*
X178903Y36353D01*
X185103Y42554D01*
X185455Y43080D01*
X185578Y43701D01*
Y46776D01*
X186630D01*
Y51531D01*
X181127D01*
X181087Y51531D01*
X180627Y51531D01*
X180587Y51531D01*
X176498D01*
X178169Y49861D01*
X177462Y49154D01*
X178169Y48446D01*
X176498Y46776D01*
X180587D01*
X180627Y46776D01*
X181087Y46776D01*
X181127Y46776D01*
X182335D01*
Y44372D01*
X177084Y39122D01*
X148185D01*
X148082Y39251D01*
X147953Y39596D01*
X149451Y41095D01*
X153740D01*
X154361Y41218D01*
X154887Y41570D01*
X156462Y43145D01*
X156813Y43671D01*
X156937Y44291D01*
Y46874D01*
X158087D01*
Y51630D01*
X152611D01*
X152122Y51656D01*
X152054Y51656D01*
X147993D01*
X149664Y49985D01*
X148957Y49278D01*
X149664Y48571D01*
X147993Y46900D01*
X152054D01*
X152543Y46874D01*
X152611Y46874D01*
X153693D01*
Y44963D01*
X153068Y44338D01*
X148779D01*
X148159Y44215D01*
X147633Y43863D01*
X134975Y31206D01*
X134624Y30680D01*
X134500Y30059D01*
Y29306D01*
X134166Y29168D01*
X133546Y28692D01*
X133070Y28072D01*
X132771Y27350D01*
X132669Y26575D01*
X132771Y25800D01*
X132854Y25600D01*
X128529Y21275D01*
X128067Y21466D01*
Y24035D01*
X126396Y22364D01*
X124982Y23778D01*
X126653Y25449D01*
X122563D01*
X122524Y25449D01*
X122063Y25449D01*
X122024Y25449D01*
X116559D01*
X116520Y25449D01*
X116059Y25449D01*
X116020Y25449D01*
X110539D01*
X110516Y25449D01*
X110032Y25409D01*
X104512D01*
Y25409D01*
X104051Y25350D01*
Y25350D01*
X99474D01*
X99358Y25492D01*
Y26815D01*
X104036D01*
X104051Y26815D01*
Y26815D01*
X104512Y26874D01*
Y26874D01*
X110032D01*
X110055Y26874D01*
Y26874D01*
X110516Y26913D01*
Y26913D01*
X116059D01*
Y26913D01*
X116520Y26913D01*
Y26913D01*
X122063D01*
Y26913D01*
X122524Y26913D01*
Y26913D01*
X128067D01*
Y30992D01*
X128094Y31480D01*
X128489Y31480D01*
X132850D01*
Y37024D01*
X130623D01*
X130232Y37287D01*
Y46374D01*
X124441D01*
X124277Y46619D01*
X123581Y47315D01*
X123772Y47777D01*
X126957D01*
X127578Y47900D01*
X128104Y48252D01*
X129100Y49247D01*
X129395Y49689D01*
X131315D01*
Y49689D01*
X131776Y49594D01*
Y46776D01*
X137319D01*
Y51531D01*
X136119D01*
X136046Y51900D01*
X135694Y52426D01*
X135586Y52534D01*
X135777Y52996D01*
X135905D01*
X134234Y54667D01*
X135648Y56081D01*
X137319Y54410D01*
Y57340D01*
X137417Y57799D01*
X137417Y58211D01*
Y61141D01*
X135747Y59470D01*
X134646Y60571D01*
X133545Y59470D01*
X131874Y61141D01*
Y58211D01*
X131776Y57752D01*
X131776Y57296D01*
X131315Y57201D01*
Y57201D01*
X124591D01*
Y51020D01*
X122653D01*
Y55787D01*
X119998Y53131D01*
X118584Y54546D01*
X121239Y57201D01*
X120800D01*
X120562Y57701D01*
X120790Y58041D01*
X120851Y58350D01*
X122653D01*
Y64776D01*
X124591D01*
Y59765D01*
X127246Y62420D01*
X127953Y61713D01*
X128660Y62420D01*
X131315Y59765D01*
Y64776D01*
X131874D01*
Y64020D01*
X137417D01*
Y68776D01*
X131874D01*
Y68019D01*
X127536D01*
X127462Y68519D01*
X128806Y68927D01*
X130348Y69751D01*
X131699Y70860D01*
X132808Y72211D01*
X133632Y73753D01*
X134139Y75426D01*
X134311Y77165D01*
X134139Y78905D01*
X133632Y80578D01*
X132808Y82119D01*
X131699Y83471D01*
X130348Y84579D01*
X128806Y85404D01*
X127133Y85911D01*
X125394Y86082D01*
D02*
G37*
G36*
X-7760Y57263D02*
X-10889Y54134D01*
X-7760Y51005D01*
Y57263D01*
D02*
G37*
G36*
X143307Y49646D02*
X142913Y49252D01*
X143307Y48858D01*
X143701Y49252D01*
X143307Y49646D01*
D02*
G37*
G36*
X140535Y50216D02*
Y48288D01*
X141499Y49252D01*
X140535Y50216D01*
D02*
G37*
G36*
X146079Y50216D02*
X145115Y49252D01*
X146079Y48288D01*
Y50216D01*
D02*
G37*
G36*
X171803Y49573D02*
X171410Y49180D01*
X171803Y48786D01*
X172197Y49180D01*
X171803Y49573D01*
D02*
G37*
G36*
X146579Y50242D02*
Y48314D01*
X147543Y49278D01*
X146579Y50242D01*
D02*
G37*
G36*
X176969Y31987D02*
X175924Y31850D01*
X174951Y31447D01*
X174116Y30806D01*
X173475Y29970D01*
X173072Y28997D01*
X172934Y27953D01*
X173072Y26908D01*
X173475Y25936D01*
X174116Y25100D01*
X174951Y24459D01*
X175924Y24056D01*
X176267Y24011D01*
Y20646D01*
X175279D01*
Y20646D01*
X174819Y20685D01*
Y20685D01*
X174796Y20685D01*
X169276D01*
Y15929D01*
X174819D01*
Y15929D01*
X175279Y15890D01*
Y15890D01*
X175303Y15890D01*
X180823D01*
Y15893D01*
X181283Y15988D01*
Y15988D01*
X186827D01*
Y20744D01*
X181283D01*
Y20741D01*
X180823Y20646D01*
Y20646D01*
X179835D01*
Y25118D01*
X180463Y25936D01*
X180635Y26352D01*
X181176D01*
X181349Y25936D01*
X181376Y25900D01*
X183428Y27953D01*
X181376Y30005D01*
X181349Y29970D01*
X181176Y29554D01*
X180635D01*
X180463Y29970D01*
X179821Y30806D01*
X178986Y31447D01*
X178013Y31850D01*
X176969Y31987D01*
D02*
G37*
G36*
X40409Y14743D02*
X39052Y13386D01*
X40409Y12028D01*
Y14743D01*
D02*
G37*
G36*
X35653Y14743D02*
Y12028D01*
X37011Y13386D01*
X35653Y14743D01*
D02*
G37*
G36*
X38995Y16158D02*
X37068D01*
X38032Y15194D01*
X38995Y16158D01*
D02*
G37*
G36*
X38032Y13780D02*
X37638Y13386D01*
X38032Y12992D01*
X38425Y13386D01*
X38032Y13780D01*
D02*
G37*
G36*
X169276Y13050D02*
Y11123D01*
X170239Y12087D01*
X169276Y13050D01*
D02*
G37*
G36*
X125394Y8917D02*
X123654Y8746D01*
X121981Y8238D01*
X120440Y7414D01*
X119088Y6305D01*
X117980Y4954D01*
X117156Y3412D01*
X116648Y1740D01*
X116477Y0D01*
X116648Y-1740D01*
X117156Y-3412D01*
X117980Y-4954D01*
X119088Y-6305D01*
X120440Y-7414D01*
X121981Y-8238D01*
X123654Y-8746D01*
X125394Y-8917D01*
X127133Y-8746D01*
X128806Y-8238D01*
X130348Y-7414D01*
X131699Y-6305D01*
X132808Y-4954D01*
X133632Y-3412D01*
X134139Y-1740D01*
X134311Y0D01*
X134139Y1740D01*
X133632Y3412D01*
X132808Y4954D01*
X131699Y6305D01*
X130348Y7414D01*
X128806Y8238D01*
X127133Y8746D01*
X125394Y8917D01*
D02*
G37*
G36*
X0D02*
X-1740Y8746D01*
X-3412Y8238D01*
X-4954Y7414D01*
X-6305Y6305D01*
X-7414Y4954D01*
X-8238Y3412D01*
X-8746Y1740D01*
X-8917Y0D01*
X-8746Y-1740D01*
X-8238Y-3412D01*
X-7414Y-4954D01*
X-6305Y-6305D01*
X-4954Y-7414D01*
X-3412Y-8238D01*
X-1740Y-8746D01*
X0Y-8917D01*
X1740Y-8746D01*
X3412Y-8238D01*
X4954Y-7414D01*
X6305Y-6305D01*
X7414Y-4954D01*
X8238Y-3412D01*
X8746Y-1740D01*
X8917Y0D01*
X8746Y1740D01*
X8238Y3412D01*
X7414Y4954D01*
X6305Y6305D01*
X4954Y7414D01*
X3412Y8238D01*
X1740Y8746D01*
X0Y8917D01*
D02*
G37*
G36*
X38032Y11578D02*
X37068Y10614D01*
X38995D01*
X38032Y11578D01*
D02*
G37*
G36*
X52083Y16354D02*
X46736D01*
X46630Y16158D01*
X41874D01*
Y10614D01*
X46630D01*
Y10614D01*
X46736D01*
Y10614D01*
X52083D01*
Y16354D01*
D02*
G37*
G36*
X8701Y16696D02*
X7737Y15732D01*
X9664D01*
X8701Y16696D01*
D02*
G37*
G36*
X156299Y26539D02*
X154247Y24486D01*
X154282Y24459D01*
X155255Y24056D01*
X156299Y23918D01*
X157343Y24056D01*
X158317Y24459D01*
X158352Y24486D01*
X156299Y26539D01*
D02*
G37*
G36*
X38995Y24130D02*
X37068D01*
X38032Y23166D01*
X38995Y24130D01*
D02*
G37*
G36*
X148425Y31987D02*
X147381Y31850D01*
X146408Y31447D01*
X145572Y30806D01*
X144931Y29970D01*
X144528Y28997D01*
X144391Y27953D01*
X144528Y26908D01*
X144931Y25936D01*
X145572Y25100D01*
X146408Y24459D01*
X147381Y24056D01*
X148019Y23972D01*
Y20646D01*
X147031D01*
Y20646D01*
X146669D01*
Y20646D01*
X141126D01*
Y15890D01*
X146669D01*
Y15890D01*
X147031D01*
Y15890D01*
X152575D01*
Y15890D01*
X153035Y15890D01*
Y15890D01*
X158579D01*
Y20646D01*
X153035D01*
Y20646D01*
X152575Y20646D01*
Y20646D01*
X151587D01*
Y25357D01*
X151587Y25357D01*
X151564Y25473D01*
X151919Y25936D01*
X152092Y26352D01*
X152633D01*
X152805Y25936D01*
X152832Y25900D01*
X154885Y27953D01*
X152832Y30005D01*
X152805Y29970D01*
X152633Y29554D01*
X152092D01*
X151919Y29970D01*
X151278Y30806D01*
X150443Y31447D01*
X149469Y31850D01*
X148425Y31987D01*
D02*
G37*
G36*
X184843Y26539D02*
X182790Y24486D01*
X182825Y24459D01*
X183798Y24056D01*
X184843Y23918D01*
X185887Y24056D01*
X186860Y24459D01*
X186895Y24486D01*
X184843Y26539D01*
D02*
G37*
G36*
X-7760Y27342D02*
X-10889Y24213D01*
X-7760Y21083D01*
Y27342D01*
D02*
G37*
G36*
X35653Y22716D02*
Y20001D01*
X37011Y21358D01*
X35653Y22716D01*
D02*
G37*
G36*
X38032Y19550D02*
X37068Y18587D01*
X38995D01*
X38032Y19550D01*
D02*
G37*
G36*
Y21752D02*
X37638Y21358D01*
X38032Y20965D01*
X38425Y21358D01*
X38032Y21752D01*
D02*
G37*
G36*
X40409Y22716D02*
X39052Y21358D01*
X40409Y20001D01*
Y22716D01*
D02*
G37*
G36*
X30393Y55976D02*
X27678D01*
X29035Y54619D01*
X30393Y55976D01*
D02*
G37*
G36*
X14440Y70563D02*
X14234Y70066D01*
X14132Y69291D01*
X14234Y68516D01*
X14440Y68019D01*
X15712Y69291D01*
X14440Y70563D01*
D02*
G37*
G36*
X19812D02*
X18540Y69291D01*
X19812Y68019D01*
X20018Y68516D01*
X20120Y69291D01*
X20018Y70066D01*
X19812Y70563D01*
D02*
G37*
G36*
X110870Y71436D02*
Y68721D01*
X112227Y70079D01*
X110870Y71436D01*
D02*
G37*
G36*
X34212Y70291D02*
X31103D01*
X32658Y68737D01*
X34212Y70291D01*
D02*
G37*
G36*
X115626Y71436D02*
X114269Y70079D01*
X115626Y68721D01*
Y71436D01*
D02*
G37*
G36*
X17126Y67877D02*
X15854Y66605D01*
X16351Y66399D01*
X17126Y66297D01*
X17901Y66399D01*
X18398Y66605D01*
X17126Y67877D01*
D02*
G37*
G36*
X39587Y67323D02*
X38996Y66732D01*
X39587Y66142D01*
X40177Y66732D01*
X39587Y67323D01*
D02*
G37*
G36*
X156299Y69389D02*
X155255Y69251D01*
X154282Y68848D01*
X154247Y68821D01*
X156299Y66769D01*
X158352Y68821D01*
X158317Y68848D01*
X157343Y69251D01*
X156299Y69389D01*
D02*
G37*
G36*
X113248Y68271D02*
X112284Y67307D01*
X114212D01*
X113248Y68271D01*
D02*
G37*
G36*
X184843Y69389D02*
X183798Y69251D01*
X182825Y68848D01*
X182790Y68821D01*
X184843Y66769D01*
X186895Y68821D01*
X186860Y68848D01*
X185887Y69251D01*
X184843Y69389D01*
D02*
G37*
G36*
X41141Y70291D02*
X38032D01*
X39587Y68737D01*
X41141Y70291D01*
D02*
G37*
G36*
X30240Y76259D02*
Y73544D01*
X31598Y74902D01*
X30240Y76259D01*
D02*
G37*
G36*
X32618Y73094D02*
X31654Y72130D01*
X33582D01*
X32618Y73094D01*
D02*
G37*
G36*
X34996Y76259D02*
X33639Y74902D01*
X34996Y73544D01*
Y76259D01*
D02*
G37*
G36*
X33582Y77673D02*
X31655D01*
X32618Y76710D01*
X33582Y77673D01*
D02*
G37*
G36*
X32618Y75295D02*
X32224Y74902D01*
X32618Y74508D01*
X33012Y74902D01*
X32618Y75295D01*
D02*
G37*
G36*
X17126Y72285D02*
X16351Y72183D01*
X15854Y71978D01*
X17126Y70706D01*
X18398Y71978D01*
X17901Y72183D01*
X17126Y72285D01*
D02*
G37*
G36*
X113248Y70472D02*
X112854Y70079D01*
X113248Y69685D01*
X113642Y70079D01*
X113248Y70472D01*
D02*
G37*
G36*
X114212Y72850D02*
X112284D01*
X113248Y71887D01*
X114212Y72850D01*
D02*
G37*
G36*
X46374Y77772D02*
X41028D01*
Y77673D01*
X36461D01*
Y72130D01*
X41028D01*
Y72031D01*
X46374D01*
Y77772D01*
D02*
G37*
G36*
X69409Y72850D02*
X67481D01*
X68445Y71887D01*
X69409Y72850D01*
D02*
G37*
G36*
X148425Y69389D02*
X147381Y69251D01*
X146408Y68848D01*
X145572Y68207D01*
X144931Y67372D01*
X144528Y66399D01*
X144391Y65354D01*
X144528Y64310D01*
X144931Y63337D01*
X145572Y62502D01*
X146408Y61860D01*
X147381Y61457D01*
X147566Y61433D01*
Y57877D01*
X146579D01*
Y57270D01*
X146079D01*
Y57850D01*
X140535D01*
Y53095D01*
X146079D01*
Y53701D01*
X146579D01*
Y53121D01*
X152122D01*
Y53121D01*
X152543Y53095D01*
Y53095D01*
X152611Y53095D01*
X158087D01*
Y57850D01*
X152543D01*
Y57850D01*
X152122Y57877D01*
Y57877D01*
X152054Y57877D01*
X151135D01*
Y62392D01*
X151278Y62502D01*
X151919Y63337D01*
X152092Y63753D01*
X152633D01*
X152805Y63337D01*
X152832Y63302D01*
X154885Y65354D01*
X152832Y67407D01*
X152805Y67372D01*
X152633Y66955D01*
X152092D01*
X151919Y67372D01*
X151278Y68207D01*
X150443Y68848D01*
X149469Y69251D01*
X148425Y69389D01*
D02*
G37*
G36*
X39587Y64727D02*
X38032Y63173D01*
X41141D01*
X39587Y64727D01*
D02*
G37*
G36*
X176969Y69389D02*
X175924Y69251D01*
X174951Y68848D01*
X174116Y68207D01*
X173475Y67372D01*
X173072Y66399D01*
X172934Y65354D01*
X173072Y64310D01*
X173475Y63337D01*
X174116Y62502D01*
X174951Y61860D01*
X175628Y61580D01*
Y57752D01*
X175084D01*
Y57171D01*
X174575D01*
Y57778D01*
X169032D01*
Y53022D01*
X174575D01*
Y53603D01*
X175084D01*
Y52996D01*
X180627D01*
Y52996D01*
X181087Y52996D01*
Y52996D01*
X186630D01*
Y57752D01*
X181087D01*
Y57752D01*
X180627Y57752D01*
Y57752D01*
X179196D01*
Y62022D01*
X179821Y62502D01*
X180463Y63337D01*
X180635Y63753D01*
X181176D01*
X181349Y63337D01*
X181376Y63302D01*
X183428Y65354D01*
X181376Y67407D01*
X181349Y67372D01*
X181176Y66955D01*
X180635D01*
X180463Y67372D01*
X179821Y68207D01*
X178986Y68848D01*
X178013Y69251D01*
X176969Y69389D01*
D02*
G37*
G36*
X188309Y67407D02*
X186257Y65354D01*
X188309Y63302D01*
X188337Y63337D01*
X188740Y64310D01*
X188877Y65354D01*
X188740Y66399D01*
X188337Y67372D01*
X188309Y67407D01*
D02*
G37*
G36*
X159766D02*
X157713Y65354D01*
X159766Y63302D01*
X159793Y63337D01*
X160196Y64310D01*
X160334Y65354D01*
X160196Y66399D01*
X159793Y67372D01*
X159766Y67407D01*
D02*
G37*
G36*
X136003Y62555D02*
X133288D01*
X134646Y61198D01*
X136003Y62555D01*
D02*
G37*
G36*
X127953Y60298D02*
X126005Y58350D01*
X129901D01*
X127953Y60298D01*
D02*
G37*
G36*
X156299Y63940D02*
X154247Y61888D01*
X154282Y61860D01*
X155255Y61457D01*
X156299Y61320D01*
X157343Y61457D01*
X158317Y61860D01*
X158352Y61888D01*
X156299Y63940D01*
D02*
G37*
G36*
X32658Y64727D02*
X31103Y63173D01*
X34212D01*
X32658Y64727D01*
D02*
G37*
G36*
X184843Y63940D02*
X182790Y61888D01*
X182825Y61860D01*
X183798Y61457D01*
X184843Y61320D01*
X185887Y61457D01*
X186860Y61860D01*
X186895Y61888D01*
X184843Y63940D01*
D02*
G37*
G36*
X29689Y68877D02*
Y64587D01*
X31834Y66732D01*
X29689Y68877D01*
D02*
G37*
G36*
X42555Y68877D02*
X40410Y66732D01*
X42555Y64587D01*
Y68877D01*
D02*
G37*
G36*
X36618Y68877D02*
Y64587D01*
X38763Y66732D01*
X36618Y68877D01*
D02*
G37*
G36*
X32658Y67323D02*
X32067Y66732D01*
X32658Y66142D01*
X33248Y66732D01*
X32658Y67323D01*
D02*
G37*
G36*
X-3248Y81161D02*
X-4988Y80990D01*
X-6660Y80482D01*
X-8202Y79658D01*
X-9553Y78549D01*
X-10662Y77198D01*
X-11486Y75656D01*
X-11994Y73984D01*
X-12165Y72244D01*
X-11994Y70504D01*
X-11486Y68832D01*
X-10662Y67290D01*
X-9553Y65939D01*
X-8202Y64830D01*
X-6660Y64006D01*
X-4988Y63499D01*
X-3248Y63327D01*
X-1508Y63499D01*
X164Y64006D01*
X1706Y64830D01*
X3057Y65939D01*
X4166Y67290D01*
X4990Y68832D01*
X5498Y70504D01*
X5669Y72244D01*
X5498Y73984D01*
X4990Y75656D01*
X4166Y77198D01*
X3057Y78549D01*
X1706Y79658D01*
X164Y80482D01*
X-1508Y80990D01*
X-3248Y81161D01*
D02*
G37*
G36*
X35626Y68877D02*
X33481Y66732D01*
X35626Y64587D01*
Y68877D01*
D02*
G37*
%LPD*%
G36*
X43888Y38925D02*
X43679Y38613D01*
X43556Y37992D01*
Y35072D01*
X43341Y34907D01*
X42928Y34369D01*
X42669Y33743D01*
X42580Y33071D01*
X42669Y32399D01*
X42928Y31772D01*
X43341Y31234D01*
X43879Y30822D01*
X44505Y30562D01*
X45005Y30496D01*
X44972Y29996D01*
X41453D01*
Y36594D01*
X38010Y33151D01*
X36596Y34565D01*
X40038Y38008D01*
X32403D01*
X32212Y38470D01*
X33167Y39426D01*
X43628D01*
X43888Y38925D01*
D02*
G37*
G36*
X70752Y60373D02*
X70252Y60126D01*
X69999Y60320D01*
X69373Y60579D01*
X68701Y60668D01*
X68029Y60579D01*
X67402Y60320D01*
X66864Y59907D01*
X66452Y59369D01*
X66192Y58743D01*
X66104Y58071D01*
X66192Y57399D01*
X66452Y56772D01*
X66864Y56235D01*
X67079Y56070D01*
Y55709D01*
X67135Y55429D01*
X66946Y55166D01*
X66320Y54907D01*
X65782Y54494D01*
X65369Y53956D01*
X65110Y53330D01*
X65021Y52658D01*
X65110Y51985D01*
X65369Y51359D01*
X65782Y50821D01*
X66320Y50408D01*
X66408Y50372D01*
X66505Y49881D01*
X60860Y44236D01*
X29307D01*
Y45587D01*
X24551D01*
Y40043D01*
X24650D01*
Y35319D01*
X29406D01*
Y36768D01*
X29921D01*
X30465Y36876D01*
X30926Y37184D01*
X31117Y37375D01*
X31579Y37184D01*
Y30902D01*
X31218Y30855D01*
X30591Y30595D01*
X30053Y30183D01*
X29910Y29996D01*
X23385D01*
X22764Y29873D01*
X22238Y29522D01*
X18816Y26100D01*
X17299D01*
Y27279D01*
X15197D01*
X15089Y27779D01*
X16096Y28786D01*
X16534Y29442D01*
X16634Y29945D01*
X17437D01*
X17437Y29945D01*
X17937Y30030D01*
X18307Y29982D01*
X18979Y30070D01*
X19606Y30330D01*
X20143Y30742D01*
X20556Y31280D01*
X20816Y31907D01*
X20904Y32579D01*
X20816Y33251D01*
X20556Y33877D01*
X20143Y34415D01*
X19617Y34819D01*
X19613Y34857D01*
X19727Y35319D01*
X23185D01*
Y40862D01*
X23087D01*
Y41451D01*
X23143Y41732D01*
X23087Y42013D01*
Y45587D01*
X18331D01*
Y43517D01*
X17437D01*
Y45035D01*
X11894D01*
Y45035D01*
X11433D01*
Y45035D01*
X5939D01*
X5490Y45204D01*
X5464Y45215D01*
Y46320D01*
X5890Y46500D01*
X5964Y46500D01*
X11394D01*
X11433Y46500D01*
X11894D01*
X11933Y46500D01*
X17437D01*
Y46580D01*
X17937Y46960D01*
X18307Y46911D01*
X18979Y46999D01*
X19606Y47259D01*
X19692Y47325D01*
X20225Y47292D01*
X20845Y46817D01*
X21568Y46517D01*
X22343Y46415D01*
X23118Y46517D01*
X23840Y46817D01*
X23941Y46894D01*
X53839D01*
X54613Y47048D01*
X55269Y47487D01*
X61529Y53747D01*
X61968Y54403D01*
X62048Y54807D01*
X62476D01*
Y55556D01*
X62894D01*
X63668Y55710D01*
X64324Y56148D01*
X64816Y56640D01*
X65255Y57297D01*
X65409Y58071D01*
Y63663D01*
X70752D01*
Y60373D01*
D02*
G37*
G36*
X60134Y72858D02*
X59867Y72358D01*
X59135D01*
X60805Y70687D01*
X59391Y69273D01*
X57721Y70944D01*
Y66815D01*
X57721D01*
X57721Y66354D01*
X57721D01*
Y60811D01*
X57721D01*
Y60350D01*
X57721D01*
Y55660D01*
X56806Y54746D01*
X56689Y54741D01*
X56256Y55125D01*
X56256Y55267D01*
Y60311D01*
X56256Y60350D01*
Y60811D01*
X56256Y60850D01*
Y66354D01*
X56256D01*
X56256Y66815D01*
X56256D01*
Y72358D01*
X53067D01*
Y72878D01*
X60120D01*
X60134Y72858D01*
D02*
G37*
G36*
X102052Y65861D02*
X98153Y61962D01*
X97802Y61436D01*
X97678Y60816D01*
Y57480D01*
Y43121D01*
X97802Y42501D01*
X98153Y41974D01*
X99542Y40586D01*
X100068Y40234D01*
X100445Y40159D01*
Y38795D01*
X93846D01*
Y39173D01*
X93723Y39794D01*
X93371Y40320D01*
X92818Y40874D01*
X92853Y41142D01*
X92764Y41814D01*
X92505Y42440D01*
X92092Y42978D01*
X91554Y43391D01*
X90928Y43650D01*
X90256Y43739D01*
X89584Y43650D01*
X88957Y43391D01*
X88420Y42978D01*
X88007Y42440D01*
X87747Y41814D01*
X87659Y41142D01*
X87747Y40470D01*
X88007Y39843D01*
X88420Y39305D01*
X88433Y39295D01*
X88263Y38795D01*
X78823D01*
Y35590D01*
X78792Y35433D01*
Y29412D01*
X75313Y25933D01*
X68029D01*
X67803Y26433D01*
X68144Y26878D01*
X68443Y27600D01*
X68545Y28375D01*
X68443Y29150D01*
X68144Y29872D01*
X67668Y30492D01*
X67048Y30968D01*
X66780Y31079D01*
X66880Y31579D01*
X69409D01*
X67738Y33250D01*
X68839Y34350D01*
X67738Y35451D01*
X69409Y37122D01*
X66817D01*
X66816Y37125D01*
X66403Y37663D01*
X65865Y38076D01*
X65239Y38335D01*
X65159Y38346D01*
X64980Y38874D01*
X70154Y44048D01*
X70752D01*
Y40142D01*
X72492D01*
Y37122D01*
X72287D01*
Y31579D01*
X77043D01*
Y37122D01*
X75736D01*
Y40111D01*
X77557D01*
X78177Y40234D01*
X78703Y40586D01*
X81560Y43442D01*
X81912Y43968D01*
X82035Y44589D01*
Y65748D01*
Y66323D01*
X101860D01*
X102052Y65861D01*
D02*
G37*
G36*
X52839Y29996D02*
X45382D01*
X45349Y30496D01*
X45849Y30562D01*
X46476Y30822D01*
X47014Y31234D01*
X47426Y31772D01*
X47686Y32399D01*
X47774Y33071D01*
X47686Y33743D01*
X47426Y34369D01*
X47014Y34907D01*
X46799Y35072D01*
Y37081D01*
X52839D01*
Y29996D01*
D02*
G37*
%LPC*%
G36*
X70823Y35708D02*
X69465Y34350D01*
X70823Y32993D01*
Y35708D01*
D02*
G37*
%LPD*%
D10*
X36516Y33858D02*
D03*
X57776D02*
D03*
D11*
X102067Y35433D02*
D03*
X100098D02*
D03*
X98130D02*
D03*
X96161D02*
D03*
X94193D02*
D03*
X92224D02*
D03*
X90256D02*
D03*
X88287D02*
D03*
X86319D02*
D03*
X84350D02*
D03*
X82382D02*
D03*
X80413D02*
D03*
Y69685D02*
D03*
X82382D02*
D03*
X84350D02*
D03*
X86319D02*
D03*
X88287D02*
D03*
X90256D02*
D03*
X92224D02*
D03*
X94193D02*
D03*
X96161D02*
D03*
X98130D02*
D03*
X100098D02*
D03*
X102067D02*
D03*
D12*
X74114Y41732D02*
D03*
Y43701D02*
D03*
Y45669D02*
D03*
Y51575D02*
D03*
Y53543D02*
D03*
Y55512D02*
D03*
Y57480D02*
D03*
Y59449D02*
D03*
Y61417D02*
D03*
Y63386D02*
D03*
X108366D02*
D03*
Y61417D02*
D03*
Y59449D02*
D03*
Y57480D02*
D03*
Y55512D02*
D03*
Y53543D02*
D03*
Y51575D02*
D03*
Y49606D02*
D03*
Y47638D02*
D03*
Y45669D02*
D03*
Y43701D02*
D03*
Y41732D02*
D03*
X74114Y49606D02*
D03*
Y47638D02*
D03*
D13*
X94193Y27559D02*
D03*
X92224D02*
D03*
X90256D02*
D03*
X88287D02*
D03*
X86319D02*
D03*
X94193Y10236D02*
D03*
X92224D02*
D03*
X90256D02*
D03*
X88287D02*
D03*
X86319D02*
D03*
D14*
X127953Y53445D02*
D03*
Y62106D02*
D03*
X119291Y53445D02*
D03*
Y62106D02*
D03*
D15*
X117421Y41831D02*
D03*
X127264D02*
D03*
D16*
X36417Y59310D02*
D03*
X47441D02*
D03*
X36417Y55570D02*
D03*
Y51830D02*
D03*
X47441D02*
D03*
D17*
X135663Y13943D02*
D03*
Y7185D02*
D03*
X135630Y19980D02*
D03*
X135663Y26575D02*
D03*
X65551Y28375D02*
D03*
X17126Y69291D02*
D03*
X22343Y49409D02*
D03*
X17323Y60433D02*
D03*
D18*
X-1969Y39173D02*
D03*
Y41732D02*
D03*
Y36614D02*
D03*
Y44291D02*
D03*
Y34055D02*
D03*
D19*
X-2461Y26772D02*
D03*
Y51575D02*
D03*
D20*
X-12500Y34646D02*
D03*
Y43701D02*
D03*
Y24213D02*
D03*
Y54134D02*
D03*
D21*
X39587Y66732D02*
D03*
X47224D02*
D03*
X32658D02*
D03*
X25020D02*
D03*
D22*
X29035Y53598D02*
D03*
Y59819D02*
D03*
X8661Y38543D02*
D03*
Y32323D02*
D03*
Y48878D02*
D03*
Y42658D02*
D03*
X113287Y23071D02*
D03*
Y29291D02*
D03*
X119291Y23071D02*
D03*
Y29291D02*
D03*
X134646Y60177D02*
D03*
Y66398D02*
D03*
X134547Y49154D02*
D03*
Y55374D02*
D03*
X149803Y18268D02*
D03*
Y12047D02*
D03*
X178051D02*
D03*
Y18268D02*
D03*
X177856Y55374D02*
D03*
Y49154D02*
D03*
X125295Y23071D02*
D03*
Y29291D02*
D03*
X149351Y55499D02*
D03*
Y49278D02*
D03*
X14665Y38543D02*
D03*
Y32323D02*
D03*
Y48878D02*
D03*
Y42658D02*
D03*
X101279Y29193D02*
D03*
Y22972D02*
D03*
X107283Y23031D02*
D03*
Y29252D02*
D03*
X155807Y18268D02*
D03*
Y12047D02*
D03*
X143898Y18268D02*
D03*
Y12047D02*
D03*
X184055Y12146D02*
D03*
Y18366D02*
D03*
X172047Y12087D02*
D03*
Y18307D02*
D03*
X183858Y55374D02*
D03*
Y49154D02*
D03*
X171803Y55400D02*
D03*
Y49180D02*
D03*
X155315Y49252D02*
D03*
Y55472D02*
D03*
X143307Y49252D02*
D03*
Y55472D02*
D03*
D23*
X53878Y69587D02*
D03*
X60098D02*
D03*
X53878Y57579D02*
D03*
X60098D02*
D03*
X74665Y70079D02*
D03*
X68445D02*
D03*
X107028D02*
D03*
X113248D02*
D03*
X74665Y34350D02*
D03*
X68445D02*
D03*
X8701Y18504D02*
D03*
X14921D02*
D03*
X130472Y34252D02*
D03*
X124252D02*
D03*
X120827D02*
D03*
X114606D02*
D03*
X60098Y63583D02*
D03*
X53878D02*
D03*
X38839Y74902D02*
D03*
X32618D02*
D03*
X6772Y60335D02*
D03*
X12992D02*
D03*
X26929Y42815D02*
D03*
X20709D02*
D03*
X20807Y38091D02*
D03*
X27028D02*
D03*
X44252Y21358D02*
D03*
X38032D02*
D03*
Y13386D02*
D03*
X44252D02*
D03*
X8701Y24508D02*
D03*
X14921D02*
D03*
D24*
X43701Y74902D02*
D03*
X50394D02*
D03*
X56102Y21358D02*
D03*
X49409D02*
D03*
Y13484D02*
D03*
X56102D02*
D03*
D25*
X25000Y60335D02*
X25394D01*
X25020Y60433D02*
Y66732D01*
X29134Y59310D02*
X36417D01*
X25000Y60413D02*
X28031D01*
X53878Y69587D02*
X53878Y69587D01*
X47333Y63681D02*
Y66624D01*
Y59418D02*
Y63681D01*
X47431Y63583D01*
X53878D01*
X25000Y60413D02*
X25020Y60433D01*
X12992Y60335D02*
X13071Y60413D01*
X4564Y60335D02*
X6772D01*
X3642Y59412D02*
X4564Y60335D01*
X3642Y45214D02*
Y59412D01*
X2719Y44291D02*
X3642Y45214D01*
X-1969Y44291D02*
X2719D01*
X38839Y74902D02*
X43701D01*
X44094D01*
X36417Y59310D02*
X36417Y59310D01*
X12992Y60335D02*
X25000D01*
X28031Y60413D02*
X29134Y59310D01*
D26*
X25000Y60335D02*
Y60413D01*
X31302Y55865D02*
X36122D01*
X29035Y53598D02*
X31302Y55865D01*
X7323Y34055D02*
X8661Y32717D01*
X-1969Y34055D02*
X7323D01*
X8661Y52067D02*
X9350Y52756D01*
X8661Y48878D02*
Y52067D01*
X53878Y56988D02*
Y57579D01*
X60098Y69390D02*
Y69587D01*
X60000Y69291D02*
X60098Y69390D01*
X57874Y69291D02*
X60000D01*
X56988Y68405D02*
X57874Y69291D01*
X56988Y58661D02*
Y68405D01*
X55807Y57480D02*
X56988Y58661D01*
X53976Y57480D02*
X55807D01*
X53878Y57579D02*
X53976Y57480D01*
X53878Y57579D02*
Y57579D01*
X32658Y66732D02*
X39587D01*
X53780Y56890D02*
X53878Y56988D01*
X172047Y12087D02*
X172067Y12067D01*
X178032D01*
X178051Y12047D01*
X143898D02*
X149803D01*
X171803Y49180D02*
X171817Y49167D01*
X177843D01*
X177856Y49154D01*
X143307Y49252D02*
X143320Y49265D01*
X149337D01*
X149351Y49278D01*
X123809Y34301D02*
X123858Y34252D01*
X121122Y34350D02*
X121171Y34301D01*
X36122Y55865D02*
X36417Y55570D01*
X122524Y34384D02*
Y37402D01*
X122441Y34301D02*
X122524Y34384D01*
X121171Y34301D02*
X122441D01*
X123809D01*
X36319Y51928D02*
X36417Y51830D01*
X134547Y55374D02*
Y60079D01*
X134646Y60177D01*
X119291Y53445D02*
X122638D01*
X123524Y54331D01*
Y60728D01*
X124902Y62106D01*
X127953D01*
X134843Y60374D02*
Y62106D01*
X134646Y60177D02*
X134843Y60374D01*
X127953Y62106D02*
X134843D01*
X29921Y33661D02*
X36319D01*
X36516Y33858D01*
X36417Y51830D02*
X40511D01*
X36417Y59310D02*
X40099D01*
X40511Y51830D02*
Y58898D01*
X40099Y59310D02*
X40511Y58898D01*
X51869Y55570D02*
X53878Y57579D01*
X47638Y55570D02*
X51869D01*
X44331D02*
X47638D01*
X43209Y56693D02*
X44331Y55570D01*
X43209Y56693D02*
Y65847D01*
X42323Y66732D02*
X43209Y65847D01*
X39587Y66732D02*
X42323D01*
X8661Y45866D02*
Y48878D01*
D27*
X14734Y32648D02*
X18238D01*
X88287Y4767D02*
Y10630D01*
X155807Y10531D02*
Y12047D01*
X154626Y9350D02*
X155807Y10531D01*
X140256Y9350D02*
X154626D01*
X131442Y12062D02*
X136319Y7185D01*
X86319Y3740D02*
Y10630D01*
X184055Y9547D02*
Y12146D01*
X181693Y7185D02*
X184055Y9547D01*
X136319Y7185D02*
X181693D01*
X90256Y5582D02*
Y10630D01*
X183957Y43701D02*
Y49154D01*
X177756Y37500D02*
X183957Y43701D01*
X148130Y37500D02*
X177756D01*
X136122Y26575D02*
Y30059D01*
X127253Y17706D02*
X136122Y26575D01*
X92224Y6398D02*
Y10630D01*
X155315Y44291D02*
Y49252D01*
X153740Y42717D02*
X155315Y44291D01*
X148779Y42717D02*
X153740D01*
X90256Y21358D02*
Y27953D01*
Y21358D02*
X92421Y19193D01*
X92224Y23344D02*
Y27953D01*
X90256Y41142D02*
X92224Y39173D01*
X95079Y40354D02*
X99032D01*
X94193Y39469D02*
X95079Y40354D01*
X94193Y35433D02*
Y39469D01*
X99032Y40354D02*
X100098Y39287D01*
Y35433D02*
Y39287D01*
X100689Y41732D02*
X102067D01*
Y35433D02*
Y41732D01*
X92224Y35433D02*
Y39173D01*
X84350Y20768D02*
Y35433D01*
X77067Y13484D02*
X84350Y20768D01*
X77559Y21358D02*
X82382Y26181D01*
X75984Y24311D02*
X80413Y28740D01*
X90256Y32087D02*
Y35433D01*
Y32087D02*
X90650Y31693D01*
X91294D01*
X92224Y30762D01*
Y27559D02*
Y30762D01*
X94193Y27559D02*
Y27756D01*
Y24508D02*
Y27559D01*
X82382Y26181D02*
Y35433D01*
X80413Y28740D02*
Y35433D01*
X99114Y29193D02*
X101279D01*
X97736Y27815D02*
X99114Y29193D01*
X97736Y25492D02*
Y27815D01*
X96369Y24125D02*
X97736Y25492D01*
X94576Y24125D02*
X96369D01*
X94193Y24508D02*
X94576Y24125D01*
X100551Y22244D02*
X101279Y22972D01*
X93324Y22244D02*
X100551D01*
X92224Y23344D02*
X93324Y22244D01*
X105118Y19193D02*
X107283Y21358D01*
X92421Y19193D02*
X105118D01*
X94882Y15256D02*
X104823D01*
X94193Y14567D02*
X94882Y15256D01*
X94193Y10630D02*
Y14567D01*
X104823Y15256D02*
X109154Y19587D01*
X82382Y63681D02*
X84104Y61959D01*
X82382Y63681D02*
Y69685D01*
X18238Y32648D02*
X18307Y32579D01*
X14665Y32717D02*
X14734Y32648D01*
X74114Y41732D02*
X77557D01*
X80413Y44589D01*
X14892Y18533D02*
X14921Y18504D01*
X127264Y41831D02*
X127362Y41929D01*
X127264Y35236D02*
Y41831D01*
Y35236D02*
X128248Y34252D01*
X130079D01*
X130079Y34252D01*
X117421Y40748D02*
X117618Y40551D01*
Y35236D02*
Y40551D01*
X116831Y34449D02*
X117618Y35236D01*
X115000Y34449D02*
X116831D01*
X117421Y40748D02*
Y41831D01*
X116043Y39370D02*
X117421Y40748D01*
X123130Y42618D02*
X123917Y41831D01*
X127264D01*
X108366Y45669D02*
X112894D01*
X113583Y44980D01*
Y42421D02*
Y44980D01*
Y42421D02*
X114173Y41831D01*
X117421D01*
X115495Y47638D02*
X115615Y47517D01*
X108366Y47638D02*
X115495D01*
X116395Y49398D02*
X126957D01*
X127953Y50394D01*
Y53445D01*
X116274Y57874D02*
X118504D01*
X119291Y58661D01*
Y62106D01*
X14892Y22736D02*
X14892Y22736D01*
X14892Y18533D02*
Y22736D01*
Y24478D01*
X104724Y53543D02*
X108366D01*
X115615Y47517D02*
X121085D01*
X123130Y45472D01*
Y42618D02*
Y45472D01*
X102067Y29980D02*
Y35433D01*
X101279Y29193D02*
X101378Y29291D01*
X102067Y29980D01*
X88287Y27953D02*
Y35433D01*
Y27953D02*
X88287Y27953D01*
X86319Y27953D02*
Y35433D01*
Y27953D02*
X86319Y27953D01*
X107283Y21358D02*
Y23031D01*
X92224Y6398D02*
X92618Y6004D01*
X99606D01*
X90256Y5582D02*
X91715Y4123D01*
X100509D01*
X111516Y19587D02*
X113287Y21358D01*
Y23071D01*
X125295D01*
X109154Y19587D02*
X111516D01*
X140847Y30217D02*
X148130Y37500D01*
X136122Y30059D02*
X148779Y42717D01*
X100509Y4123D02*
X112211Y15824D01*
X70965Y43701D02*
X74114D01*
X69482Y45669D02*
X74114D01*
X69587Y51575D02*
X74114D01*
X70866Y53543D02*
X74114D01*
X77707Y65748D02*
X80413D01*
X77645Y65687D02*
X77707Y65748D01*
X80413Y44589D02*
Y65748D01*
Y69685D01*
X57776Y28375D02*
Y33858D01*
X74114Y34902D02*
Y41732D01*
Y34902D02*
X74665Y34350D01*
X99606Y6004D02*
X111308Y17706D01*
X127253D01*
X112211Y15824D02*
X131474D01*
X140847Y25197D02*
Y30217D01*
X113451Y13943D02*
X135663D01*
X114818Y12062D02*
X131442D01*
X88287Y4767D02*
X90889Y2165D01*
X101673D01*
X113451Y13943D01*
X103040Y284D02*
X114818Y12062D01*
X86319Y3740D02*
X89775Y284D01*
X103040D01*
X135663Y13943D02*
X140256Y9350D01*
X131474Y15824D02*
X135630Y19980D01*
X140847Y25197D01*
X57776Y28375D02*
X65551D01*
X74665Y73583D02*
X76476Y75394D01*
X74665Y70079D02*
Y73583D01*
X108366Y49606D02*
X116187D01*
X116395Y49398D01*
X103347Y52165D02*
X104724Y53543D01*
X103347Y47146D02*
Y52165D01*
X102362Y46161D02*
X103347Y47146D01*
X102165Y46161D02*
X102362D01*
X64567Y29359D02*
Y35827D01*
Y29359D02*
X65551Y28375D01*
X115256Y56856D02*
X116274Y57874D01*
X108366Y51575D02*
X113539D01*
X115256Y53292D01*
Y56856D01*
X76476Y75394D02*
X105315D01*
X107028Y73681D01*
Y70079D02*
Y73681D01*
Y68543D02*
Y70079D01*
X102067Y41732D02*
X108366D01*
Y55512D02*
X112303D01*
X113248Y56457D01*
Y70079D01*
X45177Y33071D02*
Y37992D01*
X55709Y13484D02*
X56102D01*
X77067D01*
X55709Y21358D02*
X56102D01*
X77559D01*
X119291Y62106D02*
Y64862D01*
X120827Y66398D01*
X134646D01*
X127953Y53445D02*
X130020D01*
X131595Y51870D01*
X133957D01*
X134547Y51279D01*
Y49154D02*
Y51279D01*
X19488Y24478D02*
X23385Y28375D01*
X61417Y24311D02*
X75984D01*
X52658Y25197D02*
X59744D01*
X61417Y24311D01*
X68701Y55709D02*
Y58071D01*
Y55709D02*
X70866Y53543D01*
X67618Y53346D02*
X67716Y53445D01*
X67618Y52658D02*
Y53346D01*
X67716Y53445D02*
X69587Y51575D01*
X14892Y24478D02*
X19488D01*
X23385Y28375D02*
X57776D01*
X99300Y43121D02*
Y57480D01*
X99606Y57480D02*
Y57480D01*
X99300D02*
X99606D01*
X108366D01*
X99300Y43121D02*
X100689Y41732D01*
X99300Y60816D02*
X107028Y68543D01*
X99300Y57480D02*
Y60816D01*
X45177Y37992D02*
X45888Y38703D01*
X62516D01*
X69482Y45669D01*
X14665Y32648D02*
X14734D01*
D28*
X14665Y32323D02*
Y32648D01*
Y30217D02*
Y32323D01*
X13583Y29134D02*
X14665Y30217D01*
Y48878D02*
X15295Y49508D01*
X18307D01*
X18406Y49409D01*
X22343D01*
X63386Y65748D02*
Y72933D01*
Y65748D02*
X63447Y65687D01*
X74606D01*
X61417Y74902D02*
X63386Y72933D01*
X49754Y13435D02*
X49803Y13484D01*
X44252Y13386D02*
Y13435D01*
X60098Y57579D02*
Y63583D01*
X53878D02*
Y69587D01*
X8701Y24508D02*
Y27500D01*
X10335Y29134D01*
X13583D01*
X74665Y65746D02*
Y70079D01*
X74606Y65687D02*
X74665Y65746D01*
X74606Y65687D02*
X77645D01*
X50000Y74902D02*
X50394D01*
X61417D01*
X44252Y21358D02*
X49409D01*
X49803D01*
X44252Y13435D02*
X49754D01*
X60098Y55177D02*
Y57579D01*
X62894D01*
X63386Y58071D01*
Y65748D01*
X22343Y49409D02*
X22835Y48917D01*
X53839D01*
X60098Y55177D01*
X101378Y29291D02*
X113386D01*
X113287Y29291D02*
X125295D01*
D29*
X183858Y55374D02*
X183858Y55374D01*
X177856Y55374D02*
X183858D01*
X183957Y18268D02*
X184055Y18366D01*
X178051Y18268D02*
X183957D01*
X155807D02*
X155807Y18268D01*
X149803Y18268D02*
X155807D01*
X155289Y55499D02*
X155315Y55472D01*
X149351Y55499D02*
X155289D01*
X26929Y42030D02*
X27163Y41796D01*
X26988Y38189D02*
Y38976D01*
X148425Y64137D02*
Y65354D01*
Y64137D02*
X149351Y63211D01*
Y55499D02*
Y63211D01*
X143307Y55472D02*
X143320Y55486D01*
X149337D01*
X149351Y55499D01*
X177412Y55608D02*
X177633Y55387D01*
X177646Y55374D01*
X171817Y55387D02*
X177633D01*
X176969Y65354D02*
X177412Y64911D01*
Y55608D02*
Y64911D01*
X177646Y55374D02*
X177856D01*
X171803Y55400D02*
X171817Y55387D01*
X148425Y26735D02*
Y27953D01*
Y26735D02*
X149803Y25357D01*
Y18268D02*
Y25357D01*
Y18268D02*
X149803Y18268D01*
X143898Y18268D02*
X149803D01*
X176969Y26735D02*
Y27953D01*
Y26735D02*
X178051Y25652D01*
Y18268D02*
Y25652D01*
Y18268D02*
X178051Y18268D01*
X172047Y18307D02*
X172067Y18287D01*
X178032D01*
X178051Y18268D01*
X26929Y42030D02*
Y42815D01*
X20709Y42203D02*
Y42815D01*
X20474Y41969D02*
X20709Y42203D01*
X20768Y38189D02*
Y38703D01*
X20534Y38937D02*
X20768Y38703D01*
X5179Y39173D02*
X8427D01*
X5177D02*
X5179Y39171D01*
X8547Y39051D02*
X8661Y38937D01*
X-1969Y39173D02*
X5177D01*
X-1969Y41732D02*
X-1939Y41703D01*
X-1969Y39173D02*
X-1939Y39203D01*
X-1969Y41732D02*
X21358D01*
X8661Y39173D02*
X20534D01*
D30*
X47224Y66732D02*
X47333Y66624D01*
D31*
X68799Y47638D02*
X74114D01*
X68240Y49606D02*
X74114D01*
X62016Y40854D02*
X68799Y47638D01*
X29921Y38189D02*
X32579Y40846D01*
X61449Y42815D02*
X68240Y49606D01*
X26929Y42815D02*
X61449D01*
X32579Y40846D02*
X62016D01*
X26988Y38189D02*
X29921D01*
D32*
X45235Y30296D02*
D03*
D33*
X156299Y27953D02*
D03*
X148425D02*
D03*
X184843D02*
D03*
X176969D02*
D03*
X184843Y65354D02*
D03*
X176969D02*
D03*
X156299D02*
D03*
X148425D02*
D03*
D34*
X-3248Y72244D02*
D03*
X0Y0D02*
D03*
X125394D02*
D03*
Y77165D02*
D03*
D35*
X91437Y47736D02*
D03*
X122343Y22933D02*
D03*
X91437Y20079D02*
D03*
X90256Y41142D02*
D03*
X-1579Y59843D02*
D03*
X4169Y31323D02*
D03*
X69208Y40966D02*
D03*
X29921Y33661D02*
D03*
X165256Y41240D02*
D03*
X188878Y76673D02*
D03*
X182972Y-6004D02*
D03*
X177067Y76673D02*
D03*
X171161Y-6004D02*
D03*
X165256Y76673D02*
D03*
Y29429D02*
D03*
X159350Y-6004D02*
D03*
X153445Y76673D02*
D03*
X147539Y-6004D02*
D03*
X141634Y76673D02*
D03*
X135728Y41240D02*
D03*
X112106Y-6004D02*
D03*
X100295D02*
D03*
X88484D02*
D03*
X76673D02*
D03*
X70767Y5807D02*
D03*
X64862Y-6004D02*
D03*
X58956Y5807D02*
D03*
X53051Y-6004D02*
D03*
X47146Y5807D02*
D03*
X41240Y-6004D02*
D03*
X35335Y5807D02*
D03*
X29429Y-6004D02*
D03*
X23524Y76673D02*
D03*
Y5807D02*
D03*
X17618Y-6004D02*
D03*
X11712Y76673D02*
D03*
Y5807D02*
D03*
X-6004Y17618D02*
D03*
X50317Y35659D02*
D03*
X18307Y32579D02*
D03*
Y49508D02*
D03*
X102165Y46161D02*
D03*
X64567Y35827D02*
D03*
X45177Y33071D02*
D03*
X31890Y28346D02*
D03*
X122524Y37402D02*
D03*
X84055Y61910D02*
D03*
X71949Y28346D02*
D03*
X9350Y52756D02*
D03*
X68335Y74606D02*
D03*
X52658Y25197D02*
D03*
X68701Y58071D02*
D03*
X67618Y52658D02*
D03*
X112992Y75689D02*
D03*
X99852Y15256D02*
D03*
X60532Y48228D02*
D03*
X23917Y54494D02*
D03*
X165256Y11713D02*
D03*
X139370Y16831D02*
D03*
X35827Y70706D02*
D03*
D36*
X46654Y45472D02*
D03*
X33268D02*
D03*
X47638Y55570D02*
D03*
X42126Y37795D02*
D03*
M02*
