G04 Layer_Color=2752767*
%FSLAX25Y25*%
%MOIN*%
G70*
G01*
G75*
%ADD29C,0.01500*%
%ADD31C,0.00787*%
%ADD40C,0.01000*%
%ADD41C,0.00600*%
%ADD63C,0.00200*%
%ADD64C,0.00100*%
%ADD65C,0.01600*%
D29*
X257603Y24634D02*
X776265D01*
X257603Y-20366D02*
X776265D01*
X257603Y-35366D02*
X776265D01*
Y39634D01*
X257603D02*
X776265D01*
X257603Y-35366D02*
Y39634D01*
X712780Y-35366D02*
Y39634D01*
X562825Y-35366D02*
Y39634D01*
X489445Y-35366D02*
Y39634D01*
X438857Y-35366D02*
Y39634D01*
X366677Y-35366D02*
Y39634D01*
X312691Y-35366D02*
Y39634D01*
X711417Y67110D02*
Y163110D01*
X599448Y139110D02*
X711417D01*
X599448Y127110D02*
X711417D01*
X599448Y115110D02*
X711417D01*
X599448Y103110D02*
X711417D01*
X599448Y91110D02*
X711417D01*
X599448Y79110D02*
X711417D01*
X599448Y67110D02*
X711417D01*
X599448D02*
Y163110D01*
X542462Y139110D02*
X599448D01*
X542462Y127110D02*
X599448D01*
X542462Y115110D02*
X599448D01*
X542462Y103110D02*
X599448D01*
X542462Y91110D02*
X599448D01*
X542462Y79110D02*
X599448D01*
X542462Y67110D02*
X599448D01*
X542462D02*
Y163110D01*
X477479Y139110D02*
X542462D01*
X477479Y127110D02*
X542462D01*
X477479Y115110D02*
X542462D01*
X477479Y103110D02*
X542462D01*
X477479Y91110D02*
X542462D01*
X477479Y79110D02*
X542462D01*
X477479Y67110D02*
X542462D01*
X477479D02*
Y163110D01*
X391502Y139110D02*
X477479D01*
X391502Y127110D02*
X477479D01*
X391502Y115110D02*
X477479D01*
X391502Y103110D02*
X477479D01*
X391502Y91110D02*
X477479D01*
X391502Y79110D02*
X477479D01*
X391502Y67110D02*
X477479D01*
X391502D02*
Y163110D01*
X298528Y139110D02*
X391502D01*
X298528Y127110D02*
X391502D01*
X298528Y115110D02*
X391502D01*
X298528Y103110D02*
X391502D01*
X298528Y91110D02*
X391502D01*
X298528Y79110D02*
X391502D01*
X298528Y67110D02*
X391502D01*
X298528D02*
Y163110D01*
X257536Y139110D02*
X298528D01*
X257536Y127110D02*
X298528D01*
X257536Y115110D02*
X298528D01*
X257536Y103110D02*
X298528D01*
X257536Y91110D02*
X298528D01*
X257536Y79110D02*
X298528D01*
X257536Y67110D02*
X298528D01*
X257536D02*
Y163110D01*
X711417D01*
X257536Y151110D02*
X711417D01*
D31*
X179931Y88195D02*
X213992D01*
X179931Y-14671D02*
X213992D01*
X212992Y49758D02*
Y88195D01*
Y-14671D02*
Y20566D01*
X210992Y82195D02*
X212992Y88195D01*
X214992Y82195D01*
X212992Y-14671D02*
X214992Y-8671D01*
X210992D02*
X212992Y-14671D01*
X-18608Y-31905D02*
Y2543D01*
X197146Y-31905D02*
Y2543D01*
X-18608Y-30906D02*
X72573D01*
X102764D02*
X197146D01*
X-18608D02*
X-12608Y-32906D01*
X-18608Y-30906D02*
X-12608Y-28905D01*
X191146D02*
X197146Y-30906D01*
X191146Y-32906D02*
X197146Y-30906D01*
D40*
X270249Y2467D02*
G03*
X270249Y2467I-3333J0D01*
G01*
X266916Y14134D02*
X270249Y20800D01*
X263582D02*
X270249D01*
X263582D02*
X266916Y14134D01*
X265249Y-14199D02*
X266916Y-15866D01*
X263582Y-14199D02*
X265249D01*
X263582D02*
X265249Y-12533D01*
X263582Y-10866D02*
X265249Y-12533D01*
X263582Y-10866D02*
X265249D01*
X266916Y-9200D01*
X268582Y-10866D01*
X270249D01*
X268582Y-12533D02*
X270249Y-10866D01*
X268582Y-12533D02*
X270249Y-14199D01*
X268582D02*
X270249D01*
X266916Y-15866D02*
X268582Y-14199D01*
X717280Y14134D02*
Y20132D01*
X720279D01*
X721279Y19132D01*
Y17133D01*
X720279Y16133D01*
X717280D01*
X724278Y18133D02*
X726277D01*
X727277Y17133D01*
Y14134D01*
X724278D01*
X723278Y15134D01*
X724278Y16133D01*
X727277D01*
X733275Y20132D02*
Y14134D01*
X730276D01*
X729276Y15134D01*
Y17133D01*
X730276Y18133D01*
X733275D01*
X717280Y-866D02*
Y5132D01*
X720279D01*
X721279Y4132D01*
Y2133D01*
X720279Y1133D01*
X717280D01*
X724278Y3133D02*
X726277D01*
X727277Y2133D01*
Y-866D01*
X724278D01*
X723278Y134D01*
X724278Y1133D01*
X727277D01*
X733275Y5132D02*
Y-866D01*
X730276D01*
X729276Y134D01*
Y2133D01*
X730276Y3133D01*
X733275D01*
X717280Y-9868D02*
Y-13867D01*
X719280Y-15866D01*
X721279Y-13867D01*
Y-9868D01*
X723278Y-15866D02*
X725278D01*
X724278D01*
Y-11867D01*
X723278D01*
X729276D02*
X731276D01*
X732275Y-12867D01*
Y-15866D01*
X729276D01*
X728277Y-14866D01*
X729276Y-13867D01*
X732275D01*
X567325Y20132D02*
X571324D01*
X569325D01*
Y14134D01*
X574323D02*
X576322D01*
X577322Y15134D01*
Y17133D01*
X576322Y18133D01*
X574323D01*
X573323Y17133D01*
Y15134D01*
X574323Y14134D01*
X579321Y12134D02*
Y18133D01*
X582320D01*
X583320Y17133D01*
Y15134D01*
X582320Y14134D01*
X579321D01*
X591318Y20132D02*
Y14134D01*
X595316D01*
X598315Y18133D02*
X600315D01*
X601314Y17133D01*
Y14134D01*
X598315D01*
X597316Y15134D01*
X598315Y16133D01*
X601314D01*
X603314Y18133D02*
Y15134D01*
X604313Y14134D01*
X607312D01*
Y13134D01*
X606313Y12134D01*
X605313D01*
X607312Y14134D02*
Y18133D01*
X612311Y14134D02*
X610311D01*
X609312Y15134D01*
Y17133D01*
X610311Y18133D01*
X612311D01*
X613310Y17133D01*
Y16133D01*
X609312D01*
X615310Y18133D02*
Y14134D01*
Y16133D01*
X616309Y17133D01*
X617309Y18133D01*
X618309D01*
X627306Y17133D02*
X631305D01*
X639302Y20132D02*
Y14134D01*
X642301D01*
X643301Y15134D01*
Y16133D01*
X642301Y17133D01*
X639302D01*
X642301D01*
X643301Y18133D01*
Y19132D01*
X642301Y20132D01*
X639302D01*
X646300Y14134D02*
X648299D01*
X649299Y15134D01*
Y17133D01*
X648299Y18133D01*
X646300D01*
X645300Y17133D01*
Y15134D01*
X646300Y14134D01*
X652298Y19132D02*
Y18133D01*
X651298D01*
X653297D01*
X652298D01*
Y15134D01*
X653297Y14134D01*
X657296Y19132D02*
Y18133D01*
X656296D01*
X658296D01*
X657296D01*
Y15134D01*
X658296Y14134D01*
X662294D02*
X664294D01*
X665294Y15134D01*
Y17133D01*
X664294Y18133D01*
X662294D01*
X661295Y17133D01*
Y15134D01*
X662294Y14134D01*
X667293D02*
Y18133D01*
X668293D01*
X669292Y17133D01*
Y14134D01*
Y17133D01*
X670292Y18133D01*
X671292Y17133D01*
Y14134D01*
X679289Y20132D02*
Y14134D01*
X683288D01*
X686287Y18133D02*
X688286D01*
X689286Y17133D01*
Y14134D01*
X686287D01*
X685287Y15134D01*
X686287Y16133D01*
X689286D01*
X691285Y18133D02*
Y15134D01*
X692285Y14134D01*
X695284D01*
Y13134D01*
X694284Y12134D01*
X693285D01*
X695284Y14134D02*
Y18133D01*
X700282Y14134D02*
X698283D01*
X697283Y15134D01*
Y17133D01*
X698283Y18133D01*
X700282D01*
X701282Y17133D01*
Y16133D01*
X697283D01*
X703281Y18133D02*
Y14134D01*
Y16133D01*
X704281Y17133D01*
X705281Y18133D01*
X706280D01*
X567325Y5132D02*
X571324D01*
X569325D01*
Y-866D01*
X574323D02*
X576322D01*
X577322Y134D01*
Y2133D01*
X576322Y3133D01*
X574323D01*
X573323Y2133D01*
Y134D01*
X574323Y-866D01*
X579321Y-2866D02*
Y3133D01*
X582320D01*
X583320Y2133D01*
Y134D01*
X582320Y-866D01*
X579321D01*
X591318Y5132D02*
Y-866D01*
X595316D01*
X598315Y3133D02*
X600315D01*
X601314Y2133D01*
Y-866D01*
X598315D01*
X597316Y134D01*
X598315Y1133D01*
X601314D01*
X603314Y3133D02*
Y134D01*
X604313Y-866D01*
X607312D01*
Y-1866D01*
X606313Y-2866D01*
X605313D01*
X607312Y-866D02*
Y3133D01*
X612311Y-866D02*
X610311D01*
X609312Y134D01*
Y2133D01*
X610311Y3133D01*
X612311D01*
X613310Y2133D01*
Y1133D01*
X609312D01*
X615310Y3133D02*
Y-866D01*
Y1133D01*
X616309Y2133D01*
X617309Y3133D01*
X618309D01*
X627306Y2133D02*
X631305D01*
X639302Y5132D02*
Y-866D01*
X642301D01*
X643301Y134D01*
Y1133D01*
X642301Y2133D01*
X639302D01*
X642301D01*
X643301Y3133D01*
Y4132D01*
X642301Y5132D01*
X639302D01*
X646300Y-866D02*
X648299D01*
X649299Y134D01*
Y2133D01*
X648299Y3133D01*
X646300D01*
X645300Y2133D01*
Y134D01*
X646300Y-866D01*
X652298Y4132D02*
Y3133D01*
X651298D01*
X653297D01*
X652298D01*
Y134D01*
X653297Y-866D01*
X657296Y4132D02*
Y3133D01*
X656296D01*
X658296D01*
X657296D01*
Y134D01*
X658296Y-866D01*
X662294D02*
X664294D01*
X665294Y134D01*
Y2133D01*
X664294Y3133D01*
X662294D01*
X661295Y2133D01*
Y134D01*
X662294Y-866D01*
X667293D02*
Y3133D01*
X668293D01*
X669292Y2133D01*
Y-866D01*
Y2133D01*
X670292Y3133D01*
X671292Y2133D01*
Y-866D01*
X679289Y5132D02*
Y-866D01*
X683288D01*
X686287Y3133D02*
X688286D01*
X689286Y2133D01*
Y-866D01*
X686287D01*
X685287Y134D01*
X686287Y1133D01*
X689286D01*
X691285Y3133D02*
Y134D01*
X692285Y-866D01*
X695284D01*
Y-1866D01*
X694284Y-2866D01*
X693285D01*
X695284Y-866D02*
Y3133D01*
X700282Y-866D02*
X698283D01*
X697283Y134D01*
Y2133D01*
X698283Y3133D01*
X700282D01*
X701282Y2133D01*
Y1133D01*
X697283D01*
X703281Y3133D02*
Y-866D01*
Y1133D01*
X704281Y2133D01*
X705281Y3133D01*
X706280D01*
X567325Y-9868D02*
X571324D01*
X569325D01*
Y-15866D01*
X574323D02*
X576322D01*
X577322Y-14866D01*
Y-12867D01*
X576322Y-11867D01*
X574323D01*
X573323Y-12867D01*
Y-14866D01*
X574323Y-15866D01*
X579321Y-17865D02*
Y-11867D01*
X582320D01*
X583320Y-12867D01*
Y-14866D01*
X582320Y-15866D01*
X579321D01*
X591318Y-9868D02*
Y-15866D01*
X595316D01*
X598315Y-11867D02*
X600315D01*
X601314Y-12867D01*
Y-15866D01*
X598315D01*
X597316Y-14866D01*
X598315Y-13867D01*
X601314D01*
X603314Y-11867D02*
Y-14866D01*
X604313Y-15866D01*
X607312D01*
Y-16866D01*
X606313Y-17865D01*
X605313D01*
X607312Y-15866D02*
Y-11867D01*
X612311Y-15866D02*
X610311D01*
X609312Y-14866D01*
Y-12867D01*
X610311Y-11867D01*
X612311D01*
X613310Y-12867D01*
Y-13867D01*
X609312D01*
X615310Y-11867D02*
Y-15866D01*
Y-13867D01*
X616309Y-12867D01*
X617309Y-11867D01*
X618309D01*
X627306Y-12867D02*
X631305D01*
X639302Y-9868D02*
Y-15866D01*
X642301D01*
X643301Y-14866D01*
Y-13867D01*
X642301Y-12867D01*
X639302D01*
X642301D01*
X643301Y-11867D01*
Y-10868D01*
X642301Y-9868D01*
X639302D01*
X646300Y-15866D02*
X648299D01*
X649299Y-14866D01*
Y-12867D01*
X648299Y-11867D01*
X646300D01*
X645300Y-12867D01*
Y-14866D01*
X646300Y-15866D01*
X652298Y-10868D02*
Y-11867D01*
X651298D01*
X653297D01*
X652298D01*
Y-14866D01*
X653297Y-15866D01*
X657296Y-10868D02*
Y-11867D01*
X656296D01*
X658296D01*
X657296D01*
Y-14866D01*
X658296Y-15866D01*
X662294D02*
X664294D01*
X665294Y-14866D01*
Y-12867D01*
X664294Y-11867D01*
X662294D01*
X661295Y-12867D01*
Y-14866D01*
X662294Y-15866D01*
X667293D02*
Y-11867D01*
X668293D01*
X669292Y-12867D01*
Y-15866D01*
Y-12867D01*
X670292Y-11867D01*
X671292Y-12867D01*
Y-15866D01*
X679289Y-9868D02*
Y-15866D01*
X683288D01*
X686287Y-11867D02*
X688286D01*
X689286Y-12867D01*
Y-15866D01*
X686287D01*
X685287Y-14866D01*
X686287Y-13867D01*
X689286D01*
X691285Y-11867D02*
Y-14866D01*
X692285Y-15866D01*
X695284D01*
Y-16866D01*
X694284Y-17865D01*
X693285D01*
X695284Y-15866D02*
Y-11867D01*
X700282Y-15866D02*
X698283D01*
X697283Y-14866D01*
Y-12867D01*
X698283Y-11867D01*
X700282D01*
X701282Y-12867D01*
Y-13867D01*
X697283D01*
X703281Y-11867D02*
Y-15866D01*
Y-13867D01*
X704281Y-12867D01*
X705281Y-11867D01*
X706280D01*
X493945Y14134D02*
Y20132D01*
X496944D01*
X497944Y19132D01*
Y17133D01*
X496944Y16133D01*
X493945D01*
X495944D02*
X497944Y14134D01*
X500943D02*
X502942D01*
X503942Y15134D01*
Y17133D01*
X502942Y18133D01*
X500943D01*
X499943Y17133D01*
Y15134D01*
X500943Y14134D01*
X505941Y18133D02*
Y15134D01*
X506941Y14134D01*
X509940D01*
Y18133D01*
X511939Y14134D02*
Y18133D01*
X514938D01*
X515938Y17133D01*
Y14134D01*
X521936Y20132D02*
Y14134D01*
X518937D01*
X517937Y15134D01*
Y17133D01*
X518937Y18133D01*
X521936D01*
X493945Y-866D02*
Y5132D01*
X496944D01*
X497944Y4132D01*
Y2133D01*
X496944Y1133D01*
X493945D01*
X495944D02*
X497944Y-866D01*
X500943D02*
X502942D01*
X503942Y134D01*
Y2133D01*
X502942Y3133D01*
X500943D01*
X499943Y2133D01*
Y134D01*
X500943Y-866D01*
X505941Y3133D02*
Y134D01*
X506941Y-866D01*
X509940D01*
Y3133D01*
X511939Y-866D02*
Y3133D01*
X514938D01*
X515938Y2133D01*
Y-866D01*
X521936Y5132D02*
Y-866D01*
X518937D01*
X517937Y134D01*
Y2133D01*
X518937Y3133D01*
X521936D01*
X493945Y-15866D02*
Y-9868D01*
X496944D01*
X497944Y-10868D01*
Y-12867D01*
X496944Y-13867D01*
X493945D01*
X495944D02*
X497944Y-15866D01*
X500943D02*
X502942D01*
X503942Y-14866D01*
Y-12867D01*
X502942Y-11867D01*
X500943D01*
X499943Y-12867D01*
Y-14866D01*
X500943Y-15866D01*
X505941Y-11867D02*
Y-14866D01*
X506941Y-15866D01*
X509940D01*
Y-11867D01*
X511939Y-15866D02*
Y-11867D01*
X514938D01*
X515938Y-12867D01*
Y-15866D01*
X521936Y-9868D02*
Y-15866D01*
X518937D01*
X517937Y-14866D01*
Y-12867D01*
X518937Y-11867D01*
X521936D01*
X443357Y14134D02*
Y20132D01*
X446356D01*
X447356Y19132D01*
Y17133D01*
X446356Y16133D01*
X443357D01*
X449356Y20132D02*
X453354D01*
X451355D01*
Y14134D01*
X455354Y20132D02*
Y14134D01*
Y17133D01*
X459352D01*
Y20132D01*
Y14134D01*
X443357Y-866D02*
Y5132D01*
X446356D01*
X447356Y4132D01*
Y2133D01*
X446356Y1133D01*
X443357D01*
X449356Y5132D02*
X453354D01*
X451355D01*
Y-866D01*
X455354Y5132D02*
Y-866D01*
Y2133D01*
X459352D01*
Y5132D01*
Y-866D01*
X443357Y-15866D02*
Y-9868D01*
X446356D01*
X447356Y-10868D01*
Y-12867D01*
X446356Y-13867D01*
X443357D01*
X449356Y-9868D02*
X453354D01*
X451355D01*
Y-15866D01*
X455354Y-9868D02*
Y-15866D01*
Y-12867D01*
X459352D01*
Y-9868D01*
Y-15866D01*
X371177Y19132D02*
X372177Y20132D01*
X374176D01*
X375176Y19132D01*
Y18133D01*
X374176Y17133D01*
X373176D01*
X374176D01*
X375176Y16133D01*
Y15134D01*
X374176Y14134D01*
X372177D01*
X371177Y15134D01*
X377175Y14134D02*
Y15134D01*
X378175D01*
Y14134D01*
X377175D01*
X382173Y19132D02*
X383173Y20132D01*
X385172D01*
X386172Y19132D01*
Y15134D01*
X385172Y14134D01*
X383173D01*
X382173Y15134D01*
Y19132D01*
X388171D02*
X389171Y20132D01*
X391170D01*
X392170Y19132D01*
Y15134D01*
X391170Y14134D01*
X389171D01*
X388171Y15134D01*
Y19132D01*
X394169D02*
X395169Y20132D01*
X397168D01*
X398168Y19132D01*
Y15134D01*
X397168Y14134D01*
X395169D01*
X394169Y15134D01*
Y19132D01*
X400168Y14134D02*
Y18133D01*
X401167D01*
X402167Y17133D01*
Y14134D01*
Y17133D01*
X403166Y18133D01*
X404166Y17133D01*
Y14134D01*
X406166D02*
Y18133D01*
X407165D01*
X408165Y17133D01*
Y14134D01*
Y17133D01*
X409165Y18133D01*
X410164Y17133D01*
Y14134D01*
X371177Y4132D02*
X372177Y5132D01*
X374176D01*
X375176Y4132D01*
Y134D01*
X374176Y-866D01*
X372177D01*
X371177Y134D01*
Y4132D01*
X377175Y-866D02*
Y134D01*
X378175D01*
Y-866D01*
X377175D01*
X382173Y4132D02*
X383173Y5132D01*
X385172D01*
X386172Y4132D01*
Y3133D01*
X385172Y2133D01*
X386172Y1133D01*
Y134D01*
X385172Y-866D01*
X383173D01*
X382173Y134D01*
Y1133D01*
X383173Y2133D01*
X382173Y3133D01*
Y4132D01*
X383173Y2133D02*
X385172D01*
X388171Y4132D02*
X389171Y5132D01*
X391170D01*
X392170Y4132D01*
Y134D01*
X391170Y-866D01*
X389171D01*
X388171Y134D01*
Y4132D01*
X394169D02*
X395169Y5132D01*
X397168D01*
X398168Y4132D01*
Y134D01*
X397168Y-866D01*
X395169D01*
X394169Y134D01*
Y4132D01*
X400168Y-866D02*
Y3133D01*
X401167D01*
X402167Y2133D01*
Y-866D01*
Y2133D01*
X403166Y3133D01*
X404166Y2133D01*
Y-866D01*
X406166D02*
Y3133D01*
X407165D01*
X408165Y2133D01*
Y-866D01*
Y2133D01*
X409165Y3133D01*
X410164Y2133D01*
Y-866D01*
X371177Y-10868D02*
X372177Y-9868D01*
X374176D01*
X375176Y-10868D01*
Y-14866D01*
X374176Y-15866D01*
X372177D01*
X371177Y-14866D01*
Y-10868D01*
X377175Y-15866D02*
Y-14866D01*
X378175D01*
Y-15866D01*
X377175D01*
X385172D02*
Y-9868D01*
X382173Y-12867D01*
X386172D01*
X388171Y-10868D02*
X389171Y-9868D01*
X391170D01*
X392170Y-10868D01*
Y-14866D01*
X391170Y-15866D01*
X389171D01*
X388171Y-14866D01*
Y-10868D01*
X394169D02*
X395169Y-9868D01*
X397168D01*
X398168Y-10868D01*
Y-14866D01*
X397168Y-15866D01*
X395169D01*
X394169Y-14866D01*
Y-10868D01*
X400168Y-15866D02*
Y-11867D01*
X401167D01*
X402167Y-12867D01*
Y-15866D01*
Y-12867D01*
X403166Y-11867D01*
X404166Y-12867D01*
Y-15866D01*
X406166D02*
Y-11867D01*
X407165D01*
X408165Y-12867D01*
Y-15866D01*
Y-12867D01*
X409165Y-11867D01*
X410164Y-12867D01*
Y-15866D01*
X317191Y-24868D02*
X321189D01*
Y-25868D01*
X317191Y-29866D01*
Y-30866D01*
X327187Y-24868D02*
X325188Y-25868D01*
X323189Y-27867D01*
Y-29866D01*
X324188Y-30866D01*
X326188D01*
X327187Y-29866D01*
Y-28867D01*
X326188Y-27867D01*
X323189D01*
X335185Y-24868D02*
X339184D01*
X337184D01*
Y-30866D01*
X342183D02*
X344182D01*
X345182Y-29866D01*
Y-27867D01*
X344182Y-26867D01*
X342183D01*
X341183Y-27867D01*
Y-29866D01*
X342183Y-30866D01*
X348181Y-25868D02*
Y-26867D01*
X347181D01*
X349180D01*
X348181D01*
Y-29866D01*
X349180Y-30866D01*
X353179Y-26867D02*
X355178D01*
X356178Y-27867D01*
Y-30866D01*
X353179D01*
X352179Y-29866D01*
X353179Y-28867D01*
X356178D01*
X358177Y-30866D02*
X360177D01*
X359177D01*
Y-24868D01*
X358177D01*
X320190Y14134D02*
Y20132D01*
X317191Y17133D01*
X321189D01*
X317191Y4132D02*
X318190Y5132D01*
X320190D01*
X321189Y4132D01*
Y3133D01*
X320190Y2133D01*
X321189Y1133D01*
Y134D01*
X320190Y-866D01*
X318190D01*
X317191Y134D01*
Y1133D01*
X318190Y2133D01*
X317191Y3133D01*
Y4132D01*
X318190Y2133D02*
X320190D01*
X321189Y-9868D02*
X319190Y-10868D01*
X317191Y-12867D01*
Y-14866D01*
X318190Y-15866D01*
X320190D01*
X321189Y-14866D01*
Y-13867D01*
X320190Y-12867D01*
X317191D01*
X326188Y-15866D02*
Y-9868D01*
X323189Y-12867D01*
X327187D01*
X605448Y160108D02*
Y154110D01*
X608447D01*
X609447Y155110D01*
Y156110D01*
X608447Y157109D01*
X605448D01*
X608447D01*
X609447Y158109D01*
Y159109D01*
X608447Y160108D01*
X605448D01*
X612446Y154110D02*
X614445D01*
X615445Y155110D01*
Y157109D01*
X614445Y158109D01*
X612446D01*
X611446Y157109D01*
Y155110D01*
X612446Y154110D01*
X618444Y158109D02*
X620443D01*
X621443Y157109D01*
Y154110D01*
X618444D01*
X617444Y155110D01*
X618444Y156110D01*
X621443D01*
X623443Y158109D02*
Y154110D01*
Y156110D01*
X624442Y157109D01*
X625442Y158109D01*
X626441D01*
X633439Y160108D02*
Y154110D01*
X630440D01*
X629441Y155110D01*
Y157109D01*
X630440Y158109D01*
X633439D01*
X641437Y160108D02*
Y154110D01*
X645435D01*
X648434Y158109D02*
X650434D01*
X651433Y157109D01*
Y154110D01*
X648434D01*
X647435Y155110D01*
X648434Y156110D01*
X651433D01*
X653433Y158109D02*
Y155110D01*
X654432Y154110D01*
X657432D01*
Y153111D01*
X656432Y152111D01*
X655432D01*
X657432Y154110D02*
Y158109D01*
X662430Y154110D02*
X660430D01*
X659431Y155110D01*
Y157109D01*
X660430Y158109D01*
X662430D01*
X663430Y157109D01*
Y156110D01*
X659431D01*
X665429Y158109D02*
Y154110D01*
Y156110D01*
X666429Y157109D01*
X667428Y158109D01*
X668428D01*
X681424Y159109D02*
X680424Y160108D01*
X678425D01*
X677425Y159109D01*
Y158109D01*
X678425Y157109D01*
X680424D01*
X681424Y156110D01*
Y155110D01*
X680424Y154110D01*
X678425D01*
X677425Y155110D01*
X684423Y159109D02*
Y158109D01*
X683423D01*
X685423D01*
X684423D01*
Y155110D01*
X685423Y154110D01*
X689421Y158109D02*
X691421D01*
X692420Y157109D01*
Y154110D01*
X689421D01*
X688421Y155110D01*
X689421Y156110D01*
X692420D01*
X698418Y158109D02*
X695419D01*
X694419Y157109D01*
Y155110D01*
X695419Y154110D01*
X698418D01*
X700418D02*
Y160108D01*
Y156110D02*
X703417Y158109D01*
X700418Y156110D02*
X703417Y154110D01*
X548462Y135109D02*
X549462Y136108D01*
X551461D01*
X552461Y135109D01*
Y134109D01*
X551461Y133109D01*
X550462D01*
X551461D01*
X552461Y132110D01*
Y131110D01*
X551461Y130110D01*
X549462D01*
X548462Y131110D01*
X554460Y130110D02*
Y131110D01*
X555460D01*
Y130110D01*
X554460D01*
X563457Y136108D02*
X559459D01*
Y133109D01*
X561458Y134109D01*
X562458D01*
X563457Y133109D01*
Y131110D01*
X562458Y130110D01*
X560458D01*
X559459Y131110D01*
X551461Y106110D02*
Y112108D01*
X548462Y109109D01*
X552461D01*
X554460Y106110D02*
Y107110D01*
X555460D01*
Y106110D01*
X554460D01*
X559459Y111109D02*
X560458Y112108D01*
X562458D01*
X563457Y111109D01*
Y110109D01*
X562458Y109109D01*
X563457Y108110D01*
Y107110D01*
X562458Y106110D01*
X560458D01*
X559459Y107110D01*
Y108110D01*
X560458Y109109D01*
X559459Y110109D01*
Y111109D01*
X560458Y109109D02*
X562458D01*
X548462Y87109D02*
X549462Y88108D01*
X551461D01*
X552461Y87109D01*
Y86109D01*
X551461Y85109D01*
X550462D01*
X551461D01*
X552461Y84110D01*
Y83110D01*
X551461Y82110D01*
X549462D01*
X548462Y83110D01*
X554460Y82110D02*
Y83110D01*
X555460D01*
Y82110D01*
X554460D01*
X563457Y88108D02*
X559459D01*
Y85109D01*
X561458Y86109D01*
X562458D01*
X563457Y85109D01*
Y83110D01*
X562458Y82110D01*
X560458D01*
X559459Y83110D01*
X552461Y159109D02*
X551461Y160108D01*
X549462D01*
X548462Y159109D01*
Y155110D01*
X549462Y154110D01*
X551461D01*
X552461Y155110D01*
X555460Y154110D02*
X557459D01*
X558459Y155110D01*
Y157109D01*
X557459Y158109D01*
X555460D01*
X554460Y157109D01*
Y155110D01*
X555460Y154110D01*
X560458D02*
Y158109D01*
X563457D01*
X564457Y157109D01*
Y154110D01*
X566456D02*
X569455D01*
X570455Y155110D01*
X569455Y156110D01*
X567456D01*
X566456Y157109D01*
X567456Y158109D01*
X570455D01*
X573454Y159109D02*
Y158109D01*
X572455D01*
X574454D01*
X573454D01*
Y155110D01*
X574454Y154110D01*
X578452Y158109D02*
X580452D01*
X581452Y157109D01*
Y154110D01*
X578452D01*
X577453Y155110D01*
X578452Y156110D01*
X581452D01*
X583451Y154110D02*
Y158109D01*
X586450D01*
X587450Y157109D01*
Y154110D01*
X590449Y159109D02*
Y158109D01*
X589449D01*
X591448D01*
X590449D01*
Y155110D01*
X591448Y154110D01*
X483479Y135109D02*
X484478Y136108D01*
X486478D01*
X487477Y135109D01*
Y131110D01*
X486478Y130110D01*
X484478D01*
X483479Y131110D01*
Y135109D01*
X489477Y130110D02*
Y131110D01*
X490477D01*
Y130110D01*
X489477D01*
X494475Y135109D02*
X495475Y136108D01*
X497474D01*
X498474Y135109D01*
Y131110D01*
X497474Y130110D01*
X495475D01*
X494475Y131110D01*
Y135109D01*
X500473Y130110D02*
X502473D01*
X501473D01*
Y136108D01*
X500473Y135109D01*
X505472D02*
X506471Y136108D01*
X508471D01*
X509470Y135109D01*
Y131110D01*
X508471Y130110D01*
X506471D01*
X505472Y131110D01*
Y135109D01*
X511470Y130110D02*
Y134109D01*
X512469D01*
X513469Y133109D01*
Y130110D01*
Y133109D01*
X514469Y134109D01*
X515468Y133109D01*
Y130110D01*
X517468D02*
Y134109D01*
X518467D01*
X519467Y133109D01*
Y130110D01*
Y133109D01*
X520467Y134109D01*
X521466Y133109D01*
Y130110D01*
X483479Y123109D02*
X484478Y124108D01*
X486478D01*
X487477Y123109D01*
Y119110D01*
X486478Y118110D01*
X484478D01*
X483479Y119110D01*
Y123109D01*
X489477Y118110D02*
Y119110D01*
X490477D01*
Y118110D01*
X489477D01*
X494475Y123109D02*
X495475Y124108D01*
X497474D01*
X498474Y123109D01*
Y119110D01*
X497474Y118110D01*
X495475D01*
X494475Y119110D01*
Y123109D01*
X500473D02*
X501473Y124108D01*
X503472D01*
X504472Y123109D01*
Y122109D01*
X503472Y121109D01*
X502473D01*
X503472D01*
X504472Y120110D01*
Y119110D01*
X503472Y118110D01*
X501473D01*
X500473Y119110D01*
X510470Y124108D02*
X508471Y123109D01*
X506471Y121109D01*
Y119110D01*
X507471Y118110D01*
X509470D01*
X510470Y119110D01*
Y120110D01*
X509470Y121109D01*
X506471D01*
X512469Y118110D02*
Y122109D01*
X513469D01*
X514469Y121109D01*
Y118110D01*
Y121109D01*
X515468Y122109D01*
X516468Y121109D01*
Y118110D01*
X518467D02*
Y122109D01*
X519467D01*
X520467Y121109D01*
Y118110D01*
Y121109D01*
X521466Y122109D01*
X522466Y121109D01*
Y118110D01*
X483479Y111109D02*
X484478Y112108D01*
X486478D01*
X487477Y111109D01*
Y107110D01*
X486478Y106110D01*
X484478D01*
X483479Y107110D01*
Y111109D01*
X489477Y106110D02*
Y107110D01*
X490477D01*
Y106110D01*
X489477D01*
X494475Y111109D02*
X495475Y112108D01*
X497474D01*
X498474Y111109D01*
Y110109D01*
X497474Y109109D01*
X496475D01*
X497474D01*
X498474Y108110D01*
Y107110D01*
X497474Y106110D01*
X495475D01*
X494475Y107110D01*
X504472Y106110D02*
X500473D01*
X504472Y110109D01*
Y111109D01*
X503472Y112108D01*
X501473D01*
X500473Y111109D01*
X506471D02*
X507471Y112108D01*
X509470D01*
X510470Y111109D01*
Y107110D01*
X509470Y106110D01*
X507471D01*
X506471Y107110D01*
Y111109D01*
X512469Y106110D02*
Y110109D01*
X513469D01*
X514469Y109109D01*
Y106110D01*
Y109109D01*
X515468Y110109D01*
X516468Y109109D01*
Y106110D01*
X518467D02*
Y110109D01*
X519467D01*
X520467Y109109D01*
Y106110D01*
Y109109D01*
X521466Y110109D01*
X522466Y109109D01*
Y106110D01*
X483479Y99109D02*
X484478Y100108D01*
X486478D01*
X487477Y99109D01*
Y95110D01*
X486478Y94110D01*
X484478D01*
X483479Y95110D01*
Y99109D01*
X489477Y94110D02*
Y95110D01*
X490477D01*
Y94110D01*
X489477D01*
X494475Y99109D02*
X495475Y100108D01*
X497474D01*
X498474Y99109D01*
Y95110D01*
X497474Y94110D01*
X495475D01*
X494475Y95110D01*
Y99109D01*
X500473D02*
X501473Y100108D01*
X503472D01*
X504472Y99109D01*
Y98109D01*
X503472Y97109D01*
X502473D01*
X503472D01*
X504472Y96110D01*
Y95110D01*
X503472Y94110D01*
X501473D01*
X500473Y95110D01*
X510470Y100108D02*
X508471Y99109D01*
X506471Y97109D01*
Y95110D01*
X507471Y94110D01*
X509470D01*
X510470Y95110D01*
Y96110D01*
X509470Y97109D01*
X506471D01*
X512469Y94110D02*
Y98109D01*
X513469D01*
X514469Y97109D01*
Y94110D01*
Y97109D01*
X515468Y98109D01*
X516468Y97109D01*
Y94110D01*
X518467D02*
Y98109D01*
X519467D01*
X520467Y97109D01*
Y94110D01*
Y97109D01*
X521466Y98109D01*
X522466Y97109D01*
Y94110D01*
X483479Y87109D02*
X484478Y88108D01*
X486478D01*
X487477Y87109D01*
Y83110D01*
X486478Y82110D01*
X484478D01*
X483479Y83110D01*
Y87109D01*
X489477Y82110D02*
Y83110D01*
X490477D01*
Y82110D01*
X489477D01*
X494475Y87109D02*
X495475Y88108D01*
X497474D01*
X498474Y87109D01*
Y83110D01*
X497474Y82110D01*
X495475D01*
X494475Y83110D01*
Y87109D01*
X500473Y82110D02*
X502473D01*
X501473D01*
Y88108D01*
X500473Y87109D01*
X505472D02*
X506471Y88108D01*
X508471D01*
X509470Y87109D01*
Y83110D01*
X508471Y82110D01*
X506471D01*
X505472Y83110D01*
Y87109D01*
X511470Y82110D02*
Y86109D01*
X512469D01*
X513469Y85109D01*
Y82110D01*
Y85109D01*
X514469Y86109D01*
X515468Y85109D01*
Y82110D01*
X517468D02*
Y86109D01*
X518467D01*
X519467Y85109D01*
Y82110D01*
Y85109D01*
X520467Y86109D01*
X521466Y85109D01*
Y82110D01*
X483479Y160108D02*
X487477D01*
X485478D01*
Y154110D01*
X489477Y160108D02*
Y154110D01*
Y157109D01*
X490477Y158109D01*
X492476D01*
X493475Y157109D01*
Y154110D01*
X495475D02*
X497474D01*
X496475D01*
Y158109D01*
X495475D01*
X504472D02*
X501473D01*
X500473Y157109D01*
Y155110D01*
X501473Y154110D01*
X504472D01*
X506471D02*
Y160108D01*
Y156110D02*
X509470Y158109D01*
X506471Y156110D02*
X509470Y154110D01*
X512469D02*
Y158109D01*
X515468D01*
X516468Y157109D01*
Y154110D01*
X521466D02*
X519467D01*
X518467Y155110D01*
Y157109D01*
X519467Y158109D01*
X521466D01*
X522466Y157109D01*
Y156110D01*
X518467D01*
X524466Y154110D02*
X527464D01*
X528464Y155110D01*
X527464Y156110D01*
X525465D01*
X524466Y157109D01*
X525465Y158109D01*
X528464D01*
X530464Y154110D02*
X533463D01*
X534462Y155110D01*
X533463Y156110D01*
X531463D01*
X530464Y157109D01*
X531463Y158109D01*
X534462D01*
X401501Y135109D02*
X400501Y136108D01*
X398502D01*
X397502Y135109D01*
Y134109D01*
X398502Y133109D01*
X400501D01*
X401501Y132110D01*
Y131110D01*
X400501Y130110D01*
X398502D01*
X397502Y131110D01*
X404500Y130110D02*
X406499D01*
X407499Y131110D01*
Y133109D01*
X406499Y134109D01*
X404500D01*
X403500Y133109D01*
Y131110D01*
X404500Y130110D01*
X409498D02*
X411497D01*
X410498D01*
Y136108D01*
X409498D01*
X418495D02*
Y130110D01*
X415496D01*
X414497Y131110D01*
Y133109D01*
X415496Y134109D01*
X418495D01*
X423494Y130110D02*
X421494D01*
X420495Y131110D01*
Y133109D01*
X421494Y134109D01*
X423494D01*
X424493Y133109D01*
Y132110D01*
X420495D01*
X426493Y134109D02*
Y130110D01*
Y132110D01*
X427492Y133109D01*
X428492Y134109D01*
X429492D01*
X438489Y130110D02*
Y136108D01*
X441488D01*
X442487Y135109D01*
Y133109D01*
X441488Y132110D01*
X438489D01*
X440488D02*
X442487Y130110D01*
X447486D02*
X445486D01*
X444487Y131110D01*
Y133109D01*
X445486Y134109D01*
X447486D01*
X448486Y133109D01*
Y132110D01*
X444487D01*
X450485Y130110D02*
X453484D01*
X454484Y131110D01*
X453484Y132110D01*
X451485D01*
X450485Y133109D01*
X451485Y134109D01*
X454484D01*
X456483Y130110D02*
X458482D01*
X457483D01*
Y134109D01*
X456483D01*
X461481Y130110D02*
X464480D01*
X465480Y131110D01*
X464480Y132110D01*
X462481D01*
X461481Y133109D01*
X462481Y134109D01*
X465480D01*
X468479Y135109D02*
Y134109D01*
X467479D01*
X469479D01*
X468479D01*
Y131110D01*
X469479Y130110D01*
X401501Y123109D02*
X400501Y124108D01*
X398502D01*
X397502Y123109D01*
Y119110D01*
X398502Y118110D01*
X400501D01*
X401501Y119110D01*
X404500Y118110D02*
X406499D01*
X407499Y119110D01*
Y121109D01*
X406499Y122109D01*
X404500D01*
X403500Y121109D01*
Y119110D01*
X404500Y118110D01*
X409498Y116111D02*
Y122109D01*
X412497D01*
X413497Y121109D01*
Y119110D01*
X412497Y118110D01*
X409498D01*
X415496Y116111D02*
Y122109D01*
X418495D01*
X419495Y121109D01*
Y119110D01*
X418495Y118110D01*
X415496D01*
X424493D02*
X422494D01*
X421494Y119110D01*
Y121109D01*
X422494Y122109D01*
X424493D01*
X425493Y121109D01*
Y120110D01*
X421494D01*
X427492Y122109D02*
Y118110D01*
Y120110D01*
X428492Y121109D01*
X429492Y122109D01*
X430491D01*
X401501Y112108D02*
X397502D01*
Y109109D01*
X399501D01*
X397502D01*
Y106110D01*
X403500D02*
Y112108D01*
X406499D01*
X407499Y111109D01*
Y109109D01*
X406499Y108110D01*
X403500D01*
X405499D02*
X407499Y106110D01*
X409498Y109109D02*
X413497D01*
X418495Y106110D02*
Y112108D01*
X415496Y109109D01*
X419495D01*
X401501Y99109D02*
X400501Y100108D01*
X398502D01*
X397502Y99109D01*
Y95110D01*
X398502Y94110D01*
X400501D01*
X401501Y95110D01*
X404500Y94110D02*
X406499D01*
X407499Y95110D01*
Y97109D01*
X406499Y98109D01*
X404500D01*
X403500Y97109D01*
Y95110D01*
X404500Y94110D01*
X409498Y92111D02*
Y98109D01*
X412497D01*
X413497Y97109D01*
Y95110D01*
X412497Y94110D01*
X409498D01*
X415496Y92111D02*
Y98109D01*
X418495D01*
X419495Y97109D01*
Y95110D01*
X418495Y94110D01*
X415496D01*
X424493D02*
X422494D01*
X421494Y95110D01*
Y97109D01*
X422494Y98109D01*
X424493D01*
X425493Y97109D01*
Y96110D01*
X421494D01*
X427492Y98109D02*
Y94110D01*
Y96110D01*
X428492Y97109D01*
X429492Y98109D01*
X430491D01*
X401501Y87109D02*
X400501Y88108D01*
X398502D01*
X397502Y87109D01*
Y86109D01*
X398502Y85109D01*
X400501D01*
X401501Y84110D01*
Y83110D01*
X400501Y82110D01*
X398502D01*
X397502Y83110D01*
X404500Y82110D02*
X406499D01*
X407499Y83110D01*
Y85109D01*
X406499Y86109D01*
X404500D01*
X403500Y85109D01*
Y83110D01*
X404500Y82110D01*
X409498D02*
X411497D01*
X410498D01*
Y88108D01*
X409498D01*
X418495D02*
Y82110D01*
X415496D01*
X414497Y83110D01*
Y85109D01*
X415496Y86109D01*
X418495D01*
X423494Y82110D02*
X421494D01*
X420495Y83110D01*
Y85109D01*
X421494Y86109D01*
X423494D01*
X424493Y85109D01*
Y84110D01*
X420495D01*
X426493Y86109D02*
Y82110D01*
Y84110D01*
X427492Y85109D01*
X428492Y86109D01*
X429492D01*
X438489Y82110D02*
Y88108D01*
X441488D01*
X442487Y87109D01*
Y85109D01*
X441488Y84110D01*
X438489D01*
X440488D02*
X442487Y82110D01*
X447486D02*
X445486D01*
X444487Y83110D01*
Y85109D01*
X445486Y86109D01*
X447486D01*
X448486Y85109D01*
Y84110D01*
X444487D01*
X450485Y82110D02*
X453484D01*
X454484Y83110D01*
X453484Y84110D01*
X451485D01*
X450485Y85109D01*
X451485Y86109D01*
X454484D01*
X456483Y82110D02*
X458482D01*
X457483D01*
Y86109D01*
X456483D01*
X461481Y82110D02*
X464480D01*
X465480Y83110D01*
X464480Y84110D01*
X462481D01*
X461481Y85109D01*
X462481Y86109D01*
X465480D01*
X468479Y87109D02*
Y86109D01*
X467479D01*
X469479D01*
X468479D01*
Y83110D01*
X469479Y82110D01*
X397502Y154110D02*
Y160108D01*
X399501Y158109D01*
X401501Y160108D01*
Y154110D01*
X404500Y158109D02*
X406499D01*
X407499Y157109D01*
Y154110D01*
X404500D01*
X403500Y155110D01*
X404500Y156110D01*
X407499D01*
X410498Y159109D02*
Y158109D01*
X409498D01*
X411497D01*
X410498D01*
Y155110D01*
X411497Y154110D01*
X417495D02*
X415496D01*
X414497Y155110D01*
Y157109D01*
X415496Y158109D01*
X417495D01*
X418495Y157109D01*
Y156110D01*
X414497D01*
X420495Y158109D02*
Y154110D01*
Y156110D01*
X421494Y157109D01*
X422494Y158109D01*
X423494D01*
X426493Y154110D02*
X428492D01*
X427492D01*
Y158109D01*
X426493D01*
X432491D02*
X434490D01*
X435490Y157109D01*
Y154110D01*
X432491D01*
X431491Y155110D01*
X432491Y156110D01*
X435490D01*
X437489Y154110D02*
X439488D01*
X438489D01*
Y160108D01*
X437489D01*
X304528Y148108D02*
X308526D01*
X306527D01*
Y142110D01*
X311525D02*
X313525D01*
X314524Y143110D01*
Y145109D01*
X313525Y146109D01*
X311525D01*
X310526Y145109D01*
Y143110D01*
X311525Y142110D01*
X316524Y140111D02*
Y146109D01*
X319523D01*
X320522Y145109D01*
Y143110D01*
X319523Y142110D01*
X316524D01*
X331519Y148108D02*
X329520D01*
X328520Y147109D01*
Y143110D01*
X329520Y142110D01*
X331519D01*
X332519Y143110D01*
Y147109D01*
X331519Y148108D01*
X334518Y146109D02*
X336517Y142110D01*
X338517Y146109D01*
X343515Y142110D02*
X341516D01*
X340516Y143110D01*
Y145109D01*
X341516Y146109D01*
X343515D01*
X344515Y145109D01*
Y144110D01*
X340516D01*
X346514Y146109D02*
Y142110D01*
Y144110D01*
X347514Y145109D01*
X348513Y146109D01*
X349513D01*
X352512Y142110D02*
X354511D01*
X353512D01*
Y148108D01*
X352512D01*
X358510Y146109D02*
X360509D01*
X361509Y145109D01*
Y142110D01*
X358510D01*
X357510Y143110D01*
X358510Y144110D01*
X361509D01*
X363509Y146109D02*
Y143110D01*
X364508Y142110D01*
X367507D01*
Y141111D01*
X366508Y140111D01*
X365508D01*
X367507Y142110D02*
Y146109D01*
X304528Y136108D02*
X308526D01*
X306527D01*
Y130110D01*
X311525D02*
X313525D01*
X314524Y131110D01*
Y133109D01*
X313525Y134109D01*
X311525D01*
X310526Y133109D01*
Y131110D01*
X311525Y130110D01*
X316524Y128111D02*
Y134109D01*
X319523D01*
X320522Y133109D01*
Y131110D01*
X319523Y130110D01*
X316524D01*
X332519Y135109D02*
X331519Y136108D01*
X329520D01*
X328520Y135109D01*
Y134109D01*
X329520Y133109D01*
X331519D01*
X332519Y132110D01*
Y131110D01*
X331519Y130110D01*
X329520D01*
X328520Y131110D01*
X335518Y130110D02*
X337517D01*
X338517Y131110D01*
Y133109D01*
X337517Y134109D01*
X335518D01*
X334518Y133109D01*
Y131110D01*
X335518Y130110D01*
X340516D02*
X342515D01*
X341516D01*
Y136108D01*
X340516D01*
X349513D02*
Y130110D01*
X346514D01*
X345514Y131110D01*
Y133109D01*
X346514Y134109D01*
X349513D01*
X354511Y130110D02*
X352512D01*
X351512Y131110D01*
Y133109D01*
X352512Y134109D01*
X354511D01*
X355511Y133109D01*
Y132110D01*
X351512D01*
X357510Y134109D02*
Y130110D01*
Y132110D01*
X358510Y133109D01*
X359510Y134109D01*
X360509D01*
X304528Y124108D02*
X308526D01*
X306527D01*
Y118110D01*
X311525D02*
X313525D01*
X314524Y119110D01*
Y121109D01*
X313525Y122109D01*
X311525D01*
X310526Y121109D01*
Y119110D01*
X311525Y118110D01*
X316524Y116111D02*
Y122109D01*
X319523D01*
X320522Y121109D01*
Y119110D01*
X319523Y118110D01*
X316524D01*
X328520Y124108D02*
Y118110D01*
X332519D01*
X335518Y122109D02*
X337517D01*
X338517Y121109D01*
Y118110D01*
X335518D01*
X334518Y119110D01*
X335518Y120110D01*
X338517D01*
X340516Y122109D02*
Y119110D01*
X341516Y118110D01*
X344515D01*
Y117111D01*
X343515Y116111D01*
X342515D01*
X344515Y118110D02*
Y122109D01*
X349513Y118110D02*
X347514D01*
X346514Y119110D01*
Y121109D01*
X347514Y122109D01*
X349513D01*
X350513Y121109D01*
Y120110D01*
X346514D01*
X352512Y122109D02*
Y118110D01*
Y120110D01*
X353512Y121109D01*
X354511Y122109D01*
X355511D01*
X304528Y112108D02*
Y106110D01*
X307527D01*
X308526Y107110D01*
Y111109D01*
X307527Y112108D01*
X304528D01*
X310526Y106110D02*
X312525D01*
X311525D01*
Y110109D01*
X310526D01*
X318523Y106110D02*
X316524D01*
X315524Y107110D01*
Y109109D01*
X316524Y110109D01*
X318523D01*
X319523Y109109D01*
Y108110D01*
X315524D01*
X321522Y106110D02*
X323521D01*
X322522D01*
Y112108D01*
X321522D01*
X329520Y106110D02*
X327520D01*
X326520Y107110D01*
Y109109D01*
X327520Y110109D01*
X329520D01*
X330519Y109109D01*
Y108110D01*
X326520D01*
X336517Y110109D02*
X333518D01*
X332519Y109109D01*
Y107110D01*
X333518Y106110D01*
X336517D01*
X339516Y111109D02*
Y110109D01*
X338517D01*
X340516D01*
X339516D01*
Y107110D01*
X340516Y106110D01*
X343515Y110109D02*
Y106110D01*
Y108110D01*
X344515Y109109D01*
X345514Y110109D01*
X346514D01*
X349513Y106110D02*
X351512D01*
X350513D01*
Y110109D01*
X349513D01*
X358510D02*
X355511D01*
X354511Y109109D01*
Y107110D01*
X355511Y106110D01*
X358510D01*
X366508D02*
X368507D01*
X367507D01*
Y112108D01*
X366508Y111109D01*
X304528Y100108D02*
Y94110D01*
X307527D01*
X308526Y95110D01*
Y96110D01*
X307527Y97109D01*
X304528D01*
X307527D01*
X308526Y98109D01*
Y99109D01*
X307527Y100108D01*
X304528D01*
X311525Y94110D02*
X313525D01*
X314524Y95110D01*
Y97109D01*
X313525Y98109D01*
X311525D01*
X310526Y97109D01*
Y95110D01*
X311525Y94110D01*
X317523Y99109D02*
Y98109D01*
X316524D01*
X318523D01*
X317523D01*
Y95110D01*
X318523Y94110D01*
X322522Y99109D02*
Y98109D01*
X321522D01*
X323521D01*
X322522D01*
Y95110D01*
X323521Y94110D01*
X327520D02*
X329520D01*
X330519Y95110D01*
Y97109D01*
X329520Y98109D01*
X327520D01*
X326520Y97109D01*
Y95110D01*
X327520Y94110D01*
X332519D02*
Y98109D01*
X333518D01*
X334518Y97109D01*
Y94110D01*
Y97109D01*
X335518Y98109D01*
X336517Y97109D01*
Y94110D01*
X344515Y100108D02*
Y94110D01*
X348513D01*
X351512Y98109D02*
X353512D01*
X354511Y97109D01*
Y94110D01*
X351512D01*
X350513Y95110D01*
X351512Y96110D01*
X354511D01*
X356511Y98109D02*
Y95110D01*
X357510Y94110D01*
X360509D01*
Y93111D01*
X359510Y92111D01*
X358510D01*
X360509Y94110D02*
Y98109D01*
X365508Y94110D02*
X363509D01*
X362509Y95110D01*
Y97109D01*
X363509Y98109D01*
X365508D01*
X366508Y97109D01*
Y96110D01*
X362509D01*
X368507Y98109D02*
Y94110D01*
Y96110D01*
X369507Y97109D01*
X370506Y98109D01*
X371506D01*
X304528Y88108D02*
Y82110D01*
X307527D01*
X308526Y83110D01*
Y84110D01*
X307527Y85109D01*
X304528D01*
X307527D01*
X308526Y86109D01*
Y87109D01*
X307527Y88108D01*
X304528D01*
X311525Y82110D02*
X313525D01*
X314524Y83110D01*
Y85109D01*
X313525Y86109D01*
X311525D01*
X310526Y85109D01*
Y83110D01*
X311525Y82110D01*
X317523Y87109D02*
Y86109D01*
X316524D01*
X318523D01*
X317523D01*
Y83110D01*
X318523Y82110D01*
X322522Y87109D02*
Y86109D01*
X321522D01*
X323521D01*
X322522D01*
Y83110D01*
X323521Y82110D01*
X327520D02*
X329520D01*
X330519Y83110D01*
Y85109D01*
X329520Y86109D01*
X327520D01*
X326520Y85109D01*
Y83110D01*
X327520Y82110D01*
X332519D02*
Y86109D01*
X333518D01*
X334518Y85109D01*
Y82110D01*
Y85109D01*
X335518Y86109D01*
X336517Y85109D01*
Y82110D01*
X348513Y87109D02*
X347514Y88108D01*
X345514D01*
X344515Y87109D01*
Y86109D01*
X345514Y85109D01*
X347514D01*
X348513Y84110D01*
Y83110D01*
X347514Y82110D01*
X345514D01*
X344515Y83110D01*
X351512Y82110D02*
X353512D01*
X354511Y83110D01*
Y85109D01*
X353512Y86109D01*
X351512D01*
X350513Y85109D01*
Y83110D01*
X351512Y82110D01*
X356511D02*
X358510D01*
X357510D01*
Y88108D01*
X356511D01*
X365508D02*
Y82110D01*
X362509D01*
X361509Y83110D01*
Y85109D01*
X362509Y86109D01*
X365508D01*
X370506Y82110D02*
X368507D01*
X367507Y83110D01*
Y85109D01*
X368507Y86109D01*
X370506D01*
X371506Y85109D01*
Y84110D01*
X367507D01*
X373505Y86109D02*
Y82110D01*
Y84110D01*
X374505Y85109D01*
X375505Y86109D01*
X376504D01*
X304528Y76108D02*
Y70110D01*
X307527D01*
X308526Y71110D01*
Y72110D01*
X307527Y73109D01*
X304528D01*
X307527D01*
X308526Y74109D01*
Y75109D01*
X307527Y76108D01*
X304528D01*
X311525Y70110D02*
X313525D01*
X314524Y71110D01*
Y73109D01*
X313525Y74109D01*
X311525D01*
X310526Y73109D01*
Y71110D01*
X311525Y70110D01*
X317523Y75109D02*
Y74109D01*
X316524D01*
X318523D01*
X317523D01*
Y71110D01*
X318523Y70110D01*
X322522Y75109D02*
Y74109D01*
X321522D01*
X323521D01*
X322522D01*
Y71110D01*
X323521Y70110D01*
X327520D02*
X329520D01*
X330519Y71110D01*
Y73109D01*
X329520Y74109D01*
X327520D01*
X326520Y73109D01*
Y71110D01*
X327520Y70110D01*
X332519D02*
Y74109D01*
X333518D01*
X334518Y73109D01*
Y70110D01*
Y73109D01*
X335518Y74109D01*
X336517Y73109D01*
Y70110D01*
X347514Y76108D02*
X345514D01*
X344515Y75109D01*
Y71110D01*
X345514Y70110D01*
X347514D01*
X348513Y71110D01*
Y75109D01*
X347514Y76108D01*
X350513Y74109D02*
X352512Y70110D01*
X354511Y74109D01*
X359510Y70110D02*
X357510D01*
X356511Y71110D01*
Y73109D01*
X357510Y74109D01*
X359510D01*
X360509Y73109D01*
Y72110D01*
X356511D01*
X362509Y74109D02*
Y70110D01*
Y72110D01*
X363509Y73109D01*
X364508Y74109D01*
X365508D01*
X368507Y70110D02*
X370506D01*
X369507D01*
Y76108D01*
X368507D01*
X374505Y74109D02*
X376504D01*
X377504Y73109D01*
Y70110D01*
X374505D01*
X373505Y71110D01*
X374505Y72110D01*
X377504D01*
X379503Y74109D02*
Y71110D01*
X380503Y70110D01*
X383502D01*
Y69111D01*
X382502Y68111D01*
X381503D01*
X383502Y70110D02*
Y74109D01*
X304528Y154110D02*
Y160108D01*
X308526Y154110D01*
Y160108D01*
X311525Y158109D02*
X313525D01*
X314524Y157109D01*
Y154110D01*
X311525D01*
X310526Y155110D01*
X311525Y156110D01*
X314524D01*
X316524Y154110D02*
Y158109D01*
X317523D01*
X318523Y157109D01*
Y154110D01*
Y157109D01*
X319523Y158109D01*
X320522Y157109D01*
Y154110D01*
X325521D02*
X323521D01*
X322522Y155110D01*
Y157109D01*
X323521Y158109D01*
X325521D01*
X326520Y157109D01*
Y156110D01*
X322522D01*
X263536Y142110D02*
X265536D01*
X264536D01*
Y148108D01*
X263536Y147109D01*
X267535Y130110D02*
X263536D01*
X267535Y134109D01*
Y135109D01*
X266535Y136108D01*
X264536D01*
X263536Y135109D01*
Y123109D02*
X264536Y124108D01*
X266535D01*
X267535Y123109D01*
Y122109D01*
X266535Y121109D01*
X265536D01*
X266535D01*
X267535Y120110D01*
Y119110D01*
X266535Y118110D01*
X264536D01*
X263536Y119110D01*
X266535Y106110D02*
Y112108D01*
X263536Y109109D01*
X267535D01*
Y100108D02*
X263536D01*
Y97109D01*
X265536Y98109D01*
X266535D01*
X267535Y97109D01*
Y95110D01*
X266535Y94110D01*
X264536D01*
X263536Y95110D01*
X267535Y88108D02*
X265536Y87109D01*
X263536Y85109D01*
Y83110D01*
X264536Y82110D01*
X266535D01*
X267535Y83110D01*
Y84110D01*
X266535Y85109D01*
X263536D01*
Y76108D02*
X267535D01*
Y75109D01*
X263536Y71110D01*
Y70110D01*
Y160108D02*
Y154110D01*
X267535D01*
X270534Y158109D02*
X272533D01*
X273533Y157109D01*
Y154110D01*
X270534D01*
X269534Y155110D01*
X270534Y156110D01*
X273533D01*
X275532Y158109D02*
Y155110D01*
X276532Y154110D01*
X279531D01*
Y153111D01*
X278531Y152111D01*
X277532D01*
X279531Y154110D02*
Y158109D01*
X284529Y154110D02*
X282530D01*
X281530Y155110D01*
Y157109D01*
X282530Y158109D01*
X284529D01*
X285529Y157109D01*
Y156110D01*
X281530D01*
X287528Y158109D02*
Y154110D01*
Y156110D01*
X288528Y157109D01*
X289528Y158109D01*
X290528D01*
D41*
X216591Y26165D02*
Y22166D01*
X212593Y26165D01*
X211593D01*
X210593Y25165D01*
Y23166D01*
X211593Y22166D01*
X210593Y32163D02*
X211593Y30163D01*
X213592Y28164D01*
X215592D01*
X216591Y29164D01*
Y31163D01*
X215592Y32163D01*
X214592D01*
X213592Y31163D01*
Y28164D01*
X216591Y34162D02*
X215592D01*
Y35162D01*
X216591D01*
Y34162D01*
Y39160D02*
Y41160D01*
Y40160D01*
X210593D01*
X211593Y39160D01*
Y44159D02*
X210593Y45159D01*
Y47158D01*
X211593Y48158D01*
X212593D01*
X213592Y47158D01*
Y46158D01*
Y47158D01*
X214592Y48158D01*
X215592D01*
X216591Y47158D01*
Y45159D01*
X215592Y44159D01*
X78172Y-28506D02*
X74173D01*
Y-31506D01*
X76172Y-30506D01*
X77172D01*
X78172Y-31506D01*
Y-33505D01*
X77172Y-34505D01*
X75173D01*
X74173Y-33505D01*
X83170Y-34505D02*
Y-28506D01*
X80171Y-31506D01*
X84170D01*
X86169Y-34505D02*
Y-33505D01*
X87169D01*
Y-34505D01*
X86169D01*
X91167Y-29506D02*
X92167Y-28506D01*
X94167D01*
X95166Y-29506D01*
Y-30506D01*
X94167Y-31506D01*
X95166Y-32505D01*
Y-33505D01*
X94167Y-34505D01*
X92167D01*
X91167Y-33505D01*
Y-32505D01*
X92167Y-31506D01*
X91167Y-30506D01*
Y-29506D01*
X92167Y-31506D02*
X94167D01*
X97166Y-29506D02*
X98165Y-28506D01*
X100165D01*
X101164Y-29506D01*
Y-33505D01*
X100165Y-34505D01*
X98165D01*
X97166Y-33505D01*
Y-29506D01*
D63*
X149425Y65354D02*
G03*
X149425Y65354I-1000J0D01*
G01*
X157299D02*
G03*
X157299Y65354I-1000J0D01*
G01*
X177969D02*
G03*
X177969Y65354I-1000J0D01*
G01*
X185843D02*
G03*
X185843Y65354I-1000J0D01*
G01*
X177969Y27953D02*
G03*
X177969Y27953I-1000J0D01*
G01*
X185843D02*
G03*
X185843Y27953I-1000J0D01*
G01*
X149425D02*
G03*
X149425Y27953I-1000J0D01*
G01*
X157299D02*
G03*
X157299Y27953I-1000J0D01*
G01*
X35327Y70206D02*
X35827Y69706D01*
X34827Y70206D02*
X35327D01*
X34827D02*
X35327Y70706D01*
X34827Y71206D02*
X35327Y70706D01*
X34827Y71206D02*
X35327D01*
X35827Y71706D01*
X36327Y71206D01*
X36827D01*
X36327Y70706D02*
X36827Y71206D01*
X36327Y70706D02*
X36827Y70206D01*
X36327D02*
X36827D01*
X35827Y69706D02*
X36327Y70206D01*
X138870Y16331D02*
X139370Y15831D01*
X138370Y16331D02*
X138870D01*
X138370D02*
X138870Y16831D01*
X138370Y17331D02*
X138870Y16831D01*
X138370Y17331D02*
X138870D01*
X139370Y17831D01*
X139870Y17331D01*
X140370D01*
X139870Y16831D02*
X140370Y17331D01*
X139870Y16831D02*
X140370Y16331D01*
X139870D02*
X140370D01*
X139370Y15831D02*
X139870Y16331D01*
X164756Y11213D02*
X165256Y10713D01*
X164256Y11213D02*
X164756D01*
X164256D02*
X164756Y11713D01*
X164256Y12213D02*
X164756Y11713D01*
X164256Y12213D02*
X164756D01*
X165256Y12713D01*
X165756Y12213D01*
X166256D01*
X165756Y11713D02*
X166256Y12213D01*
X165756Y11713D02*
X166256Y11213D01*
X165756D02*
X166256D01*
X165256Y10713D02*
X165756Y11213D01*
X41626Y37295D02*
X42126Y36795D01*
X41126Y37295D02*
X41626D01*
X41126D02*
X41626Y37795D01*
X41126Y38295D02*
X41626Y37795D01*
X41126Y38295D02*
X41626D01*
X42126Y38795D01*
X42626Y38295D01*
X43126D01*
X42626Y37795D02*
X43126Y38295D01*
X42626Y37795D02*
X43126Y37295D01*
X42626D02*
X43126D01*
X42126Y36795D02*
X42626Y37295D01*
X23417Y53994D02*
X23917Y53494D01*
X22917Y53994D02*
X23417D01*
X22917D02*
X23417Y54494D01*
X22917Y54994D02*
X23417Y54494D01*
X22917Y54994D02*
X23417D01*
X23917Y55494D01*
X24417Y54994D01*
X24917D01*
X24417Y54494D02*
X24917Y54994D01*
X24417Y54494D02*
X24917Y53994D01*
X24417D02*
X24917D01*
X23917Y53494D02*
X24417Y53994D01*
X47138Y55070D02*
X47638Y54570D01*
X46638Y55070D02*
X47138D01*
X46638D02*
X47138Y55570D01*
X46638Y56070D02*
X47138Y55570D01*
X46638Y56070D02*
X47138D01*
X47638Y56570D01*
X48138Y56070D01*
X48638D01*
X48138Y55570D02*
X48638Y56070D01*
X48138Y55570D02*
X48638Y55070D01*
X48138D02*
X48638D01*
X47638Y54570D02*
X48138Y55070D01*
X32768Y44972D02*
X33268Y44472D01*
X32268Y44972D02*
X32768D01*
X32268D02*
X32768Y45472D01*
X32268Y45972D02*
X32768Y45472D01*
X32268Y45972D02*
X32768D01*
X33268Y46472D01*
X33768Y45972D01*
X34268D01*
X33768Y45472D02*
X34268Y45972D01*
X33768Y45472D02*
X34268Y44972D01*
X33768D02*
X34268D01*
X33268Y44472D02*
X33768Y44972D01*
X46154D02*
X46654Y44472D01*
X45654Y44972D02*
X46154D01*
X45654D02*
X46154Y45472D01*
X45654Y45972D02*
X46154Y45472D01*
X45654Y45972D02*
X46154D01*
X46654Y46472D01*
X47153Y45972D01*
X47653D01*
X47153Y45472D02*
X47653Y45972D01*
X47153Y45472D02*
X47653Y44972D01*
X47153D02*
X47653D01*
X46654Y44472D02*
X47153Y44972D01*
X60031Y47728D02*
X60532Y47228D01*
X59531Y47728D02*
X60031D01*
X59531D02*
X60031Y48228D01*
X59531Y48728D02*
X60031Y48228D01*
X59531Y48728D02*
X60031D01*
X60532Y49228D01*
X61032Y48728D01*
X61532D01*
X61032Y48228D02*
X61532Y48728D01*
X61032Y48228D02*
X61532Y47728D01*
X61032D02*
X61532D01*
X60532Y47228D02*
X61032Y47728D01*
X99352Y14756D02*
X99852Y14256D01*
X98852Y14756D02*
X99352D01*
X98852D02*
X99352Y15256D01*
X98852Y15756D02*
X99352Y15256D01*
X98852Y15756D02*
X99352D01*
X99852Y16256D01*
X100352Y15756D01*
X100852D01*
X100352Y15256D02*
X100852Y15756D01*
X100352Y15256D02*
X100852Y14756D01*
X100352D02*
X100852D01*
X99852Y14256D02*
X100352Y14756D01*
X112492Y75189D02*
X112992Y74689D01*
X111992Y75189D02*
X112492D01*
X111992D02*
X112492Y75689D01*
X111992Y76189D02*
X112492Y75689D01*
X111992Y76189D02*
X112492D01*
X112992Y76689D01*
X113492Y76189D01*
X113992D01*
X113492Y75689D02*
X113992Y76189D01*
X113492Y75689D02*
X113992Y75189D01*
X113492D02*
X113992D01*
X112992Y74689D02*
X113492Y75189D01*
X67118Y52157D02*
X67618Y51657D01*
X66618Y52157D02*
X67118D01*
X66618D02*
X67118Y52658D01*
X66618Y53158D02*
X67118Y52658D01*
X66618Y53158D02*
X67118D01*
X67618Y53658D01*
X68118Y53158D01*
X68618D01*
X68118Y52658D02*
X68618Y53158D01*
X68118Y52658D02*
X68618Y52157D01*
X68118D02*
X68618D01*
X67618Y51657D02*
X68118Y52157D01*
X68201Y57571D02*
X68701Y57071D01*
X67701Y57571D02*
X68201D01*
X67701D02*
X68201Y58071D01*
X67701Y58571D02*
X68201Y58071D01*
X67701Y58571D02*
X68201D01*
X68701Y59071D01*
X69201Y58571D01*
X69701D01*
X69201Y58071D02*
X69701Y58571D01*
X69201Y58071D02*
X69701Y57571D01*
X69201D02*
X69701D01*
X68701Y57071D02*
X69201Y57571D01*
X52157Y24697D02*
X52658Y24197D01*
X51657Y24697D02*
X52157D01*
X51657D02*
X52157Y25197D01*
X51657Y25697D02*
X52157Y25197D01*
X51657Y25697D02*
X52157D01*
X52658Y26197D01*
X53158Y25697D01*
X53658D01*
X53158Y25197D02*
X53658Y25697D01*
X53158Y25197D02*
X53658Y24697D01*
X53158D02*
X53658D01*
X52658Y24197D02*
X53158Y24697D01*
X67835Y74106D02*
X68335Y73606D01*
X67335Y74106D02*
X67835D01*
X67335D02*
X67835Y74606D01*
X67335Y75106D02*
X67835Y74606D01*
X67335Y75106D02*
X67835D01*
X68335Y75606D01*
X68835Y75106D01*
X69335D01*
X68835Y74606D02*
X69335Y75106D01*
X68835Y74606D02*
X69335Y74106D01*
X68835D02*
X69335D01*
X68335Y73606D02*
X68835Y74106D01*
X8850Y52256D02*
X9350Y51756D01*
X8350Y52256D02*
X8850D01*
X8350D02*
X8850Y52756D01*
X8350Y53256D02*
X8850Y52756D01*
X8350Y53256D02*
X8850D01*
X9350Y53756D01*
X9850Y53256D01*
X10350D01*
X9850Y52756D02*
X10350Y53256D01*
X9850Y52756D02*
X10350Y52256D01*
X9850D02*
X10350D01*
X9350Y51756D02*
X9850Y52256D01*
X71449Y27846D02*
X71949Y27346D01*
X70949Y27846D02*
X71449D01*
X70949D02*
X71449Y28346D01*
X70949Y28846D02*
X71449Y28346D01*
X70949Y28846D02*
X71449D01*
X71949Y29346D01*
X72449Y28846D01*
X72949D01*
X72449Y28346D02*
X72949Y28846D01*
X72449Y28346D02*
X72949Y27846D01*
X72449D02*
X72949D01*
X71949Y27346D02*
X72449Y27846D01*
X83555Y61409D02*
X84055Y60909D01*
X83055Y61409D02*
X83555D01*
X83055D02*
X83555Y61910D01*
X83055Y62410D02*
X83555Y61910D01*
X83055Y62410D02*
X83555D01*
X84055Y62910D01*
X84555Y62410D01*
X85055D01*
X84555Y61910D02*
X85055Y62410D01*
X84555Y61910D02*
X85055Y61409D01*
X84555D02*
X85055D01*
X84055Y60909D02*
X84555Y61409D01*
X122024Y36902D02*
X122524Y36402D01*
X121524Y36902D02*
X122024D01*
X121524D02*
X122024Y37402D01*
X121524Y37902D02*
X122024Y37402D01*
X121524Y37902D02*
X122024D01*
X122524Y38402D01*
X123024Y37902D01*
X123524D01*
X123024Y37402D02*
X123524Y37902D01*
X123024Y37402D02*
X123524Y36902D01*
X123024D02*
X123524D01*
X122524Y36402D02*
X123024Y36902D01*
X31390Y27846D02*
X31890Y27346D01*
X30890Y27846D02*
X31390D01*
X30890D02*
X31390Y28346D01*
X30890Y28846D02*
X31390Y28346D01*
X30890Y28846D02*
X31390D01*
X31890Y29346D01*
X32390Y28846D01*
X32890D01*
X32390Y28346D02*
X32890Y28846D01*
X32390Y28346D02*
X32890Y27846D01*
X32390D02*
X32890D01*
X31890Y27346D02*
X32390Y27846D01*
X44677Y32571D02*
X45177Y32071D01*
X44177Y32571D02*
X44677D01*
X44177D02*
X44677Y33071D01*
X44177Y33571D02*
X44677Y33071D01*
X44177Y33571D02*
X44677D01*
X45177Y34071D01*
X45677Y33571D01*
X46177D01*
X45677Y33071D02*
X46177Y33571D01*
X45677Y33071D02*
X46177Y32571D01*
X45677D02*
X46177D01*
X45177Y32071D02*
X45677Y32571D01*
X64067Y35327D02*
X64567Y34827D01*
X63567Y35327D02*
X64067D01*
X63567D02*
X64067Y35827D01*
X63567Y36327D02*
X64067Y35827D01*
X63567Y36327D02*
X64067D01*
X64567Y36827D01*
X65067Y36327D01*
X65567D01*
X65067Y35827D02*
X65567Y36327D01*
X65067Y35827D02*
X65567Y35327D01*
X65067D02*
X65567D01*
X64567Y34827D02*
X65067Y35327D01*
X101665Y45661D02*
X102165Y45161D01*
X101165Y45661D02*
X101665D01*
X101165D02*
X101665Y46161D01*
X101165Y46661D02*
X101665Y46161D01*
X101165Y46661D02*
X101665D01*
X102165Y47161D01*
X102665Y46661D01*
X103165D01*
X102665Y46161D02*
X103165Y46661D01*
X102665Y46161D02*
X103165Y45661D01*
X102665D02*
X103165D01*
X102165Y45161D02*
X102665Y45661D01*
X17807Y49008D02*
X18307Y48508D01*
X17307Y49008D02*
X17807D01*
X17307D02*
X17807Y49508D01*
X17307Y50008D02*
X17807Y49508D01*
X17307Y50008D02*
X17807D01*
X18307Y50508D01*
X18807Y50008D01*
X19307D01*
X18807Y49508D02*
X19307Y50008D01*
X18807Y49508D02*
X19307Y49008D01*
X18807D02*
X19307D01*
X18307Y48508D02*
X18807Y49008D01*
X17807Y32079D02*
X18307Y31579D01*
X17307Y32079D02*
X17807D01*
X17307D02*
X17807Y32579D01*
X17307Y33079D02*
X17807Y32579D01*
X17307Y33079D02*
X17807D01*
X18307Y33579D01*
X18807Y33079D01*
X19307D01*
X18807Y32579D02*
X19307Y33079D01*
X18807Y32579D02*
X19307Y32079D01*
X18807D02*
X19307D01*
X18307Y31579D02*
X18807Y32079D01*
X49817Y35159D02*
X50317Y34659D01*
X49317Y35159D02*
X49817D01*
X49317D02*
X49817Y35659D01*
X49317Y36159D02*
X49817Y35659D01*
X49317Y36159D02*
X49817D01*
X50317Y36659D01*
X50817Y36159D01*
X51317D01*
X50817Y35659D02*
X51317Y36159D01*
X50817Y35659D02*
X51317Y35159D01*
X50817D02*
X51317D01*
X50317Y34659D02*
X50817Y35159D01*
X-6504Y17118D02*
X-6004Y16618D01*
X-7004Y17118D02*
X-6504D01*
X-7004D02*
X-6504Y17618D01*
X-7004Y18118D02*
X-6504Y17618D01*
X-7004Y18118D02*
X-6504D01*
X-6004Y18618D01*
X-5504Y18118D01*
X-5004D01*
X-5504Y17618D02*
X-5004Y18118D01*
X-5504Y17618D02*
X-5004Y17118D01*
X-5504D02*
X-5004D01*
X-6004Y16618D02*
X-5504Y17118D01*
X11212Y5307D02*
X11712Y4807D01*
X10712Y5307D02*
X11212D01*
X10712D02*
X11212Y5807D01*
X10712Y6307D02*
X11212Y5807D01*
X10712Y6307D02*
X11212D01*
X11712Y6807D01*
X12212Y6307D01*
X12712D01*
X12212Y5807D02*
X12712Y6307D01*
X12212Y5807D02*
X12712Y5307D01*
X12212D02*
X12712D01*
X11712Y4807D02*
X12212Y5307D01*
X11212Y76173D02*
X11712Y75673D01*
X10712Y76173D02*
X11212D01*
X10712D02*
X11212Y76673D01*
X10712Y77173D02*
X11212Y76673D01*
X10712Y77173D02*
X11212D01*
X11712Y77673D01*
X12212Y77173D01*
X12712D01*
X12212Y76673D02*
X12712Y77173D01*
X12212Y76673D02*
X12712Y76173D01*
X12212D02*
X12712D01*
X11712Y75673D02*
X12212Y76173D01*
X17118Y-6504D02*
X17618Y-7004D01*
X16618Y-6504D02*
X17118D01*
X16618D02*
X17118Y-6004D01*
X16618Y-5504D02*
X17118Y-6004D01*
X16618Y-5504D02*
X17118D01*
X17618Y-5004D01*
X18118Y-5504D01*
X18618D01*
X18118Y-6004D02*
X18618Y-5504D01*
X18118Y-6004D02*
X18618Y-6504D01*
X18118D02*
X18618D01*
X17618Y-7004D02*
X18118Y-6504D01*
X23023Y5307D02*
X23524Y4807D01*
X22524Y5307D02*
X23023D01*
X22524D02*
X23023Y5807D01*
X22524Y6307D02*
X23023Y5807D01*
X22524Y6307D02*
X23023D01*
X23524Y6807D01*
X24024Y6307D01*
X24523D01*
X24024Y5807D02*
X24523Y6307D01*
X24024Y5807D02*
X24523Y5307D01*
X24024D02*
X24523D01*
X23524Y4807D02*
X24024Y5307D01*
X23023Y76173D02*
X23524Y75673D01*
X22524Y76173D02*
X23023D01*
X22524D02*
X23023Y76673D01*
X22524Y77173D02*
X23023Y76673D01*
X22524Y77173D02*
X23023D01*
X23524Y77673D01*
X24024Y77173D01*
X24523D01*
X24024Y76673D02*
X24523Y77173D01*
X24024Y76673D02*
X24523Y76173D01*
X24024D02*
X24523D01*
X23524Y75673D02*
X24024Y76173D01*
X28929Y-6504D02*
X29429Y-7004D01*
X28429Y-6504D02*
X28929D01*
X28429D02*
X28929Y-6004D01*
X28429Y-5504D02*
X28929Y-6004D01*
X28429Y-5504D02*
X28929D01*
X29429Y-5004D01*
X29929Y-5504D01*
X30429D01*
X29929Y-6004D02*
X30429Y-5504D01*
X29929Y-6004D02*
X30429Y-6504D01*
X29929D02*
X30429D01*
X29429Y-7004D02*
X29929Y-6504D01*
X34835Y5307D02*
X35335Y4807D01*
X34334Y5307D02*
X34835D01*
X34334D02*
X34835Y5807D01*
X34334Y6307D02*
X34835Y5807D01*
X34334Y6307D02*
X34835D01*
X35335Y6807D01*
X35835Y6307D01*
X36334D01*
X35835Y5807D02*
X36334Y6307D01*
X35835Y5807D02*
X36334Y5307D01*
X35835D02*
X36334D01*
X35335Y4807D02*
X35835Y5307D01*
X40740Y-6504D02*
X41240Y-7004D01*
X40240Y-6504D02*
X40740D01*
X40240D02*
X40740Y-6004D01*
X40240Y-5504D02*
X40740Y-6004D01*
X40240Y-5504D02*
X40740D01*
X41240Y-5004D01*
X41740Y-5504D01*
X42240D01*
X41740Y-6004D02*
X42240Y-5504D01*
X41740Y-6004D02*
X42240Y-6504D01*
X41740D02*
X42240D01*
X41240Y-7004D02*
X41740Y-6504D01*
X46646Y5307D02*
X47146Y4807D01*
X46145Y5307D02*
X46646D01*
X46145D02*
X46646Y5807D01*
X46145Y6307D02*
X46646Y5807D01*
X46145Y6307D02*
X46646D01*
X47146Y6807D01*
X47646Y6307D01*
X48145D01*
X47646Y5807D02*
X48145Y6307D01*
X47646Y5807D02*
X48145Y5307D01*
X47646D02*
X48145D01*
X47146Y4807D02*
X47646Y5307D01*
X52551Y-6504D02*
X53051Y-7004D01*
X52051Y-6504D02*
X52551D01*
X52051D02*
X52551Y-6004D01*
X52051Y-5504D02*
X52551Y-6004D01*
X52051Y-5504D02*
X52551D01*
X53051Y-5004D01*
X53551Y-5504D01*
X54051D01*
X53551Y-6004D02*
X54051Y-5504D01*
X53551Y-6004D02*
X54051Y-6504D01*
X53551D02*
X54051D01*
X53051Y-7004D02*
X53551Y-6504D01*
X58456Y5307D02*
X58956Y4807D01*
X57956Y5307D02*
X58456D01*
X57956D02*
X58456Y5807D01*
X57956Y6307D02*
X58456Y5807D01*
X57956Y6307D02*
X58456D01*
X58956Y6807D01*
X59456Y6307D01*
X59957D01*
X59456Y5807D02*
X59957Y6307D01*
X59456Y5807D02*
X59957Y5307D01*
X59456D02*
X59957D01*
X58956Y4807D02*
X59456Y5307D01*
X64362Y-6504D02*
X64862Y-7004D01*
X63862Y-6504D02*
X64362D01*
X63862D02*
X64362Y-6004D01*
X63862Y-5504D02*
X64362Y-6004D01*
X63862Y-5504D02*
X64362D01*
X64862Y-5004D01*
X65362Y-5504D01*
X65862D01*
X65362Y-6004D02*
X65862Y-5504D01*
X65362Y-6004D02*
X65862Y-6504D01*
X65362D02*
X65862D01*
X64862Y-7004D02*
X65362Y-6504D01*
X70267Y5307D02*
X70767Y4807D01*
X69767Y5307D02*
X70267D01*
X69767D02*
X70267Y5807D01*
X69767Y6307D02*
X70267Y5807D01*
X69767Y6307D02*
X70267D01*
X70767Y6807D01*
X71267Y6307D01*
X71767D01*
X71267Y5807D02*
X71767Y6307D01*
X71267Y5807D02*
X71767Y5307D01*
X71267D02*
X71767D01*
X70767Y4807D02*
X71267Y5307D01*
X76173Y-6504D02*
X76673Y-7004D01*
X75673Y-6504D02*
X76173D01*
X75673D02*
X76173Y-6004D01*
X75673Y-5504D02*
X76173Y-6004D01*
X75673Y-5504D02*
X76173D01*
X76673Y-5004D01*
X77173Y-5504D01*
X77673D01*
X77173Y-6004D02*
X77673Y-5504D01*
X77173Y-6004D02*
X77673Y-6504D01*
X77173D02*
X77673D01*
X76673Y-7004D02*
X77173Y-6504D01*
X87984D02*
X88484Y-7004D01*
X87484Y-6504D02*
X87984D01*
X87484D02*
X87984Y-6004D01*
X87484Y-5504D02*
X87984Y-6004D01*
X87484Y-5504D02*
X87984D01*
X88484Y-5004D01*
X88984Y-5504D01*
X89484D01*
X88984Y-6004D02*
X89484Y-5504D01*
X88984Y-6004D02*
X89484Y-6504D01*
X88984D02*
X89484D01*
X88484Y-7004D02*
X88984Y-6504D01*
X99795D02*
X100295Y-7004D01*
X99295Y-6504D02*
X99795D01*
X99295D02*
X99795Y-6004D01*
X99295Y-5504D02*
X99795Y-6004D01*
X99295Y-5504D02*
X99795D01*
X100295Y-5004D01*
X100795Y-5504D01*
X101295D01*
X100795Y-6004D02*
X101295Y-5504D01*
X100795Y-6004D02*
X101295Y-6504D01*
X100795D02*
X101295D01*
X100295Y-7004D02*
X100795Y-6504D01*
X111606D02*
X112106Y-7004D01*
X111106Y-6504D02*
X111606D01*
X111106D02*
X111606Y-6004D01*
X111106Y-5504D02*
X111606Y-6004D01*
X111106Y-5504D02*
X111606D01*
X112106Y-5004D01*
X112606Y-5504D01*
X113106D01*
X112606Y-6004D02*
X113106Y-5504D01*
X112606Y-6004D02*
X113106Y-6504D01*
X112606D02*
X113106D01*
X112106Y-7004D02*
X112606Y-6504D01*
X135228Y40740D02*
X135728Y40240D01*
X134728Y40740D02*
X135228D01*
X134728D02*
X135228Y41240D01*
X134728Y41740D02*
X135228Y41240D01*
X134728Y41740D02*
X135228D01*
X135728Y42240D01*
X136228Y41740D01*
X136728D01*
X136228Y41240D02*
X136728Y41740D01*
X136228Y41240D02*
X136728Y40740D01*
X136228D02*
X136728D01*
X135728Y40240D02*
X136228Y40740D01*
X141134Y76173D02*
X141634Y75673D01*
X140634Y76173D02*
X141134D01*
X140634D02*
X141134Y76673D01*
X140634Y77173D02*
X141134Y76673D01*
X140634Y77173D02*
X141134D01*
X141634Y77673D01*
X142134Y77173D01*
X142634D01*
X142134Y76673D02*
X142634Y77173D01*
X142134Y76673D02*
X142634Y76173D01*
X142134D02*
X142634D01*
X141634Y75673D02*
X142134Y76173D01*
X147039Y-6504D02*
X147539Y-7004D01*
X146539Y-6504D02*
X147039D01*
X146539D02*
X147039Y-6004D01*
X146539Y-5504D02*
X147039Y-6004D01*
X146539Y-5504D02*
X147039D01*
X147539Y-5004D01*
X148039Y-5504D01*
X148539D01*
X148039Y-6004D02*
X148539Y-5504D01*
X148039Y-6004D02*
X148539Y-6504D01*
X148039D02*
X148539D01*
X147539Y-7004D02*
X148039Y-6504D01*
X152945Y76173D02*
X153445Y75673D01*
X152445Y76173D02*
X152945D01*
X152445D02*
X152945Y76673D01*
X152445Y77173D02*
X152945Y76673D01*
X152445Y77173D02*
X152945D01*
X153445Y77673D01*
X153945Y77173D01*
X154445D01*
X153945Y76673D02*
X154445Y77173D01*
X153945Y76673D02*
X154445Y76173D01*
X153945D02*
X154445D01*
X153445Y75673D02*
X153945Y76173D01*
X158850Y-6504D02*
X159350Y-7004D01*
X158350Y-6504D02*
X158850D01*
X158350D02*
X158850Y-6004D01*
X158350Y-5504D02*
X158850Y-6004D01*
X158350Y-5504D02*
X158850D01*
X159350Y-5004D01*
X159850Y-5504D01*
X160350D01*
X159850Y-6004D02*
X160350Y-5504D01*
X159850Y-6004D02*
X160350Y-6504D01*
X159850D02*
X160350D01*
X159350Y-7004D02*
X159850Y-6504D01*
X164756Y28929D02*
X165256Y28429D01*
X164256Y28929D02*
X164756D01*
X164256D02*
X164756Y29429D01*
X164256Y29929D02*
X164756Y29429D01*
X164256Y29929D02*
X164756D01*
X165256Y30429D01*
X165756Y29929D01*
X166256D01*
X165756Y29429D02*
X166256Y29929D01*
X165756Y29429D02*
X166256Y28929D01*
X165756D02*
X166256D01*
X165256Y28429D02*
X165756Y28929D01*
X164756Y76173D02*
X165256Y75673D01*
X164256Y76173D02*
X164756D01*
X164256D02*
X164756Y76673D01*
X164256Y77173D02*
X164756Y76673D01*
X164256Y77173D02*
X164756D01*
X165256Y77673D01*
X165756Y77173D01*
X166256D01*
X165756Y76673D02*
X166256Y77173D01*
X165756Y76673D02*
X166256Y76173D01*
X165756D02*
X166256D01*
X165256Y75673D02*
X165756Y76173D01*
X170661Y-6504D02*
X171161Y-7004D01*
X170161Y-6504D02*
X170661D01*
X170161D02*
X170661Y-6004D01*
X170161Y-5504D02*
X170661Y-6004D01*
X170161Y-5504D02*
X170661D01*
X171161Y-5004D01*
X171661Y-5504D01*
X172161D01*
X171661Y-6004D02*
X172161Y-5504D01*
X171661Y-6004D02*
X172161Y-6504D01*
X171661D02*
X172161D01*
X171161Y-7004D02*
X171661Y-6504D01*
X176567Y76173D02*
X177067Y75673D01*
X176067Y76173D02*
X176567D01*
X176067D02*
X176567Y76673D01*
X176067Y77173D02*
X176567Y76673D01*
X176067Y77173D02*
X176567D01*
X177067Y77673D01*
X177567Y77173D01*
X178067D01*
X177567Y76673D02*
X178067Y77173D01*
X177567Y76673D02*
X178067Y76173D01*
X177567D02*
X178067D01*
X177067Y75673D02*
X177567Y76173D01*
X182472Y-6504D02*
X182972Y-7004D01*
X181972Y-6504D02*
X182472D01*
X181972D02*
X182472Y-6004D01*
X181972Y-5504D02*
X182472Y-6004D01*
X181972Y-5504D02*
X182472D01*
X182972Y-5004D01*
X183472Y-5504D01*
X183972D01*
X183472Y-6004D02*
X183972Y-5504D01*
X183472Y-6004D02*
X183972Y-6504D01*
X183472D02*
X183972D01*
X182972Y-7004D02*
X183472Y-6504D01*
X188378Y76173D02*
X188878Y75673D01*
X187878Y76173D02*
X188378D01*
X187878D02*
X188378Y76673D01*
X187878Y77173D02*
X188378Y76673D01*
X187878Y77173D02*
X188378D01*
X188878Y77673D01*
X189378Y77173D01*
X189878D01*
X189378Y76673D02*
X189878Y77173D01*
X189378Y76673D02*
X189878Y76173D01*
X189378D02*
X189878D01*
X188878Y75673D02*
X189378Y76173D01*
X164756Y40740D02*
X165256Y40240D01*
X164256Y40740D02*
X164756D01*
X164256D02*
X164756Y41240D01*
X164256Y41740D02*
X164756Y41240D01*
X164256Y41740D02*
X164756D01*
X165256Y42240D01*
X165756Y41740D01*
X166256D01*
X165756Y41240D02*
X166256Y41740D01*
X165756Y41240D02*
X166256Y40740D01*
X165756D02*
X166256D01*
X165256Y40240D02*
X165756Y40740D01*
X29421Y33161D02*
X29921Y32661D01*
X28921Y33161D02*
X29421D01*
X28921D02*
X29421Y33661D01*
X28921Y34161D02*
X29421Y33661D01*
X28921Y34161D02*
X29421D01*
X29921Y34661D01*
X30421Y34161D01*
X30921D01*
X30421Y33661D02*
X30921Y34161D01*
X30421Y33661D02*
X30921Y33161D01*
X30421D02*
X30921D01*
X29921Y32661D02*
X30421Y33161D01*
X68708Y40466D02*
X69208Y39966D01*
X68208Y40466D02*
X68708D01*
X68208D02*
X68708Y40966D01*
X68208Y41466D02*
X68708Y40966D01*
X68208Y41466D02*
X68708D01*
X69208Y41966D01*
X69708Y41466D01*
X70208D01*
X69708Y40966D02*
X70208Y41466D01*
X69708Y40966D02*
X70208Y40466D01*
X69708D02*
X70208D01*
X69208Y39966D02*
X69708Y40466D01*
X3669Y30823D02*
X4169Y30323D01*
X3169Y30823D02*
X3669D01*
X3169D02*
X3669Y31323D01*
X3169Y31823D02*
X3669Y31323D01*
X3169Y31823D02*
X3669D01*
X4169Y32323D01*
X4669Y31823D01*
X5169D01*
X4669Y31323D02*
X5169Y31823D01*
X4669Y31323D02*
X5169Y30823D01*
X4669D02*
X5169D01*
X4169Y30323D02*
X4669Y30823D01*
X-2079Y59343D02*
X-1579Y58843D01*
X-2579Y59343D02*
X-2079D01*
X-2579D02*
X-2079Y59843D01*
X-2579Y60343D02*
X-2079Y59843D01*
X-2579Y60343D02*
X-2079D01*
X-1579Y60843D01*
X-1079Y60343D01*
X-579D01*
X-1079Y59843D02*
X-579Y60343D01*
X-1079Y59843D02*
X-579Y59343D01*
X-1079D02*
X-579D01*
X-1579Y58843D02*
X-1079Y59343D01*
X89756Y40642D02*
X90256Y40142D01*
X89256Y40642D02*
X89756D01*
X89256D02*
X89756Y41142D01*
X89256Y41642D02*
X89756Y41142D01*
X89256Y41642D02*
X89756D01*
X90256Y42142D01*
X90756Y41642D01*
X91256D01*
X90756Y41142D02*
X91256Y41642D01*
X90756Y41142D02*
X91256Y40642D01*
X90756D02*
X91256D01*
X90256Y40142D02*
X90756Y40642D01*
X90937Y19579D02*
X91437Y19079D01*
X90437Y19579D02*
X90937D01*
X90437D02*
X90937Y20079D01*
X90437Y20579D02*
X90937Y20079D01*
X90437Y20579D02*
X90937D01*
X91437Y21079D01*
X91937Y20579D01*
X92437D01*
X91937Y20079D02*
X92437Y20579D01*
X91937Y20079D02*
X92437Y19579D01*
X91937D02*
X92437D01*
X91437Y19079D02*
X91937Y19579D01*
X121843Y22433D02*
X122343Y21933D01*
X121343Y22433D02*
X121843D01*
X121343D02*
X121843Y22933D01*
X121343Y23433D02*
X121843Y22933D01*
X121343Y23433D02*
X121843D01*
X122343Y23933D01*
X122843Y23433D01*
X123343D01*
X122843Y22933D02*
X123343Y23433D01*
X122843Y22933D02*
X123343Y22433D01*
X122843D02*
X123343D01*
X122343Y21933D02*
X122843Y22433D01*
X90937Y47236D02*
X91437Y46736D01*
X90437Y47236D02*
X90937D01*
X90437D02*
X90937Y47736D01*
X90437Y48236D02*
X90937Y47736D01*
X90437Y48236D02*
X90937D01*
X91437Y48736D01*
X91937Y48236D01*
X92437D01*
X91937Y47736D02*
X92437Y48236D01*
X91937Y47736D02*
X92437Y47236D01*
X91937D02*
X92437D01*
X91437Y46736D02*
X91937Y47236D01*
X125394Y76165D02*
X126394Y78165D01*
X124394D02*
X126394D01*
X124394D02*
X125394Y76165D01*
Y-1000D02*
X126394Y1000D01*
X124394D02*
X126394D01*
X124394D02*
X125394Y-1000D01*
X0D02*
X1000Y1000D01*
X-1000D02*
X1000D01*
X-1000D02*
X0Y-1000D01*
X-3248Y71244D02*
X-2248Y73244D01*
X-4248D02*
X-2248D01*
X-4248D02*
X-3248Y71244D01*
D64*
X599448Y147142D02*
X603417Y151110D01*
X599448Y141142D02*
X609417Y151110D01*
X603417Y139110D02*
X615417Y151110D01*
X609417Y139110D02*
X621417Y151110D01*
X615417Y139110D02*
X627417Y151110D01*
X621417Y139110D02*
X633417Y151110D01*
X627417Y139110D02*
X639417Y151110D01*
X633417Y139110D02*
X645417Y151110D01*
X639417Y139110D02*
X651417Y151110D01*
X645417Y139110D02*
X657417Y151110D01*
X651417Y139110D02*
X663417Y151110D01*
X657417Y139110D02*
X669417Y151110D01*
X663417Y139110D02*
X675417Y151110D01*
X669417Y139110D02*
X681417Y151110D01*
X675417Y139110D02*
X687417Y151110D01*
X681417Y139110D02*
X693417Y151110D01*
X687417Y139110D02*
X699417Y151110D01*
X693417Y139110D02*
X705417Y151110D01*
X699417Y139110D02*
X711417Y151110D01*
X705417Y139110D02*
X711417Y145110D01*
X599448Y135142D02*
X603417Y139110D01*
X599448Y129142D02*
X609417Y139110D01*
X603417Y127110D02*
X615417Y139110D01*
X609417Y127110D02*
X621417Y139110D01*
X615417Y127110D02*
X627417Y139110D01*
X621417Y127110D02*
X633417Y139110D01*
X627417Y127110D02*
X639417Y139110D01*
X633417Y127110D02*
X645417Y139110D01*
X639417Y127110D02*
X651417Y139110D01*
X645417Y127110D02*
X657417Y139110D01*
X651417Y127110D02*
X663417Y139110D01*
X657417Y127110D02*
X669417Y139110D01*
X663417Y127110D02*
X675417Y139110D01*
X669417Y127110D02*
X681417Y139110D01*
X675417Y127110D02*
X687417Y139110D01*
X681417Y127110D02*
X693417Y139110D01*
X687417Y127110D02*
X699417Y139110D01*
X693417Y127110D02*
X705417Y139110D01*
X699417Y127110D02*
X711417Y139110D01*
X705417Y127110D02*
X711417Y133110D01*
X599448Y123142D02*
X603417Y127110D01*
X599448Y117142D02*
X609417Y127110D01*
X603417Y115110D02*
X615417Y127110D01*
X609417Y115110D02*
X621417Y127110D01*
X615417Y115110D02*
X627417Y127110D01*
X621417Y115110D02*
X633417Y127110D01*
X627417Y115110D02*
X639417Y127110D01*
X633417Y115110D02*
X645417Y127110D01*
X639417Y115110D02*
X651417Y127110D01*
X645417Y115110D02*
X657417Y127110D01*
X651417Y115110D02*
X663417Y127110D01*
X657417Y115110D02*
X669417Y127110D01*
X663417Y115110D02*
X675417Y127110D01*
X669417Y115110D02*
X681417Y127110D01*
X675417Y115110D02*
X687417Y127110D01*
X681417Y115110D02*
X693417Y127110D01*
X687417Y115110D02*
X699417Y127110D01*
X693417Y115110D02*
X705417Y127110D01*
X699417Y115110D02*
X711417Y127110D01*
X705417Y115110D02*
X711417Y121110D01*
X599448Y111142D02*
X603417Y115110D01*
X599448Y105142D02*
X609417Y115110D01*
X603417Y103110D02*
X615417Y115110D01*
X609417Y103110D02*
X621417Y115110D01*
X615417Y103110D02*
X627417Y115110D01*
X621417Y103110D02*
X633417Y115110D01*
X627417Y103110D02*
X639417Y115110D01*
X633417Y103110D02*
X645417Y115110D01*
X639417Y103110D02*
X651417Y115110D01*
X645417Y103110D02*
X657417Y115110D01*
X651417Y103110D02*
X663417Y115110D01*
X657417Y103110D02*
X669417Y115110D01*
X663417Y103110D02*
X675417Y115110D01*
X669417Y103110D02*
X681417Y115110D01*
X675417Y103110D02*
X687417Y115110D01*
X681417Y103110D02*
X693417Y115110D01*
X687417Y103110D02*
X699417Y115110D01*
X693417Y103110D02*
X705417Y115110D01*
X699417Y103110D02*
X711417Y115110D01*
X705417Y103110D02*
X711417Y109110D01*
X599448Y99142D02*
X603417Y103110D01*
X599448Y93142D02*
X609417Y103110D01*
X603417Y91110D02*
X615417Y103110D01*
X609417Y91110D02*
X621417Y103110D01*
X615417Y91110D02*
X627417Y103110D01*
X621417Y91110D02*
X633417Y103110D01*
X627417Y91110D02*
X639417Y103110D01*
X633417Y91110D02*
X645417Y103110D01*
X639417Y91110D02*
X651417Y103110D01*
X645417Y91110D02*
X657417Y103110D01*
X651417Y91110D02*
X663417Y103110D01*
X657417Y91110D02*
X669417Y103110D01*
X663417Y91110D02*
X675417Y103110D01*
X669417Y91110D02*
X681417Y103110D01*
X675417Y91110D02*
X687417Y103110D01*
X681417Y91110D02*
X693417Y103110D01*
X687417Y91110D02*
X699417Y103110D01*
X693417Y91110D02*
X705417Y103110D01*
X699417Y91110D02*
X711417Y103110D01*
X705417Y91110D02*
X711417Y97110D01*
X599448Y87142D02*
X603417Y91110D01*
X599448Y81142D02*
X609417Y91110D01*
X603417Y79110D02*
X615417Y91110D01*
X609417Y79110D02*
X621417Y91110D01*
X615417Y79110D02*
X627417Y91110D01*
X621417Y79110D02*
X633417Y91110D01*
X627417Y79110D02*
X639417Y91110D01*
X633417Y79110D02*
X645417Y91110D01*
X639417Y79110D02*
X651417Y91110D01*
X645417Y79110D02*
X657417Y91110D01*
X651417Y79110D02*
X663417Y91110D01*
X657417Y79110D02*
X669417Y91110D01*
X663417Y79110D02*
X675417Y91110D01*
X669417Y79110D02*
X681417Y91110D01*
X675417Y79110D02*
X687417Y91110D01*
X681417Y79110D02*
X693417Y91110D01*
X687417Y79110D02*
X699417Y91110D01*
X693417Y79110D02*
X705417Y91110D01*
X699417Y79110D02*
X711417Y91110D01*
X705417Y79110D02*
X711417Y85110D01*
X599448Y75142D02*
X603417Y79110D01*
X599448Y69142D02*
X609417Y79110D01*
X603417Y67110D02*
X615417Y79110D01*
X609417Y67110D02*
X621417Y79110D01*
X615417Y67110D02*
X627417Y79110D01*
X621417Y67110D02*
X633417Y79110D01*
X627417Y67110D02*
X639417Y79110D01*
X633417Y67110D02*
X645417Y79110D01*
X639417Y67110D02*
X651417Y79110D01*
X645417Y67110D02*
X657417Y79110D01*
X651417Y67110D02*
X663417Y79110D01*
X657417Y67110D02*
X669417Y79110D01*
X663417Y67110D02*
X675417Y79110D01*
X669417Y67110D02*
X681417Y79110D01*
X675417Y67110D02*
X687417Y79110D01*
X681417Y67110D02*
X693417Y79110D01*
X687417Y67110D02*
X699417Y79110D01*
X693417Y67110D02*
X705417Y79110D01*
X699417Y67110D02*
X711417Y79110D01*
X705417Y67110D02*
X711417Y73110D01*
D65*
X717280Y36331D02*
Y31533D01*
X719679Y29134D01*
X722079Y31533D01*
Y36331D01*
X724478Y29134D02*
X726877D01*
X725677D01*
Y33932D01*
X724478D01*
X731676D02*
X734075D01*
X735274Y32733D01*
Y29134D01*
X731676D01*
X730476Y30334D01*
X731676Y31533D01*
X735274D01*
X737674Y29134D02*
X742472Y33932D01*
X744871Y29134D02*
Y36331D01*
X748470D01*
X749670Y35132D01*
Y32733D01*
X748470Y31533D01*
X744871D01*
X753269Y33932D02*
X755668D01*
X756868Y32733D01*
Y29134D01*
X753269D01*
X752069Y30334D01*
X753269Y31533D01*
X756868D01*
X764065Y36331D02*
Y29134D01*
X760466D01*
X759267Y30334D01*
Y32733D01*
X760466Y33932D01*
X764065D01*
X567325Y36331D02*
Y29134D01*
X570924D01*
X572124Y30334D01*
Y35132D01*
X570924Y36331D01*
X567325D01*
X574523Y33932D02*
Y29134D01*
Y31533D01*
X575723Y32733D01*
X576922Y33932D01*
X578122D01*
X581721Y29134D02*
X584120D01*
X582920D01*
Y33932D01*
X581721D01*
X587719Y29134D02*
X590118D01*
X588918D01*
Y36331D01*
X587719D01*
X593717Y29134D02*
X596116D01*
X594916D01*
Y36331D01*
X593717D01*
X606912D02*
Y29134D01*
X611711D01*
X615310Y33932D02*
X617709D01*
X618909Y32733D01*
Y29134D01*
X615310D01*
X614110Y30334D01*
X615310Y31533D01*
X618909D01*
X621308Y33932D02*
Y30334D01*
X622507Y29134D01*
X626106D01*
Y27934D01*
X624907Y26735D01*
X623707D01*
X626106Y29134D02*
Y33932D01*
X632104Y29134D02*
X629705D01*
X628505Y30334D01*
Y32733D01*
X629705Y33932D01*
X632104D01*
X633304Y32733D01*
Y31533D01*
X628505D01*
X635703Y33932D02*
Y29134D01*
Y31533D01*
X636903Y32733D01*
X638102Y33932D01*
X639302D01*
X650098Y29134D02*
Y36331D01*
X653697D01*
X654897Y35132D01*
Y32733D01*
X653697Y31533D01*
X650098D01*
X658496Y33932D02*
X660895D01*
X662094Y32733D01*
Y29134D01*
X658496D01*
X657296Y30334D01*
X658496Y31533D01*
X662094D01*
X664494Y29134D02*
X666893D01*
X665693D01*
Y33932D01*
X664494D01*
X670492D02*
Y29134D01*
Y31533D01*
X671691Y32733D01*
X672891Y33932D01*
X674091D01*
X493945Y36331D02*
Y29134D01*
Y32733D01*
X498743D01*
Y36331D01*
Y29134D01*
X502342D02*
X504741D01*
X505941Y30334D01*
Y32733D01*
X504741Y33932D01*
X502342D01*
X501143Y32733D01*
Y30334D01*
X502342Y29134D01*
X508340D02*
X510740D01*
X509540D01*
Y36331D01*
X508340D01*
X517937Y29134D02*
X515538D01*
X514338Y30334D01*
Y32733D01*
X515538Y33932D01*
X517937D01*
X519137Y32733D01*
Y31533D01*
X514338D01*
X528734Y36331D02*
X533532D01*
X531133D01*
Y29134D01*
X535931Y33932D02*
Y30334D01*
X537131Y29134D01*
X540730D01*
Y27934D01*
X539530Y26735D01*
X538331D01*
X540730Y29134D02*
Y33932D01*
X543129Y26735D02*
Y33932D01*
X546728D01*
X547928Y32733D01*
Y30334D01*
X546728Y29134D01*
X543129D01*
X553926D02*
X551526D01*
X550327Y30334D01*
Y32733D01*
X551526Y33932D01*
X553926D01*
X555125Y32733D01*
Y31533D01*
X550327D01*
X443357Y29134D02*
Y36331D01*
X446956D01*
X448156Y35132D01*
Y32733D01*
X446956Y31533D01*
X443357D01*
X450555Y29134D02*
X452954D01*
X451755D01*
Y36331D01*
X450555D01*
X457753Y33932D02*
X460152D01*
X461352Y32733D01*
Y29134D01*
X457753D01*
X456553Y30334D01*
X457753Y31533D01*
X461352D01*
X464951Y35132D02*
Y33932D01*
X463751D01*
X466150D01*
X464951D01*
Y30334D01*
X466150Y29134D01*
X473348D02*
X470949D01*
X469749Y30334D01*
Y32733D01*
X470949Y33932D01*
X473348D01*
X474547Y32733D01*
Y31533D01*
X469749D01*
X481745Y36331D02*
Y29134D01*
X478146D01*
X476947Y30334D01*
Y32733D01*
X478146Y33932D01*
X481745D01*
X371177Y36331D02*
Y29134D01*
Y32733D01*
X375975D01*
Y36331D01*
Y29134D01*
X379574D02*
X381973D01*
X383173Y30334D01*
Y32733D01*
X381973Y33932D01*
X379574D01*
X378375Y32733D01*
Y30334D01*
X379574Y29134D01*
X385572D02*
X387971D01*
X386772D01*
Y36331D01*
X385572D01*
X395169Y29134D02*
X392770D01*
X391570Y30334D01*
Y32733D01*
X392770Y33932D01*
X395169D01*
X396369Y32733D01*
Y31533D01*
X391570D01*
X410764Y35132D02*
X409564Y36331D01*
X407165D01*
X405966Y35132D01*
Y33932D01*
X407165Y32733D01*
X409564D01*
X410764Y31533D01*
Y30334D01*
X409564Y29134D01*
X407165D01*
X405966Y30334D01*
X413163Y29134D02*
X415562D01*
X414363D01*
Y33932D01*
X413163D01*
X419161D02*
X423960D01*
X419161Y29134D01*
X423960D01*
X429958D02*
X427559D01*
X426359Y30334D01*
Y32733D01*
X427559Y33932D01*
X429958D01*
X431157Y32733D01*
Y31533D01*
X426359D01*
X321989Y35132D02*
X320790Y36331D01*
X318390D01*
X317191Y35132D01*
Y30334D01*
X318390Y29134D01*
X320790D01*
X321989Y30334D01*
X325588Y29134D02*
X327987D01*
X329187Y30334D01*
Y32733D01*
X327987Y33932D01*
X325588D01*
X324388Y32733D01*
Y30334D01*
X325588Y29134D01*
X331586Y33932D02*
Y30334D01*
X332786Y29134D01*
X336385D01*
Y33932D01*
X338784Y29134D02*
Y33932D01*
X342383D01*
X343582Y32733D01*
Y29134D01*
X347181Y35132D02*
Y33932D01*
X345981D01*
X348381D01*
X347181D01*
Y30334D01*
X348381Y29134D01*
X271402Y35132D02*
X270202Y36331D01*
X267803D01*
X266603Y35132D01*
Y33932D01*
X267803Y32733D01*
X270202D01*
X271402Y31533D01*
Y30334D01*
X270202Y29134D01*
X267803D01*
X266603Y30334D01*
X273801Y33932D02*
Y30334D01*
X275001Y29134D01*
X278599D01*
Y27934D01*
X277400Y26735D01*
X276200D01*
X278599Y29134D02*
Y33932D01*
X280998Y29134D02*
Y33932D01*
X282198D01*
X283398Y32733D01*
Y29134D01*
Y32733D01*
X284597Y33932D01*
X285797Y32733D01*
Y29134D01*
X288196Y36331D02*
Y29134D01*
X291795D01*
X292995Y30334D01*
Y31533D01*
Y32733D01*
X291795Y33932D01*
X288196D01*
X296593Y29134D02*
X298993D01*
X300192Y30334D01*
Y32733D01*
X298993Y33932D01*
X296593D01*
X295394Y32733D01*
Y30334D01*
X296593Y29134D01*
X302591D02*
X304991D01*
X303791D01*
Y36331D01*
X302591D01*
M02*
