G04 Layer_Color=8388736*
%FSLAX25Y25*%
%MOIN*%
G70*
G01*
G75*
%ADD45R,0.08674X0.07099*%
%ADD46R,0.01981X0.05524*%
%ADD47R,0.05524X0.01981*%
%ADD48R,0.01981X0.06312*%
%ADD49R,0.05524X0.06312*%
%ADD50R,0.04737X0.07887*%
%ADD51R,0.05131X0.03162*%
%ADD52C,0.04737*%
%ADD53R,0.06115X0.02375*%
%ADD54R,0.07099X0.09068*%
%ADD55R,0.08280X0.07887*%
%ADD56R,0.04737X0.05918*%
%ADD57R,0.04343X0.03556*%
%ADD58R,0.03556X0.04343*%
%ADD59R,0.04147X0.04540*%
%ADD60C,0.06800*%
%ADD61C,0.16548*%
D45*
X36516Y33858D02*
D03*
X57776D02*
D03*
D46*
X102067Y35433D02*
D03*
X100098D02*
D03*
X98130D02*
D03*
X96161D02*
D03*
X94193D02*
D03*
X92224D02*
D03*
X90256D02*
D03*
X88287D02*
D03*
X86319D02*
D03*
X84350D02*
D03*
X82382D02*
D03*
X80413D02*
D03*
Y69685D02*
D03*
X82382D02*
D03*
X84350D02*
D03*
X86319D02*
D03*
X88287D02*
D03*
X90256D02*
D03*
X92224D02*
D03*
X94193D02*
D03*
X96161D02*
D03*
X98130D02*
D03*
X100098D02*
D03*
X102067D02*
D03*
D47*
X74114Y41732D02*
D03*
Y43701D02*
D03*
Y45669D02*
D03*
Y51575D02*
D03*
Y53543D02*
D03*
Y55512D02*
D03*
Y57480D02*
D03*
Y59449D02*
D03*
Y61417D02*
D03*
Y63386D02*
D03*
X108366D02*
D03*
Y61417D02*
D03*
Y59449D02*
D03*
Y57480D02*
D03*
Y55512D02*
D03*
Y53543D02*
D03*
Y51575D02*
D03*
Y49606D02*
D03*
Y47638D02*
D03*
Y45669D02*
D03*
Y43701D02*
D03*
Y41732D02*
D03*
X74114Y49606D02*
D03*
Y47638D02*
D03*
D48*
X94193Y27559D02*
D03*
X92224D02*
D03*
X90256D02*
D03*
X88287D02*
D03*
X86319D02*
D03*
X94193Y10236D02*
D03*
X92224D02*
D03*
X90256D02*
D03*
X88287D02*
D03*
X86319D02*
D03*
D49*
X127953Y53445D02*
D03*
Y62106D02*
D03*
X119291Y53445D02*
D03*
Y62106D02*
D03*
D50*
X117421Y41831D02*
D03*
X127264D02*
D03*
D51*
X36417Y59310D02*
D03*
X47441D02*
D03*
X36417Y55570D02*
D03*
Y51830D02*
D03*
X47441D02*
D03*
D52*
X135663Y13943D02*
D03*
Y7185D02*
D03*
X135630Y19980D02*
D03*
X135663Y26575D02*
D03*
X65551Y28375D02*
D03*
X17126Y69291D02*
D03*
X22343Y49409D02*
D03*
X17323Y60433D02*
D03*
D53*
X-1969Y39173D02*
D03*
Y41732D02*
D03*
Y36614D02*
D03*
Y44291D02*
D03*
Y34055D02*
D03*
D54*
X-2461Y26772D02*
D03*
Y51575D02*
D03*
D55*
X-12500Y34646D02*
D03*
Y43701D02*
D03*
Y24213D02*
D03*
Y54134D02*
D03*
D56*
X39587Y66732D02*
D03*
X47224D02*
D03*
X32658D02*
D03*
X25020D02*
D03*
D57*
X29035Y53598D02*
D03*
Y59819D02*
D03*
X8661Y38543D02*
D03*
Y32323D02*
D03*
Y48878D02*
D03*
Y42658D02*
D03*
X113287Y23071D02*
D03*
Y29291D02*
D03*
X119291Y23071D02*
D03*
Y29291D02*
D03*
X134646Y60177D02*
D03*
Y66398D02*
D03*
X134547Y49154D02*
D03*
Y55374D02*
D03*
X149803Y18268D02*
D03*
Y12047D02*
D03*
X178051D02*
D03*
Y18268D02*
D03*
X177856Y55374D02*
D03*
Y49154D02*
D03*
X125295Y23071D02*
D03*
Y29291D02*
D03*
X149351Y55499D02*
D03*
Y49278D02*
D03*
X14665Y38543D02*
D03*
Y32323D02*
D03*
Y48878D02*
D03*
Y42658D02*
D03*
X101279Y29193D02*
D03*
Y22972D02*
D03*
X107283Y23031D02*
D03*
Y29252D02*
D03*
X155807Y18268D02*
D03*
Y12047D02*
D03*
X143898Y18268D02*
D03*
Y12047D02*
D03*
X184055Y12146D02*
D03*
Y18366D02*
D03*
X172047Y12087D02*
D03*
Y18307D02*
D03*
X183858Y55374D02*
D03*
Y49154D02*
D03*
X171803Y55400D02*
D03*
Y49180D02*
D03*
X155315Y49252D02*
D03*
Y55472D02*
D03*
X143307Y49252D02*
D03*
Y55472D02*
D03*
D58*
X53878Y69587D02*
D03*
X60098D02*
D03*
X53878Y57579D02*
D03*
X60098D02*
D03*
X74665Y70079D02*
D03*
X68445D02*
D03*
X107028D02*
D03*
X113248D02*
D03*
X74665Y34350D02*
D03*
X68445D02*
D03*
X8701Y18504D02*
D03*
X14921D02*
D03*
X130472Y34252D02*
D03*
X124252D02*
D03*
X120827D02*
D03*
X114606D02*
D03*
X60098Y63583D02*
D03*
X53878D02*
D03*
X38839Y74902D02*
D03*
X32618D02*
D03*
X6772Y60335D02*
D03*
X12992D02*
D03*
X26929Y42815D02*
D03*
X20709D02*
D03*
X20807Y38091D02*
D03*
X27028D02*
D03*
X44252Y21358D02*
D03*
X38032D02*
D03*
Y13386D02*
D03*
X44252D02*
D03*
X8701Y24508D02*
D03*
X14921D02*
D03*
D59*
X43701Y74902D02*
D03*
X50394D02*
D03*
X56102Y21358D02*
D03*
X49409D02*
D03*
Y13484D02*
D03*
X56102D02*
D03*
D60*
X156299Y27953D02*
D03*
X148425D02*
D03*
X184843D02*
D03*
X176969D02*
D03*
X184843Y65354D02*
D03*
X176969D02*
D03*
X156299D02*
D03*
X148425D02*
D03*
D61*
X-3248Y72244D02*
D03*
X0Y0D02*
D03*
X125394D02*
D03*
Y77165D02*
D03*
M02*
