G04 Layer_Color=65535*
%FSLAX25Y25*%
%MOIN*%
G70*
G01*
G75*
%ADD25C,0.01575*%
%ADD31C,0.00787*%
%ADD38C,0.02362*%
%ADD39C,0.00984*%
%ADD40C,0.01000*%
%ADD41C,0.00600*%
%ADD42C,0.00700*%
%ADD43C,0.00800*%
%ADD44C,0.00591*%
G36*
X25039Y2067D02*
X24214D01*
X23887Y2924D01*
X22369D01*
X22058Y2067D01*
X21249D01*
X22713Y5845D01*
X23521D01*
X25039Y2067D01*
D02*
G37*
G36*
X32372D02*
X31547D01*
X31219Y2924D01*
X29702D01*
X29390Y2067D01*
X28582D01*
X30046Y5845D01*
X30854D01*
X32372Y2067D01*
D02*
G37*
G36*
X53584Y5911D02*
X53638D01*
X53709Y5900D01*
X53791Y5889D01*
X53884Y5872D01*
X53982Y5851D01*
X54086Y5823D01*
X54195Y5791D01*
X54304Y5747D01*
X54419Y5698D01*
X54528Y5638D01*
X54637Y5567D01*
X54741Y5485D01*
X54839Y5392D01*
X54845Y5387D01*
X54861Y5370D01*
X54888Y5337D01*
X54916Y5299D01*
X54954Y5245D01*
X54998Y5179D01*
X55041Y5103D01*
X55090Y5015D01*
X55140Y4922D01*
X55183Y4813D01*
X55227Y4693D01*
X55265Y4568D01*
X55298Y4426D01*
X55320Y4278D01*
X55336Y4120D01*
X55342Y3951D01*
Y3940D01*
Y3912D01*
X55336Y3863D01*
Y3798D01*
X55325Y3721D01*
X55314Y3634D01*
X55298Y3530D01*
X55282Y3427D01*
X55254Y3312D01*
X55222Y3192D01*
X55178Y3072D01*
X55129Y2952D01*
X55074Y2837D01*
X55003Y2722D01*
X54927Y2613D01*
X54839Y2509D01*
X54834Y2504D01*
X54817Y2487D01*
X54790Y2460D01*
X54747Y2427D01*
X54697Y2389D01*
X54637Y2345D01*
X54566Y2302D01*
X54490Y2253D01*
X54397Y2203D01*
X54299Y2160D01*
X54190Y2116D01*
X54070Y2078D01*
X53944Y2045D01*
X53807Y2018D01*
X53666Y2001D01*
X53513Y1996D01*
X53474D01*
X53431Y2001D01*
X53376Y2007D01*
X53305Y2012D01*
X53223Y2023D01*
X53130Y2040D01*
X53032Y2062D01*
X52923Y2089D01*
X52819Y2121D01*
X52705Y2165D01*
X52595Y2214D01*
X52481Y2269D01*
X52377Y2340D01*
X52273Y2416D01*
X52175Y2509D01*
X52169Y2515D01*
X52153Y2531D01*
X52131Y2564D01*
X52099Y2602D01*
X52060Y2657D01*
X52017Y2722D01*
X51973Y2793D01*
X51929Y2881D01*
X51880Y2973D01*
X51836Y3083D01*
X51793Y3197D01*
X51754Y3323D01*
X51722Y3459D01*
X51700Y3607D01*
X51683Y3765D01*
X51678Y3929D01*
Y3934D01*
Y3956D01*
Y3983D01*
X51683Y4027D01*
Y4076D01*
X51689Y4131D01*
X51694Y4196D01*
X51700Y4267D01*
X51722Y4420D01*
X51749Y4584D01*
X51793Y4748D01*
X51847Y4901D01*
Y4906D01*
X51853Y4912D01*
X51864Y4928D01*
X51869Y4950D01*
X51902Y5004D01*
X51940Y5075D01*
X51989Y5157D01*
X52049Y5239D01*
X52120Y5332D01*
X52197Y5419D01*
X52202Y5425D01*
X52208Y5430D01*
X52235Y5458D01*
X52284Y5501D01*
X52344Y5550D01*
X52415Y5605D01*
X52497Y5665D01*
X52590Y5720D01*
X52688Y5763D01*
X52694D01*
X52705Y5769D01*
X52726Y5780D01*
X52754Y5785D01*
X52786Y5802D01*
X52825Y5813D01*
X52874Y5823D01*
X52923Y5840D01*
X53043Y5867D01*
X53180Y5894D01*
X53338Y5911D01*
X53502Y5916D01*
X53540D01*
X53584Y5911D01*
D02*
G37*
G36*
X71771D02*
X71825D01*
X71896Y5900D01*
X71978Y5889D01*
X72071Y5872D01*
X72169Y5851D01*
X72273Y5823D01*
X72382Y5791D01*
X72492Y5747D01*
X72606Y5698D01*
X72715Y5638D01*
X72825Y5567D01*
X72928Y5485D01*
X73027Y5392D01*
X73032Y5387D01*
X73049Y5370D01*
X73076Y5337D01*
X73103Y5299D01*
X73141Y5245D01*
X73185Y5179D01*
X73229Y5103D01*
X73278Y5015D01*
X73327Y4922D01*
X73371Y4813D01*
X73414Y4693D01*
X73453Y4568D01*
X73485Y4426D01*
X73507Y4278D01*
X73523Y4120D01*
X73529Y3951D01*
Y3940D01*
Y3912D01*
X73523Y3863D01*
Y3798D01*
X73513Y3721D01*
X73502Y3634D01*
X73485Y3530D01*
X73469Y3427D01*
X73442Y3312D01*
X73409Y3192D01*
X73365Y3072D01*
X73316Y2952D01*
X73261Y2837D01*
X73190Y2722D01*
X73114Y2613D01*
X73027Y2509D01*
X73021Y2504D01*
X73005Y2487D01*
X72978Y2460D01*
X72934Y2427D01*
X72885Y2389D01*
X72825Y2345D01*
X72754Y2302D01*
X72677Y2253D01*
X72584Y2203D01*
X72486Y2160D01*
X72377Y2116D01*
X72257Y2078D01*
X72131Y2045D01*
X71995Y2018D01*
X71853Y2001D01*
X71700Y1996D01*
X71662D01*
X71618Y2001D01*
X71563Y2007D01*
X71492Y2012D01*
X71411Y2023D01*
X71318Y2040D01*
X71219Y2062D01*
X71110Y2089D01*
X71006Y2121D01*
X70892Y2165D01*
X70783Y2214D01*
X70668Y2269D01*
X70564Y2340D01*
X70460Y2416D01*
X70362Y2509D01*
X70357Y2515D01*
X70340Y2531D01*
X70319Y2564D01*
X70286Y2602D01*
X70248Y2657D01*
X70204Y2722D01*
X70160Y2793D01*
X70116Y2881D01*
X70067Y2973D01*
X70024Y3083D01*
X69980Y3197D01*
X69942Y3323D01*
X69909Y3459D01*
X69887Y3607D01*
X69871Y3765D01*
X69865Y3929D01*
Y3934D01*
Y3956D01*
Y3983D01*
X69871Y4027D01*
Y4076D01*
X69876Y4131D01*
X69882Y4196D01*
X69887Y4267D01*
X69909Y4420D01*
X69936Y4584D01*
X69980Y4748D01*
X70035Y4901D01*
Y4906D01*
X70040Y4912D01*
X70051Y4928D01*
X70056Y4950D01*
X70089Y5004D01*
X70127Y5075D01*
X70177Y5157D01*
X70237Y5239D01*
X70308Y5332D01*
X70384Y5419D01*
X70389Y5425D01*
X70395Y5430D01*
X70422Y5458D01*
X70471Y5501D01*
X70531Y5550D01*
X70602Y5605D01*
X70684Y5665D01*
X70777Y5720D01*
X70875Y5763D01*
X70881D01*
X70892Y5769D01*
X70914Y5780D01*
X70941Y5785D01*
X70974Y5802D01*
X71012Y5813D01*
X71061Y5823D01*
X71110Y5840D01*
X71230Y5867D01*
X71367Y5894D01*
X71525Y5911D01*
X71689Y5916D01*
X71727D01*
X71771Y5911D01*
D02*
G37*
G36*
X39994Y2067D02*
X39169D01*
X38842Y2924D01*
X37324D01*
X37012Y2067D01*
X36204D01*
X37668Y5845D01*
X38476D01*
X39994Y2067D01*
D02*
G37*
G36*
X60201D02*
X59437D01*
Y5845D01*
X60201D01*
Y2067D01*
D02*
G37*
G36*
X65459D02*
X64733D01*
Y2793D01*
X65459D01*
Y2067D01*
D02*
G37*
G36*
X42156Y5840D02*
X42216D01*
X42276Y5834D01*
X42347D01*
X42489Y5818D01*
X42636Y5802D01*
X42773Y5774D01*
X42833Y5758D01*
X42887Y5742D01*
X42893D01*
X42898Y5736D01*
X42931Y5720D01*
X42980Y5692D01*
X43046Y5660D01*
X43117Y5605D01*
X43188Y5545D01*
X43259Y5469D01*
X43324Y5376D01*
Y5370D01*
X43330Y5365D01*
X43341Y5348D01*
X43352Y5332D01*
X43379Y5277D01*
X43412Y5206D01*
X43439Y5119D01*
X43466Y5021D01*
X43488Y4906D01*
X43494Y4786D01*
Y4781D01*
Y4770D01*
Y4742D01*
X43488Y4715D01*
Y4677D01*
X43483Y4639D01*
X43461Y4540D01*
X43433Y4426D01*
X43390Y4311D01*
X43324Y4191D01*
X43286Y4136D01*
X43242Y4082D01*
X43237Y4076D01*
X43231Y4071D01*
X43215Y4054D01*
X43193Y4038D01*
X43171Y4016D01*
X43139Y3989D01*
X43100Y3962D01*
X43057Y3934D01*
X43007Y3901D01*
X42948Y3874D01*
X42887Y3847D01*
X42822Y3820D01*
X42746Y3792D01*
X42669Y3771D01*
X42587Y3749D01*
X42494Y3732D01*
X42500D01*
X42505Y3727D01*
X42538Y3705D01*
X42582Y3678D01*
X42636Y3639D01*
X42702Y3590D01*
X42767Y3541D01*
X42838Y3481D01*
X42898Y3416D01*
X42904Y3410D01*
X42931Y3383D01*
X42964Y3339D01*
X43013Y3274D01*
X43079Y3192D01*
X43111Y3137D01*
X43150Y3083D01*
X43193Y3022D01*
X43237Y2957D01*
X43286Y2881D01*
X43335Y2804D01*
X43799Y2067D01*
X42882D01*
X42336Y2886D01*
X42331Y2891D01*
X42325Y2908D01*
X42309Y2930D01*
X42287Y2957D01*
X42265Y2990D01*
X42238Y3033D01*
X42178Y3121D01*
X42107Y3219D01*
X42041Y3306D01*
X41981Y3388D01*
X41954Y3416D01*
X41932Y3443D01*
X41927Y3448D01*
X41916Y3459D01*
X41894Y3481D01*
X41866Y3508D01*
X41828Y3530D01*
X41790Y3557D01*
X41746Y3579D01*
X41703Y3601D01*
X41697D01*
X41681Y3607D01*
X41653Y3618D01*
X41610Y3623D01*
X41555Y3634D01*
X41490Y3639D01*
X41413Y3645D01*
X41168D01*
Y2067D01*
X40403D01*
Y5845D01*
X42107D01*
X42156Y5840D01*
D02*
G37*
G36*
X47616Y2067D02*
X46791D01*
X46464Y2924D01*
X44946D01*
X44635Y2067D01*
X43826D01*
X45290Y5845D01*
X46098D01*
X47616Y2067D01*
D02*
G37*
G36*
X38885Y-3517D02*
X37460D01*
Y-2791D01*
X38885D01*
Y-3517D01*
D02*
G37*
G36*
X40463Y-733D02*
X40507Y-738D01*
X40562Y-749D01*
X40616Y-760D01*
X40682Y-777D01*
X40753Y-798D01*
X40818Y-826D01*
X40889Y-853D01*
X40960Y-891D01*
X41031Y-940D01*
X41102Y-989D01*
X41168Y-1049D01*
X41228Y-1120D01*
X41233Y-1126D01*
X41244Y-1142D01*
X41260Y-1170D01*
X41288Y-1208D01*
X41315Y-1263D01*
X41348Y-1328D01*
X41381Y-1399D01*
X41413Y-1492D01*
X41446Y-1590D01*
X41484Y-1705D01*
X41511Y-1830D01*
X41539Y-1972D01*
X41566Y-2125D01*
X41583Y-2289D01*
X41593Y-2469D01*
X41599Y-2666D01*
Y-2671D01*
Y-2677D01*
Y-2693D01*
Y-2715D01*
Y-2769D01*
X41593Y-2840D01*
X41588Y-2928D01*
X41577Y-3032D01*
X41566Y-3141D01*
X41555Y-3261D01*
X41533Y-3386D01*
X41506Y-3517D01*
X41479Y-3643D01*
X41440Y-3769D01*
X41402Y-3894D01*
X41348Y-4009D01*
X41293Y-4118D01*
X41228Y-4211D01*
X41222Y-4216D01*
X41211Y-4227D01*
X41195Y-4249D01*
X41173Y-4271D01*
X41140Y-4298D01*
X41102Y-4331D01*
X41053Y-4369D01*
X41004Y-4402D01*
X40944Y-4440D01*
X40884Y-4478D01*
X40813Y-4511D01*
X40736Y-4538D01*
X40654Y-4560D01*
X40562Y-4582D01*
X40469Y-4593D01*
X40370Y-4598D01*
X40349D01*
X40316Y-4593D01*
X40278D01*
X40234Y-4588D01*
X40179Y-4577D01*
X40119Y-4566D01*
X40054Y-4544D01*
X39983Y-4522D01*
X39912Y-4495D01*
X39835Y-4462D01*
X39764Y-4418D01*
X39688Y-4375D01*
X39617Y-4315D01*
X39546Y-4255D01*
X39480Y-4178D01*
X39475Y-4173D01*
X39464Y-4156D01*
X39448Y-4129D01*
X39431Y-4096D01*
X39404Y-4047D01*
X39377Y-3987D01*
X39344Y-3911D01*
X39317Y-3829D01*
X39284Y-3730D01*
X39251Y-3621D01*
X39224Y-3496D01*
X39202Y-3359D01*
X39180Y-3206D01*
X39164Y-3037D01*
X39153Y-2857D01*
X39147Y-2660D01*
Y-2655D01*
Y-2649D01*
Y-2633D01*
Y-2611D01*
Y-2557D01*
X39153Y-2486D01*
X39158Y-2398D01*
X39169Y-2294D01*
X39180Y-2185D01*
X39191Y-2065D01*
X39213Y-1939D01*
X39235Y-1814D01*
X39268Y-1683D01*
X39300Y-1557D01*
X39344Y-1437D01*
X39393Y-1323D01*
X39448Y-1213D01*
X39513Y-1120D01*
X39519Y-1115D01*
X39529Y-1104D01*
X39546Y-1082D01*
X39573Y-1060D01*
X39601Y-1028D01*
X39639Y-995D01*
X39688Y-962D01*
X39737Y-924D01*
X39797Y-886D01*
X39857Y-853D01*
X39928Y-820D01*
X40005Y-788D01*
X40086Y-766D01*
X40179Y-744D01*
X40272Y-733D01*
X40370Y-727D01*
X40425D01*
X40463Y-733D01*
D02*
G37*
G36*
X19344D02*
X19393Y-738D01*
X19448Y-744D01*
X19508Y-755D01*
X19573Y-766D01*
X19715Y-804D01*
X19857Y-858D01*
X19934Y-891D01*
X19999Y-929D01*
X20070Y-979D01*
X20130Y-1033D01*
X20136Y-1039D01*
X20146Y-1044D01*
X20157Y-1066D01*
X20179Y-1088D01*
X20207Y-1115D01*
X20234Y-1153D01*
X20261Y-1192D01*
X20294Y-1241D01*
X20349Y-1350D01*
X20403Y-1475D01*
X20425Y-1546D01*
X20436Y-1623D01*
X20447Y-1705D01*
X20452Y-1787D01*
Y-1798D01*
Y-1830D01*
X20447Y-1880D01*
X20441Y-1939D01*
X20430Y-2016D01*
X20414Y-2098D01*
X20392Y-2185D01*
X20359Y-2273D01*
X20354Y-2283D01*
X20343Y-2311D01*
X20321Y-2360D01*
X20289Y-2420D01*
X20250Y-2491D01*
X20201Y-2573D01*
X20141Y-2660D01*
X20070Y-2753D01*
X20065Y-2758D01*
X20043Y-2786D01*
X20010Y-2824D01*
X19961Y-2879D01*
X19895Y-2944D01*
X19814Y-3032D01*
X19715Y-3124D01*
X19595Y-3239D01*
X19590Y-3244D01*
X19579Y-3250D01*
X19562Y-3266D01*
X19541Y-3288D01*
X19480Y-3343D01*
X19409Y-3408D01*
X19339Y-3479D01*
X19267Y-3550D01*
X19202Y-3610D01*
X19180Y-3638D01*
X19158Y-3659D01*
X19153Y-3665D01*
X19142Y-3676D01*
X19126Y-3698D01*
X19104Y-3725D01*
X19054Y-3785D01*
X19011Y-3856D01*
X20452D01*
Y-4528D01*
X17913D01*
Y-4522D01*
Y-4511D01*
X17919Y-4489D01*
X17924Y-4462D01*
X17930Y-4429D01*
X17935Y-4391D01*
X17957Y-4293D01*
X17990Y-4184D01*
X18034Y-4064D01*
X18088Y-3932D01*
X18159Y-3807D01*
Y-3801D01*
X18170Y-3791D01*
X18181Y-3769D01*
X18203Y-3747D01*
X18225Y-3709D01*
X18257Y-3670D01*
X18296Y-3621D01*
X18339Y-3567D01*
X18388Y-3501D01*
X18449Y-3436D01*
X18514Y-3359D01*
X18590Y-3277D01*
X18672Y-3195D01*
X18765Y-3102D01*
X18863Y-3004D01*
X18973Y-2901D01*
X18978Y-2895D01*
X18994Y-2879D01*
X19016Y-2857D01*
X19049Y-2824D01*
X19093Y-2791D01*
X19136Y-2748D01*
X19235Y-2649D01*
X19333Y-2546D01*
X19431Y-2442D01*
X19475Y-2398D01*
X19519Y-2349D01*
X19551Y-2311D01*
X19573Y-2278D01*
X19579Y-2267D01*
X19595Y-2240D01*
X19622Y-2196D01*
X19650Y-2136D01*
X19677Y-2071D01*
X19704Y-1994D01*
X19721Y-1918D01*
X19726Y-1836D01*
Y-1830D01*
Y-1825D01*
Y-1798D01*
X19721Y-1748D01*
X19710Y-1694D01*
X19693Y-1634D01*
X19671Y-1574D01*
X19639Y-1514D01*
X19595Y-1459D01*
X19590Y-1454D01*
X19573Y-1437D01*
X19541Y-1415D01*
X19502Y-1393D01*
X19448Y-1372D01*
X19388Y-1350D01*
X19317Y-1333D01*
X19235Y-1328D01*
X19196D01*
X19153Y-1333D01*
X19104Y-1344D01*
X19044Y-1361D01*
X18983Y-1388D01*
X18924Y-1421D01*
X18869Y-1464D01*
X18863Y-1470D01*
X18847Y-1492D01*
X18825Y-1525D01*
X18803Y-1574D01*
X18776Y-1634D01*
X18754Y-1716D01*
X18732Y-1808D01*
X18722Y-1918D01*
X18001Y-1847D01*
Y-1841D01*
X18006Y-1819D01*
Y-1792D01*
X18017Y-1748D01*
X18023Y-1699D01*
X18039Y-1645D01*
X18055Y-1585D01*
X18072Y-1514D01*
X18126Y-1377D01*
X18192Y-1235D01*
X18236Y-1164D01*
X18285Y-1099D01*
X18339Y-1044D01*
X18399Y-989D01*
X18405Y-984D01*
X18416Y-979D01*
X18432Y-968D01*
X18459Y-946D01*
X18492Y-929D01*
X18536Y-908D01*
X18579Y-880D01*
X18634Y-858D01*
X18694Y-831D01*
X18760Y-809D01*
X18902Y-766D01*
X19071Y-738D01*
X19158Y-733D01*
X19251Y-727D01*
X19306D01*
X19344Y-733D01*
D02*
G37*
G36*
X22260D02*
X22303Y-738D01*
X22358Y-749D01*
X22412Y-760D01*
X22478Y-777D01*
X22549Y-798D01*
X22614Y-826D01*
X22685Y-853D01*
X22756Y-891D01*
X22827Y-940D01*
X22898Y-989D01*
X22964Y-1049D01*
X23024Y-1120D01*
X23029Y-1126D01*
X23040Y-1142D01*
X23057Y-1170D01*
X23084Y-1208D01*
X23111Y-1263D01*
X23144Y-1328D01*
X23177Y-1399D01*
X23210Y-1492D01*
X23242Y-1590D01*
X23281Y-1705D01*
X23308Y-1830D01*
X23335Y-1972D01*
X23362Y-2125D01*
X23379Y-2289D01*
X23390Y-2469D01*
X23395Y-2666D01*
Y-2671D01*
Y-2677D01*
Y-2693D01*
Y-2715D01*
Y-2769D01*
X23390Y-2840D01*
X23384Y-2928D01*
X23373Y-3032D01*
X23362Y-3141D01*
X23352Y-3261D01*
X23330Y-3386D01*
X23302Y-3517D01*
X23275Y-3643D01*
X23237Y-3769D01*
X23199Y-3894D01*
X23144Y-4009D01*
X23089Y-4118D01*
X23024Y-4211D01*
X23019Y-4216D01*
X23008Y-4227D01*
X22991Y-4249D01*
X22969Y-4271D01*
X22937Y-4298D01*
X22898Y-4331D01*
X22849Y-4369D01*
X22800Y-4402D01*
X22740Y-4440D01*
X22680Y-4478D01*
X22609Y-4511D01*
X22533Y-4538D01*
X22451Y-4560D01*
X22358Y-4582D01*
X22265Y-4593D01*
X22167Y-4598D01*
X22145D01*
X22112Y-4593D01*
X22074D01*
X22030Y-4588D01*
X21976Y-4577D01*
X21916Y-4566D01*
X21850Y-4544D01*
X21779Y-4522D01*
X21708Y-4495D01*
X21632Y-4462D01*
X21561Y-4418D01*
X21484Y-4375D01*
X21413Y-4315D01*
X21342Y-4255D01*
X21277Y-4178D01*
X21271Y-4173D01*
X21260Y-4156D01*
X21244Y-4129D01*
X21228Y-4096D01*
X21200Y-4047D01*
X21173Y-3987D01*
X21140Y-3911D01*
X21113Y-3829D01*
X21080Y-3730D01*
X21047Y-3621D01*
X21020Y-3496D01*
X20998Y-3359D01*
X20976Y-3206D01*
X20960Y-3037D01*
X20949Y-2857D01*
X20944Y-2660D01*
Y-2655D01*
Y-2649D01*
Y-2633D01*
Y-2611D01*
Y-2557D01*
X20949Y-2486D01*
X20955Y-2398D01*
X20966Y-2294D01*
X20976Y-2185D01*
X20987Y-2065D01*
X21009Y-1939D01*
X21031Y-1814D01*
X21064Y-1683D01*
X21097Y-1557D01*
X21140Y-1437D01*
X21189Y-1323D01*
X21244Y-1213D01*
X21309Y-1120D01*
X21315Y-1115D01*
X21326Y-1104D01*
X21342Y-1082D01*
X21370Y-1060D01*
X21397Y-1028D01*
X21435Y-995D01*
X21484Y-962D01*
X21533Y-924D01*
X21593Y-886D01*
X21654Y-853D01*
X21724Y-820D01*
X21801Y-788D01*
X21883Y-766D01*
X21976Y-744D01*
X22069Y-733D01*
X22167Y-727D01*
X22221D01*
X22260Y-733D01*
D02*
G37*
G36*
X32830D02*
X32874Y-738D01*
X32928Y-749D01*
X32983Y-760D01*
X33048Y-777D01*
X33119Y-798D01*
X33185Y-826D01*
X33256Y-853D01*
X33327Y-891D01*
X33398Y-940D01*
X33469Y-989D01*
X33534Y-1049D01*
X33595Y-1120D01*
X33600Y-1126D01*
X33611Y-1142D01*
X33627Y-1170D01*
X33655Y-1208D01*
X33682Y-1263D01*
X33715Y-1328D01*
X33747Y-1399D01*
X33780Y-1492D01*
X33813Y-1590D01*
X33851Y-1705D01*
X33878Y-1830D01*
X33906Y-1972D01*
X33933Y-2125D01*
X33949Y-2289D01*
X33960Y-2469D01*
X33966Y-2666D01*
Y-2671D01*
Y-2677D01*
Y-2693D01*
Y-2715D01*
Y-2769D01*
X33960Y-2840D01*
X33955Y-2928D01*
X33944Y-3032D01*
X33933Y-3141D01*
X33922Y-3261D01*
X33900Y-3386D01*
X33873Y-3517D01*
X33846Y-3643D01*
X33808Y-3769D01*
X33769Y-3894D01*
X33715Y-4009D01*
X33660Y-4118D01*
X33595Y-4211D01*
X33589Y-4216D01*
X33578Y-4227D01*
X33562Y-4249D01*
X33540Y-4271D01*
X33507Y-4298D01*
X33469Y-4331D01*
X33420Y-4369D01*
X33371Y-4402D01*
X33311Y-4440D01*
X33250Y-4478D01*
X33180Y-4511D01*
X33103Y-4538D01*
X33021Y-4560D01*
X32928Y-4582D01*
X32836Y-4593D01*
X32737Y-4598D01*
X32715D01*
X32683Y-4593D01*
X32645D01*
X32601Y-4588D01*
X32546Y-4577D01*
X32486Y-4566D01*
X32421Y-4544D01*
X32350Y-4522D01*
X32279Y-4495D01*
X32202Y-4462D01*
X32131Y-4418D01*
X32055Y-4375D01*
X31984Y-4315D01*
X31913Y-4255D01*
X31847Y-4178D01*
X31842Y-4173D01*
X31831Y-4156D01*
X31815Y-4129D01*
X31798Y-4096D01*
X31771Y-4047D01*
X31744Y-3987D01*
X31711Y-3911D01*
X31683Y-3829D01*
X31651Y-3730D01*
X31618Y-3621D01*
X31591Y-3496D01*
X31569Y-3359D01*
X31547Y-3206D01*
X31531Y-3037D01*
X31520Y-2857D01*
X31514Y-2660D01*
Y-2655D01*
Y-2649D01*
Y-2633D01*
Y-2611D01*
Y-2557D01*
X31520Y-2486D01*
X31525Y-2398D01*
X31536Y-2294D01*
X31547Y-2185D01*
X31558Y-2065D01*
X31580Y-1939D01*
X31602Y-1814D01*
X31634Y-1683D01*
X31667Y-1557D01*
X31711Y-1437D01*
X31760Y-1323D01*
X31815Y-1213D01*
X31880Y-1120D01*
X31885Y-1115D01*
X31896Y-1104D01*
X31913Y-1082D01*
X31940Y-1060D01*
X31967Y-1028D01*
X32006Y-995D01*
X32055Y-962D01*
X32104Y-924D01*
X32164Y-886D01*
X32224Y-853D01*
X32295Y-820D01*
X32372Y-788D01*
X32453Y-766D01*
X32546Y-744D01*
X32639Y-733D01*
X32737Y-727D01*
X32792D01*
X32830Y-733D01*
D02*
G37*
G36*
X25732Y-4528D02*
X25006D01*
Y-1792D01*
X25001Y-1798D01*
X24990Y-1808D01*
X24968Y-1825D01*
X24935Y-1852D01*
X24897Y-1885D01*
X24853Y-1918D01*
X24798Y-1956D01*
X24738Y-2000D01*
X24673Y-2043D01*
X24602Y-2087D01*
X24525Y-2136D01*
X24443Y-2180D01*
X24269Y-2262D01*
X24072Y-2338D01*
Y-1683D01*
X24078D01*
X24083Y-1677D01*
X24100Y-1672D01*
X24121Y-1667D01*
X24176Y-1639D01*
X24252Y-1606D01*
X24345Y-1563D01*
X24449Y-1503D01*
X24564Y-1426D01*
X24684Y-1339D01*
X24689Y-1333D01*
X24700Y-1328D01*
X24717Y-1312D01*
X24738Y-1290D01*
X24798Y-1235D01*
X24864Y-1164D01*
X24940Y-1077D01*
X25017Y-968D01*
X25088Y-853D01*
X25142Y-727D01*
X25732D01*
Y-4528D01*
D02*
G37*
G36*
X28025Y-733D02*
X28069D01*
X28118Y-738D01*
X28173Y-749D01*
X28238Y-766D01*
X28304Y-782D01*
X28380Y-809D01*
X28457Y-837D01*
X28533Y-875D01*
X28615Y-919D01*
X28691Y-968D01*
X28768Y-1028D01*
X28844Y-1099D01*
X28915Y-1175D01*
X28921Y-1181D01*
X28932Y-1197D01*
X28948Y-1224D01*
X28975Y-1263D01*
X29003Y-1312D01*
X29035Y-1372D01*
X29068Y-1443D01*
X29101Y-1525D01*
X29134Y-1623D01*
X29172Y-1732D01*
X29199Y-1852D01*
X29226Y-1983D01*
X29254Y-2131D01*
X29270Y-2289D01*
X29281Y-2458D01*
X29287Y-2644D01*
Y-2649D01*
Y-2655D01*
Y-2671D01*
Y-2688D01*
Y-2742D01*
X29281Y-2813D01*
X29276Y-2901D01*
X29265Y-2999D01*
X29254Y-3102D01*
X29237Y-3217D01*
X29216Y-3343D01*
X29194Y-3463D01*
X29161Y-3588D01*
X29123Y-3714D01*
X29079Y-3829D01*
X29024Y-3943D01*
X28970Y-4047D01*
X28899Y-4140D01*
X28894Y-4145D01*
X28883Y-4162D01*
X28861Y-4184D01*
X28828Y-4211D01*
X28790Y-4244D01*
X28746Y-4287D01*
X28691Y-4326D01*
X28631Y-4369D01*
X28566Y-4413D01*
X28489Y-4451D01*
X28407Y-4489D01*
X28320Y-4528D01*
X28222Y-4555D01*
X28124Y-4577D01*
X28020Y-4593D01*
X27905Y-4598D01*
X27861D01*
X27834Y-4593D01*
X27796D01*
X27752Y-4588D01*
X27649Y-4571D01*
X27534Y-4538D01*
X27419Y-4500D01*
X27299Y-4440D01*
X27244Y-4407D01*
X27190Y-4364D01*
X27185Y-4358D01*
X27179Y-4353D01*
X27163Y-4337D01*
X27146Y-4320D01*
X27124Y-4293D01*
X27097Y-4265D01*
X27075Y-4227D01*
X27042Y-4189D01*
X27015Y-4140D01*
X26983Y-4091D01*
X26955Y-4031D01*
X26928Y-3965D01*
X26901Y-3900D01*
X26879Y-3823D01*
X26857Y-3747D01*
X26840Y-3659D01*
X27539Y-3577D01*
Y-3588D01*
X27545Y-3616D01*
X27550Y-3654D01*
X27567Y-3698D01*
X27583Y-3752D01*
X27605Y-3807D01*
X27632Y-3856D01*
X27670Y-3900D01*
X27676Y-3905D01*
X27692Y-3916D01*
X27714Y-3932D01*
X27747Y-3949D01*
X27790Y-3965D01*
X27834Y-3982D01*
X27894Y-3993D01*
X27954Y-3998D01*
X27965D01*
X27992Y-3993D01*
X28031Y-3987D01*
X28085Y-3971D01*
X28145Y-3949D01*
X28205Y-3911D01*
X28271Y-3861D01*
X28331Y-3796D01*
X28337Y-3785D01*
X28347Y-3774D01*
X28358Y-3752D01*
X28369Y-3730D01*
X28386Y-3698D01*
X28397Y-3659D01*
X28418Y-3610D01*
X28435Y-3556D01*
X28451Y-3496D01*
X28468Y-3425D01*
X28484Y-3348D01*
X28500Y-3261D01*
X28511Y-3163D01*
X28522Y-3053D01*
X28533Y-2939D01*
X28528Y-2944D01*
X28522Y-2950D01*
X28506Y-2966D01*
X28484Y-2988D01*
X28457Y-3010D01*
X28424Y-3037D01*
X28347Y-3097D01*
X28249Y-3157D01*
X28129Y-3206D01*
X28063Y-3228D01*
X27998Y-3239D01*
X27927Y-3250D01*
X27851Y-3255D01*
X27807D01*
X27774Y-3250D01*
X27736Y-3244D01*
X27692Y-3239D01*
X27588Y-3212D01*
X27468Y-3173D01*
X27408Y-3141D01*
X27343Y-3108D01*
X27277Y-3070D01*
X27212Y-3026D01*
X27146Y-2971D01*
X27086Y-2911D01*
X27081Y-2906D01*
X27070Y-2895D01*
X27059Y-2873D01*
X27037Y-2851D01*
X27010Y-2813D01*
X26983Y-2775D01*
X26955Y-2726D01*
X26928Y-2671D01*
X26895Y-2611D01*
X26868Y-2540D01*
X26840Y-2469D01*
X26813Y-2387D01*
X26791Y-2305D01*
X26780Y-2213D01*
X26770Y-2114D01*
X26764Y-2016D01*
Y-2011D01*
Y-1989D01*
Y-1961D01*
X26770Y-1918D01*
X26775Y-1869D01*
X26780Y-1814D01*
X26791Y-1748D01*
X26808Y-1683D01*
X26846Y-1536D01*
X26873Y-1454D01*
X26906Y-1377D01*
X26944Y-1301D01*
X26993Y-1224D01*
X27042Y-1153D01*
X27103Y-1082D01*
X27108Y-1077D01*
X27119Y-1066D01*
X27135Y-1049D01*
X27163Y-1028D01*
X27201Y-1000D01*
X27239Y-968D01*
X27288Y-940D01*
X27343Y-902D01*
X27397Y-869D01*
X27468Y-842D01*
X27539Y-809D01*
X27616Y-782D01*
X27698Y-760D01*
X27785Y-744D01*
X27872Y-733D01*
X27971Y-727D01*
X27998D01*
X28025Y-733D01*
D02*
G37*
G36*
X31252Y-3517D02*
X29827D01*
Y-2791D01*
X31252D01*
Y-3517D01*
D02*
G37*
G36*
X43936Y-4528D02*
X43210D01*
Y-1792D01*
X43204Y-1798D01*
X43193Y-1808D01*
X43171Y-1825D01*
X43139Y-1852D01*
X43100Y-1885D01*
X43057Y-1918D01*
X43002Y-1956D01*
X42942Y-2000D01*
X42876Y-2043D01*
X42805Y-2087D01*
X42729Y-2136D01*
X42647Y-2180D01*
X42472Y-2262D01*
X42276Y-2338D01*
Y-1683D01*
X42281D01*
X42287Y-1677D01*
X42303Y-1672D01*
X42325Y-1667D01*
X42380Y-1639D01*
X42456Y-1606D01*
X42549Y-1563D01*
X42653Y-1503D01*
X42767Y-1426D01*
X42887Y-1339D01*
X42893Y-1333D01*
X42904Y-1328D01*
X42920Y-1312D01*
X42942Y-1290D01*
X43002Y-1235D01*
X43068Y-1164D01*
X43144Y-1077D01*
X43220Y-968D01*
X43292Y-853D01*
X43346Y-727D01*
X43936D01*
Y-4528D01*
D02*
G37*
G36*
X36838Y-1475D02*
X35467D01*
X35353Y-2120D01*
X35358D01*
X35364Y-2114D01*
X35396Y-2098D01*
X35445Y-2081D01*
X35506Y-2054D01*
X35582Y-2032D01*
X35664Y-2016D01*
X35757Y-2000D01*
X35849Y-1994D01*
X35899D01*
X35931Y-2000D01*
X35970Y-2005D01*
X36019Y-2011D01*
X36073Y-2021D01*
X36133Y-2038D01*
X36259Y-2081D01*
X36330Y-2109D01*
X36395Y-2142D01*
X36467Y-2185D01*
X36538Y-2234D01*
X36603Y-2289D01*
X36669Y-2349D01*
X36674Y-2355D01*
X36685Y-2365D01*
X36701Y-2387D01*
X36723Y-2414D01*
X36745Y-2447D01*
X36778Y-2491D01*
X36805Y-2540D01*
X36838Y-2595D01*
X36871Y-2655D01*
X36898Y-2726D01*
X36931Y-2802D01*
X36952Y-2879D01*
X36974Y-2966D01*
X36991Y-3059D01*
X37001Y-3157D01*
X37007Y-3261D01*
Y-3266D01*
Y-3283D01*
Y-3305D01*
X37001Y-3337D01*
Y-3381D01*
X36991Y-3430D01*
X36985Y-3485D01*
X36974Y-3539D01*
X36941Y-3670D01*
X36892Y-3812D01*
X36860Y-3889D01*
X36827Y-3960D01*
X36783Y-4031D01*
X36734Y-4102D01*
X36729Y-4107D01*
X36718Y-4123D01*
X36696Y-4145D01*
X36669Y-4178D01*
X36630Y-4216D01*
X36581Y-4260D01*
X36527Y-4304D01*
X36467Y-4347D01*
X36395Y-4397D01*
X36319Y-4440D01*
X36237Y-4484D01*
X36144Y-4522D01*
X36046Y-4555D01*
X35942Y-4577D01*
X35828Y-4593D01*
X35708Y-4598D01*
X35658D01*
X35620Y-4593D01*
X35577Y-4588D01*
X35522Y-4582D01*
X35467Y-4577D01*
X35402Y-4566D01*
X35271Y-4533D01*
X35123Y-4478D01*
X35052Y-4451D01*
X34981Y-4413D01*
X34916Y-4369D01*
X34850Y-4320D01*
X34845Y-4315D01*
X34834Y-4309D01*
X34817Y-4293D01*
X34796Y-4271D01*
X34774Y-4238D01*
X34741Y-4205D01*
X34714Y-4167D01*
X34681Y-4123D01*
X34643Y-4069D01*
X34610Y-4014D01*
X34550Y-3883D01*
X34495Y-3736D01*
X34479Y-3654D01*
X34463Y-3567D01*
X35183Y-3490D01*
Y-3501D01*
X35189Y-3528D01*
X35200Y-3577D01*
X35216Y-3632D01*
X35238Y-3692D01*
X35271Y-3758D01*
X35314Y-3818D01*
X35364Y-3878D01*
X35369Y-3883D01*
X35391Y-3900D01*
X35424Y-3921D01*
X35467Y-3949D01*
X35516Y-3976D01*
X35577Y-3998D01*
X35647Y-4014D01*
X35719Y-4020D01*
X35729D01*
X35757Y-4014D01*
X35800Y-4009D01*
X35855Y-3998D01*
X35915Y-3976D01*
X35980Y-3943D01*
X36046Y-3894D01*
X36106Y-3834D01*
X36112Y-3823D01*
X36133Y-3801D01*
X36155Y-3758D01*
X36188Y-3692D01*
X36215Y-3616D01*
X36243Y-3523D01*
X36259Y-3408D01*
X36264Y-3277D01*
Y-3272D01*
Y-3261D01*
Y-3244D01*
Y-3217D01*
X36259Y-3157D01*
X36243Y-3081D01*
X36226Y-2993D01*
X36199Y-2906D01*
X36161Y-2824D01*
X36106Y-2753D01*
X36101Y-2748D01*
X36079Y-2726D01*
X36041Y-2699D01*
X35997Y-2660D01*
X35937Y-2627D01*
X35866Y-2600D01*
X35784Y-2578D01*
X35697Y-2573D01*
X35664D01*
X35642Y-2578D01*
X35587Y-2589D01*
X35511Y-2606D01*
X35424Y-2638D01*
X35331Y-2688D01*
X35282Y-2720D01*
X35232Y-2758D01*
X35183Y-2802D01*
X35134Y-2851D01*
X34550Y-2769D01*
X34921Y-798D01*
X36838D01*
Y-1475D01*
D02*
G37*
G36*
X161462Y9079D02*
X161778D01*
Y8921D01*
X162094D01*
Y8763D01*
X162251D01*
Y8605D01*
X162567D01*
Y8447D01*
X162883D01*
Y8290D01*
X163198D01*
Y8132D01*
X163356D01*
Y7974D01*
X163672D01*
Y7816D01*
X163988D01*
Y7658D01*
X164303D01*
Y7500D01*
X164461D01*
Y7343D01*
X164777D01*
Y7185D01*
X165093D01*
Y7027D01*
X165250D01*
Y6869D01*
X165566D01*
Y6711D01*
X165882D01*
Y6553D01*
X166198D01*
Y6395D01*
X166355D01*
Y6238D01*
X166671D01*
Y6080D01*
X166987D01*
Y5922D01*
X167302D01*
Y5764D01*
X167460D01*
Y5606D01*
X167618D01*
Y1187D01*
X167934D01*
Y1029D01*
X168092D01*
Y871D01*
X168407D01*
Y713D01*
X168723D01*
Y555D01*
X168881D01*
Y397D01*
X169197D01*
Y240D01*
X169512D01*
Y82D01*
X169828D01*
Y-76D01*
X169986D01*
Y-234D01*
X170301D01*
Y-392D01*
X170617D01*
Y-550D01*
X170933D01*
Y-708D01*
X171091D01*
Y-865D01*
X171406D01*
Y-1023D01*
X171564D01*
Y-8442D01*
X171248D01*
Y-8600D01*
X170933D01*
Y-8758D01*
X170617D01*
Y-8916D01*
X170459D01*
Y-9073D01*
X170144D01*
Y-9231D01*
X169828D01*
Y-9389D01*
X169512D01*
Y-9547D01*
X169354D01*
Y-9705D01*
X169039D01*
Y-9862D01*
X168723D01*
Y-10020D01*
X168565D01*
Y-10178D01*
X168249D01*
Y-10336D01*
X167934D01*
Y-10494D01*
X167618D01*
Y-10652D01*
X167460D01*
Y-10810D01*
X167145D01*
Y-10967D01*
X166829D01*
Y-11125D01*
X166513D01*
Y-11283D01*
X166355D01*
Y-11441D01*
X166040D01*
Y-11599D01*
X165724D01*
Y-11757D01*
X165408D01*
Y-11914D01*
X165250D01*
Y-11757D01*
X164935D01*
Y-11599D01*
X164777D01*
Y-11441D01*
X164461D01*
Y-11283D01*
X164146D01*
Y-11125D01*
X163988D01*
Y-10967D01*
X163672D01*
Y-10810D01*
X163356D01*
Y-10652D01*
X163041D01*
Y-10494D01*
X162883D01*
Y-10336D01*
X162567D01*
Y-10178D01*
X162251D01*
Y-10020D01*
X161936D01*
Y-9862D01*
X161778D01*
Y-9705D01*
X161462D01*
Y-9547D01*
X161304D01*
Y-9705D01*
X160989D01*
Y-9862D01*
X160831D01*
Y-10020D01*
X160515D01*
Y-10178D01*
X160199D01*
Y-10336D01*
X159884D01*
Y-10494D01*
X159726D01*
Y-10652D01*
X159410D01*
Y-10810D01*
X159095D01*
Y-10967D01*
X158779D01*
Y-11125D01*
X158621D01*
Y-11283D01*
X158305D01*
Y-11441D01*
X157990D01*
Y-11599D01*
X157674D01*
Y-11757D01*
X157516D01*
Y-11914D01*
X157358D01*
Y-11757D01*
X157043D01*
Y-11599D01*
X156727D01*
Y-11441D01*
X156411D01*
Y-11283D01*
X156253D01*
Y-11125D01*
X155938D01*
Y-10967D01*
X155622D01*
Y-10810D01*
X155306D01*
Y-10652D01*
X155148D01*
Y-10494D01*
X154833D01*
Y-10336D01*
X154517D01*
Y-10178D01*
X154201D01*
Y-10020D01*
X154043D01*
Y-9862D01*
X153728D01*
Y-9705D01*
X153412D01*
Y-9547D01*
X153254D01*
Y-9389D01*
X152939D01*
Y-9231D01*
X152623D01*
Y-9073D01*
X152307D01*
Y-8916D01*
X152149D01*
Y-8758D01*
X151834D01*
Y-8600D01*
X151518D01*
Y-8442D01*
X151202D01*
Y-1023D01*
X151360D01*
Y-865D01*
X151676D01*
Y-708D01*
X151834D01*
Y-550D01*
X152149D01*
Y-392D01*
X152465D01*
Y-234D01*
X152781D01*
Y-76D01*
X152939D01*
Y82D01*
X153254D01*
Y240D01*
X153570D01*
Y397D01*
X153886D01*
Y555D01*
X154043D01*
Y713D01*
X154359D01*
Y871D01*
X154675D01*
Y1029D01*
X154833D01*
Y1187D01*
X155148D01*
Y5606D01*
X155306D01*
Y5764D01*
X155622D01*
Y5922D01*
X155780D01*
Y6080D01*
X156096D01*
Y6238D01*
X156411D01*
Y6395D01*
X156569D01*
Y6553D01*
X156885D01*
Y6711D01*
X157200D01*
Y6869D01*
X157516D01*
Y7027D01*
X157674D01*
Y7185D01*
X157990D01*
Y7343D01*
X158305D01*
Y7500D01*
X158621D01*
Y7658D01*
X158779D01*
Y7816D01*
X159095D01*
Y7974D01*
X159410D01*
Y8132D01*
X159726D01*
Y8290D01*
X159884D01*
Y8447D01*
X160199D01*
Y8605D01*
X160515D01*
Y8763D01*
X160831D01*
Y8921D01*
X160989D01*
Y9079D01*
X161304D01*
Y9237D01*
X161462D01*
Y9079D01*
D02*
G37*
G36*
X19546Y5911D02*
X19606Y5905D01*
X19677Y5900D01*
X19748Y5889D01*
X19830Y5878D01*
X20005Y5840D01*
X20092Y5813D01*
X20179Y5785D01*
X20267Y5747D01*
X20349Y5703D01*
X20425Y5654D01*
X20496Y5599D01*
X20501Y5594D01*
X20512Y5583D01*
X20529Y5567D01*
X20551Y5545D01*
X20578Y5512D01*
X20611Y5474D01*
X20643Y5430D01*
X20682Y5381D01*
X20714Y5321D01*
X20747Y5261D01*
X20780Y5190D01*
X20807Y5114D01*
X20834Y5037D01*
X20856Y4950D01*
X20873Y4862D01*
X20878Y4764D01*
X20114Y4737D01*
Y4742D01*
Y4748D01*
X20103Y4786D01*
X20092Y4835D01*
X20070Y4895D01*
X20043Y4966D01*
X20005Y5032D01*
X19955Y5097D01*
X19901Y5152D01*
X19895Y5157D01*
X19873Y5174D01*
X19835Y5195D01*
X19781Y5217D01*
X19715Y5239D01*
X19633Y5261D01*
X19535Y5277D01*
X19420Y5283D01*
X19366D01*
X19306Y5277D01*
X19235Y5266D01*
X19153Y5250D01*
X19065Y5223D01*
X18983Y5190D01*
X18907Y5141D01*
X18902Y5136D01*
X18891Y5125D01*
X18869Y5108D01*
X18847Y5081D01*
X18825Y5048D01*
X18803Y5004D01*
X18792Y4961D01*
X18787Y4906D01*
Y4901D01*
Y4884D01*
X18792Y4857D01*
X18803Y4830D01*
X18814Y4792D01*
X18831Y4753D01*
X18858Y4715D01*
X18896Y4677D01*
X18902Y4671D01*
X18929Y4655D01*
X18945Y4644D01*
X18973Y4633D01*
X19000Y4617D01*
X19038Y4600D01*
X19082Y4584D01*
X19131Y4562D01*
X19191Y4540D01*
X19251Y4518D01*
X19328Y4497D01*
X19409Y4475D01*
X19497Y4453D01*
X19595Y4426D01*
X19601D01*
X19622Y4420D01*
X19650Y4415D01*
X19688Y4404D01*
X19732Y4393D01*
X19786Y4377D01*
X19846Y4360D01*
X19906Y4344D01*
X20037Y4300D01*
X20174Y4256D01*
X20305Y4207D01*
X20359Y4180D01*
X20414Y4153D01*
X20419D01*
X20425Y4147D01*
X20458Y4125D01*
X20507Y4093D01*
X20567Y4049D01*
X20632Y3994D01*
X20704Y3929D01*
X20774Y3852D01*
X20834Y3765D01*
X20840Y3754D01*
X20856Y3721D01*
X20884Y3672D01*
X20911Y3601D01*
X20938Y3514D01*
X20966Y3410D01*
X20982Y3295D01*
X20987Y3164D01*
Y3159D01*
Y3148D01*
Y3132D01*
Y3110D01*
X20982Y3083D01*
X20976Y3044D01*
X20966Y2968D01*
X20944Y2870D01*
X20911Y2766D01*
X20862Y2662D01*
X20802Y2553D01*
Y2547D01*
X20791Y2542D01*
X20769Y2509D01*
X20725Y2455D01*
X20671Y2395D01*
X20600Y2324D01*
X20507Y2258D01*
X20409Y2193D01*
X20289Y2132D01*
X20283D01*
X20272Y2127D01*
X20256Y2121D01*
X20228Y2111D01*
X20196Y2100D01*
X20157Y2089D01*
X20114Y2078D01*
X20065Y2067D01*
X20005Y2051D01*
X19944Y2040D01*
X19803Y2018D01*
X19644Y2001D01*
X19469Y1996D01*
X19399D01*
X19349Y2001D01*
X19289Y2007D01*
X19224Y2012D01*
X19147Y2023D01*
X19065Y2040D01*
X18885Y2078D01*
X18792Y2105D01*
X18705Y2132D01*
X18612Y2171D01*
X18525Y2214D01*
X18443Y2263D01*
X18367Y2324D01*
X18361Y2329D01*
X18350Y2340D01*
X18328Y2356D01*
X18306Y2384D01*
X18274Y2422D01*
X18241Y2465D01*
X18203Y2515D01*
X18165Y2569D01*
X18126Y2635D01*
X18088Y2706D01*
X18050Y2788D01*
X18012Y2875D01*
X17984Y2968D01*
X17952Y3072D01*
X17930Y3181D01*
X17913Y3295D01*
X18656Y3366D01*
Y3361D01*
X18661Y3350D01*
Y3328D01*
X18667Y3306D01*
X18689Y3241D01*
X18716Y3159D01*
X18749Y3066D01*
X18798Y2973D01*
X18853Y2891D01*
X18924Y2815D01*
X18934Y2809D01*
X18962Y2788D01*
X19005Y2760D01*
X19071Y2728D01*
X19153Y2695D01*
X19246Y2668D01*
X19355Y2646D01*
X19480Y2640D01*
X19541D01*
X19606Y2651D01*
X19688Y2662D01*
X19775Y2678D01*
X19868Y2706D01*
X19955Y2744D01*
X20032Y2793D01*
X20043Y2799D01*
X20065Y2820D01*
X20092Y2853D01*
X20130Y2897D01*
X20163Y2952D01*
X20196Y3017D01*
X20218Y3083D01*
X20223Y3159D01*
Y3164D01*
Y3181D01*
X20218Y3208D01*
X20212Y3241D01*
X20201Y3274D01*
X20190Y3312D01*
X20168Y3350D01*
X20141Y3388D01*
X20136Y3394D01*
X20125Y3405D01*
X20108Y3421D01*
X20081Y3443D01*
X20043Y3470D01*
X19994Y3497D01*
X19939Y3525D01*
X19868Y3552D01*
X19863D01*
X19841Y3563D01*
X19803Y3574D01*
X19775Y3585D01*
X19742Y3590D01*
X19704Y3601D01*
X19661Y3618D01*
X19611Y3629D01*
X19557Y3645D01*
X19491Y3661D01*
X19420Y3678D01*
X19344Y3700D01*
X19256Y3721D01*
X19251D01*
X19229Y3727D01*
X19196Y3738D01*
X19158Y3749D01*
X19109Y3765D01*
X19049Y3781D01*
X18989Y3803D01*
X18918Y3825D01*
X18776Y3880D01*
X18640Y3945D01*
X18569Y3978D01*
X18508Y4016D01*
X18449Y4054D01*
X18399Y4093D01*
X18394Y4098D01*
X18383Y4109D01*
X18367Y4125D01*
X18345Y4147D01*
X18317Y4180D01*
X18290Y4218D01*
X18257Y4256D01*
X18230Y4306D01*
X18165Y4420D01*
X18110Y4551D01*
X18088Y4622D01*
X18072Y4693D01*
X18061Y4775D01*
X18055Y4857D01*
Y4862D01*
Y4868D01*
Y4884D01*
Y4906D01*
X18066Y4961D01*
X18077Y5032D01*
X18094Y5114D01*
X18121Y5206D01*
X18159Y5305D01*
X18214Y5398D01*
Y5403D01*
X18219Y5408D01*
X18246Y5441D01*
X18279Y5485D01*
X18334Y5539D01*
X18399Y5599D01*
X18481Y5665D01*
X18574Y5725D01*
X18683Y5780D01*
X18689D01*
X18700Y5785D01*
X18716Y5791D01*
X18738Y5802D01*
X18771Y5813D01*
X18803Y5823D01*
X18847Y5834D01*
X18896Y5851D01*
X19005Y5872D01*
X19131Y5894D01*
X19273Y5911D01*
X19431Y5916D01*
X19497D01*
X19546Y5911D01*
D02*
G37*
G36*
X34692Y4371D02*
X36193Y2067D01*
X35205D01*
X34162Y3841D01*
X33545Y3208D01*
Y2067D01*
X32781D01*
Y5845D01*
X33545D01*
Y4164D01*
X35096Y5845D01*
X36123D01*
X34692Y4371D01*
D02*
G37*
G36*
X26879Y5911D02*
X26939Y5905D01*
X27010Y5900D01*
X27081Y5889D01*
X27163Y5878D01*
X27337Y5840D01*
X27425Y5813D01*
X27512Y5785D01*
X27599Y5747D01*
X27681Y5703D01*
X27758Y5654D01*
X27829Y5599D01*
X27834Y5594D01*
X27845Y5583D01*
X27861Y5567D01*
X27883Y5545D01*
X27911Y5512D01*
X27943Y5474D01*
X27976Y5430D01*
X28014Y5381D01*
X28047Y5321D01*
X28080Y5261D01*
X28113Y5190D01*
X28140Y5114D01*
X28167Y5037D01*
X28189Y4950D01*
X28205Y4862D01*
X28211Y4764D01*
X27447Y4737D01*
Y4742D01*
Y4748D01*
X27436Y4786D01*
X27425Y4835D01*
X27403Y4895D01*
X27376Y4966D01*
X27337Y5032D01*
X27288Y5097D01*
X27234Y5152D01*
X27228Y5157D01*
X27206Y5174D01*
X27168Y5195D01*
X27114Y5217D01*
X27048Y5239D01*
X26966Y5261D01*
X26868Y5277D01*
X26753Y5283D01*
X26698D01*
X26638Y5277D01*
X26568Y5266D01*
X26486Y5250D01*
X26398Y5223D01*
X26316Y5190D01*
X26240Y5141D01*
X26234Y5136D01*
X26223Y5125D01*
X26202Y5108D01*
X26180Y5081D01*
X26158Y5048D01*
X26136Y5004D01*
X26125Y4961D01*
X26120Y4906D01*
Y4901D01*
Y4884D01*
X26125Y4857D01*
X26136Y4830D01*
X26147Y4792D01*
X26164Y4753D01*
X26191Y4715D01*
X26229Y4677D01*
X26234Y4671D01*
X26262Y4655D01*
X26278Y4644D01*
X26305Y4633D01*
X26333Y4617D01*
X26371Y4600D01*
X26415Y4584D01*
X26464Y4562D01*
X26524Y4540D01*
X26584Y4518D01*
X26660Y4497D01*
X26742Y4475D01*
X26830Y4453D01*
X26928Y4426D01*
X26933D01*
X26955Y4420D01*
X26983Y4415D01*
X27021Y4404D01*
X27064Y4393D01*
X27119Y4377D01*
X27179Y4360D01*
X27239Y4344D01*
X27370Y4300D01*
X27507Y4256D01*
X27638Y4207D01*
X27692Y4180D01*
X27747Y4153D01*
X27752D01*
X27758Y4147D01*
X27790Y4125D01*
X27840Y4093D01*
X27900Y4049D01*
X27965Y3994D01*
X28036Y3929D01*
X28107Y3852D01*
X28167Y3765D01*
X28173Y3754D01*
X28189Y3721D01*
X28216Y3672D01*
X28244Y3601D01*
X28271Y3514D01*
X28298Y3410D01*
X28315Y3295D01*
X28320Y3164D01*
Y3159D01*
Y3148D01*
Y3132D01*
Y3110D01*
X28315Y3083D01*
X28309Y3044D01*
X28298Y2968D01*
X28277Y2870D01*
X28244Y2766D01*
X28195Y2662D01*
X28135Y2553D01*
Y2547D01*
X28124Y2542D01*
X28102Y2509D01*
X28058Y2455D01*
X28003Y2395D01*
X27933Y2324D01*
X27840Y2258D01*
X27741Y2193D01*
X27621Y2132D01*
X27616D01*
X27605Y2127D01*
X27588Y2121D01*
X27561Y2111D01*
X27528Y2100D01*
X27490Y2089D01*
X27447Y2078D01*
X27397Y2067D01*
X27337Y2051D01*
X27277Y2040D01*
X27135Y2018D01*
X26977Y2001D01*
X26802Y1996D01*
X26731D01*
X26682Y2001D01*
X26622Y2007D01*
X26557Y2012D01*
X26480Y2023D01*
X26398Y2040D01*
X26218Y2078D01*
X26125Y2105D01*
X26038Y2132D01*
X25945Y2171D01*
X25858Y2214D01*
X25776Y2263D01*
X25699Y2324D01*
X25694Y2329D01*
X25683Y2340D01*
X25661Y2356D01*
X25639Y2384D01*
X25607Y2422D01*
X25574Y2465D01*
X25536Y2515D01*
X25497Y2569D01*
X25459Y2635D01*
X25421Y2706D01*
X25383Y2788D01*
X25344Y2875D01*
X25317Y2968D01*
X25284Y3072D01*
X25262Y3181D01*
X25246Y3295D01*
X25989Y3366D01*
Y3361D01*
X25994Y3350D01*
Y3328D01*
X26000Y3306D01*
X26022Y3241D01*
X26049Y3159D01*
X26081Y3066D01*
X26131Y2973D01*
X26185Y2891D01*
X26256Y2815D01*
X26267Y2809D01*
X26294Y2788D01*
X26338Y2760D01*
X26404Y2728D01*
X26486Y2695D01*
X26578Y2668D01*
X26688Y2646D01*
X26813Y2640D01*
X26873D01*
X26939Y2651D01*
X27021Y2662D01*
X27108Y2678D01*
X27201Y2706D01*
X27288Y2744D01*
X27365Y2793D01*
X27376Y2799D01*
X27397Y2820D01*
X27425Y2853D01*
X27463Y2897D01*
X27496Y2952D01*
X27528Y3017D01*
X27550Y3083D01*
X27556Y3159D01*
Y3164D01*
Y3181D01*
X27550Y3208D01*
X27545Y3241D01*
X27534Y3274D01*
X27523Y3312D01*
X27501Y3350D01*
X27474Y3388D01*
X27468Y3394D01*
X27457Y3405D01*
X27441Y3421D01*
X27414Y3443D01*
X27376Y3470D01*
X27326Y3497D01*
X27272Y3525D01*
X27201Y3552D01*
X27195D01*
X27174Y3563D01*
X27135Y3574D01*
X27108Y3585D01*
X27075Y3590D01*
X27037Y3601D01*
X26993Y3618D01*
X26944Y3629D01*
X26890Y3645D01*
X26824Y3661D01*
X26753Y3678D01*
X26677Y3700D01*
X26589Y3721D01*
X26584D01*
X26562Y3727D01*
X26529Y3738D01*
X26491Y3749D01*
X26442Y3765D01*
X26382Y3781D01*
X26322Y3803D01*
X26251Y3825D01*
X26109Y3880D01*
X25972Y3945D01*
X25901Y3978D01*
X25841Y4016D01*
X25781Y4054D01*
X25732Y4093D01*
X25727Y4098D01*
X25716Y4109D01*
X25699Y4125D01*
X25677Y4147D01*
X25650Y4180D01*
X25623Y4218D01*
X25590Y4256D01*
X25563Y4306D01*
X25497Y4420D01*
X25443Y4551D01*
X25421Y4622D01*
X25405Y4693D01*
X25394Y4775D01*
X25388Y4857D01*
Y4862D01*
Y4868D01*
Y4884D01*
Y4906D01*
X25399Y4961D01*
X25410Y5032D01*
X25426Y5114D01*
X25454Y5206D01*
X25492Y5305D01*
X25547Y5398D01*
Y5403D01*
X25552Y5408D01*
X25579Y5441D01*
X25612Y5485D01*
X25667Y5539D01*
X25732Y5599D01*
X25814Y5665D01*
X25907Y5725D01*
X26016Y5780D01*
X26022D01*
X26032Y5785D01*
X26049Y5791D01*
X26071Y5802D01*
X26103Y5813D01*
X26136Y5823D01*
X26180Y5834D01*
X26229Y5851D01*
X26338Y5872D01*
X26464Y5894D01*
X26606Y5911D01*
X26764Y5916D01*
X26830D01*
X26879Y5911D01*
D02*
G37*
G36*
X51028Y2067D02*
X50264D01*
X48730Y4557D01*
Y2067D01*
X48025D01*
Y5845D01*
X48762D01*
X50324Y3301D01*
Y5845D01*
X51028D01*
Y2067D01*
D02*
G37*
G36*
X62674Y5911D02*
X62735Y5905D01*
X62800Y5894D01*
X62876Y5883D01*
X62958Y5867D01*
X63046Y5845D01*
X63139Y5818D01*
X63231Y5785D01*
X63330Y5742D01*
X63423Y5698D01*
X63510Y5643D01*
X63603Y5578D01*
X63685Y5507D01*
X63690D01*
X63696Y5496D01*
X63712Y5479D01*
X63728Y5463D01*
X63750Y5436D01*
X63772Y5403D01*
X63832Y5327D01*
X63892Y5228D01*
X63958Y5108D01*
X64018Y4972D01*
X64072Y4813D01*
X63319Y4633D01*
Y4639D01*
X63313Y4644D01*
Y4660D01*
X63302Y4682D01*
X63286Y4731D01*
X63259Y4797D01*
X63221Y4873D01*
X63171Y4950D01*
X63106Y5026D01*
X63035Y5092D01*
X63024Y5097D01*
X62997Y5119D01*
X62953Y5146D01*
X62893Y5179D01*
X62816Y5212D01*
X62729Y5239D01*
X62631Y5261D01*
X62522Y5266D01*
X62483D01*
X62451Y5261D01*
X62418Y5256D01*
X62374Y5250D01*
X62281Y5228D01*
X62172Y5190D01*
X62058Y5136D01*
X61997Y5103D01*
X61943Y5065D01*
X61888Y5015D01*
X61839Y4961D01*
Y4955D01*
X61828Y4944D01*
X61817Y4928D01*
X61801Y4901D01*
X61779Y4868D01*
X61757Y4830D01*
X61735Y4781D01*
X61713Y4726D01*
X61686Y4660D01*
X61664Y4589D01*
X61642Y4507D01*
X61621Y4420D01*
X61604Y4322D01*
X61593Y4218D01*
X61588Y4104D01*
X61582Y3978D01*
Y3972D01*
Y3945D01*
Y3907D01*
X61588Y3863D01*
Y3803D01*
X61599Y3732D01*
X61604Y3661D01*
X61615Y3579D01*
X61648Y3410D01*
X61692Y3241D01*
X61719Y3159D01*
X61757Y3083D01*
X61795Y3012D01*
X61839Y2952D01*
X61845Y2946D01*
X61850Y2940D01*
X61866Y2924D01*
X61888Y2902D01*
X61943Y2859D01*
X62019Y2804D01*
X62112Y2744D01*
X62227Y2700D01*
X62358Y2662D01*
X62429Y2657D01*
X62505Y2651D01*
X62533D01*
X62554Y2657D01*
X62614Y2662D01*
X62685Y2673D01*
X62762Y2700D01*
X62849Y2733D01*
X62937Y2777D01*
X63024Y2842D01*
X63035Y2853D01*
X63062Y2881D01*
X63100Y2924D01*
X63144Y2990D01*
X63199Y3077D01*
X63248Y3181D01*
X63297Y3306D01*
X63341Y3454D01*
X64083Y3224D01*
Y3219D01*
X64078Y3197D01*
X64067Y3164D01*
X64050Y3121D01*
X64029Y3072D01*
X64007Y3012D01*
X63979Y2946D01*
X63947Y2875D01*
X63870Y2728D01*
X63772Y2575D01*
X63652Y2427D01*
X63586Y2362D01*
X63515Y2302D01*
X63510Y2296D01*
X63499Y2291D01*
X63477Y2274D01*
X63444Y2253D01*
X63406Y2231D01*
X63357Y2209D01*
X63302Y2182D01*
X63242Y2154D01*
X63171Y2121D01*
X63095Y2094D01*
X63013Y2072D01*
X62926Y2051D01*
X62833Y2029D01*
X62729Y2012D01*
X62625Y2007D01*
X62511Y2001D01*
X62478D01*
X62440Y2007D01*
X62385Y2012D01*
X62325Y2018D01*
X62249Y2029D01*
X62167Y2045D01*
X62074Y2067D01*
X61981Y2094D01*
X61883Y2127D01*
X61779Y2171D01*
X61675Y2220D01*
X61572Y2274D01*
X61468Y2345D01*
X61370Y2422D01*
X61277Y2515D01*
X61271Y2520D01*
X61255Y2537D01*
X61233Y2569D01*
X61200Y2607D01*
X61168Y2662D01*
X61124Y2722D01*
X61080Y2799D01*
X61036Y2886D01*
X60993Y2979D01*
X60949Y3083D01*
X60905Y3203D01*
X60873Y3328D01*
X60840Y3459D01*
X60818Y3607D01*
X60802Y3760D01*
X60796Y3923D01*
Y3929D01*
Y3934D01*
Y3967D01*
X60802Y4016D01*
Y4082D01*
X60813Y4158D01*
X60824Y4251D01*
X60834Y4349D01*
X60856Y4464D01*
X60884Y4578D01*
X60916Y4699D01*
X60955Y4819D01*
X61004Y4944D01*
X61058Y5065D01*
X61124Y5179D01*
X61195Y5288D01*
X61282Y5392D01*
X61288Y5398D01*
X61304Y5414D01*
X61331Y5441D01*
X61370Y5474D01*
X61419Y5512D01*
X61479Y5556D01*
X61544Y5605D01*
X61626Y5654D01*
X61713Y5703D01*
X61806Y5752D01*
X61915Y5796D01*
X62025Y5834D01*
X62150Y5867D01*
X62276Y5894D01*
X62418Y5911D01*
X62560Y5916D01*
X62625D01*
X62674Y5911D01*
D02*
G37*
G36*
X67954D02*
X68014Y5905D01*
X68080Y5894D01*
X68156Y5883D01*
X68238Y5867D01*
X68326Y5845D01*
X68418Y5818D01*
X68511Y5785D01*
X68609Y5742D01*
X68702Y5698D01*
X68790Y5643D01*
X68883Y5578D01*
X68964Y5507D01*
X68970D01*
X68975Y5496D01*
X68992Y5479D01*
X69008Y5463D01*
X69030Y5436D01*
X69052Y5403D01*
X69112Y5327D01*
X69172Y5228D01*
X69237Y5108D01*
X69297Y4972D01*
X69352Y4813D01*
X68599Y4633D01*
Y4639D01*
X68593Y4644D01*
Y4660D01*
X68582Y4682D01*
X68566Y4731D01*
X68538Y4797D01*
X68500Y4873D01*
X68451Y4950D01*
X68386Y5026D01*
X68315Y5092D01*
X68304Y5097D01*
X68276Y5119D01*
X68233Y5146D01*
X68173Y5179D01*
X68096Y5212D01*
X68009Y5239D01*
X67911Y5261D01*
X67801Y5266D01*
X67763D01*
X67730Y5261D01*
X67698Y5256D01*
X67654Y5250D01*
X67561Y5228D01*
X67452Y5190D01*
X67337Y5136D01*
X67277Y5103D01*
X67223Y5065D01*
X67168Y5015D01*
X67119Y4961D01*
Y4955D01*
X67108Y4944D01*
X67097Y4928D01*
X67081Y4901D01*
X67059Y4868D01*
X67037Y4830D01*
X67015Y4781D01*
X66993Y4726D01*
X66966Y4660D01*
X66944Y4589D01*
X66922Y4507D01*
X66900Y4420D01*
X66884Y4322D01*
X66873Y4218D01*
X66868Y4104D01*
X66862Y3978D01*
Y3972D01*
Y3945D01*
Y3907D01*
X66868Y3863D01*
Y3803D01*
X66879Y3732D01*
X66884Y3661D01*
X66895Y3579D01*
X66928Y3410D01*
X66971Y3241D01*
X66999Y3159D01*
X67037Y3083D01*
X67075Y3012D01*
X67119Y2952D01*
X67124Y2946D01*
X67130Y2940D01*
X67146Y2924D01*
X67168Y2902D01*
X67223Y2859D01*
X67299Y2804D01*
X67392Y2744D01*
X67507Y2700D01*
X67638Y2662D01*
X67709Y2657D01*
X67785Y2651D01*
X67812D01*
X67834Y2657D01*
X67894Y2662D01*
X67965Y2673D01*
X68042Y2700D01*
X68129Y2733D01*
X68216Y2777D01*
X68304Y2842D01*
X68315Y2853D01*
X68342Y2881D01*
X68380Y2924D01*
X68424Y2990D01*
X68478Y3077D01*
X68528Y3181D01*
X68577Y3306D01*
X68620Y3454D01*
X69363Y3224D01*
Y3219D01*
X69358Y3197D01*
X69347Y3164D01*
X69330Y3121D01*
X69308Y3072D01*
X69287Y3012D01*
X69259Y2946D01*
X69226Y2875D01*
X69150Y2728D01*
X69052Y2575D01*
X68932Y2427D01*
X68866Y2362D01*
X68795Y2302D01*
X68790Y2296D01*
X68779Y2291D01*
X68757Y2274D01*
X68724Y2253D01*
X68686Y2231D01*
X68637Y2209D01*
X68582Y2182D01*
X68522Y2154D01*
X68451Y2121D01*
X68375Y2094D01*
X68293Y2072D01*
X68205Y2051D01*
X68113Y2029D01*
X68009Y2012D01*
X67905Y2007D01*
X67791Y2001D01*
X67758D01*
X67720Y2007D01*
X67665Y2012D01*
X67605Y2018D01*
X67528Y2029D01*
X67447Y2045D01*
X67354Y2067D01*
X67261Y2094D01*
X67163Y2127D01*
X67059Y2171D01*
X66955Y2220D01*
X66851Y2274D01*
X66748Y2345D01*
X66649Y2422D01*
X66557Y2515D01*
X66551Y2520D01*
X66535Y2537D01*
X66513Y2569D01*
X66480Y2607D01*
X66447Y2662D01*
X66404Y2722D01*
X66360Y2799D01*
X66316Y2886D01*
X66273Y2979D01*
X66229Y3083D01*
X66185Y3203D01*
X66153Y3328D01*
X66120Y3459D01*
X66098Y3607D01*
X66082Y3760D01*
X66076Y3923D01*
Y3929D01*
Y3934D01*
Y3967D01*
X66082Y4016D01*
Y4082D01*
X66092Y4158D01*
X66103Y4251D01*
X66114Y4349D01*
X66136Y4464D01*
X66163Y4578D01*
X66196Y4699D01*
X66234Y4819D01*
X66284Y4944D01*
X66338Y5065D01*
X66404Y5179D01*
X66475Y5288D01*
X66562Y5392D01*
X66567Y5398D01*
X66584Y5414D01*
X66611Y5441D01*
X66649Y5474D01*
X66698Y5512D01*
X66759Y5556D01*
X66824Y5605D01*
X66906Y5654D01*
X66993Y5703D01*
X67086Y5752D01*
X67195Y5796D01*
X67304Y5834D01*
X67430Y5867D01*
X67556Y5894D01*
X67698Y5911D01*
X67840Y5916D01*
X67905D01*
X67954Y5911D01*
D02*
G37*
G36*
X57733Y2067D02*
X56909D01*
X55555Y5845D01*
X56379D01*
X57340Y3050D01*
X58263Y5845D01*
X59076D01*
X57733Y2067D01*
D02*
G37*
G36*
X77755D02*
X77051D01*
X77045Y5037D01*
X76303Y2067D01*
X75565D01*
X74823Y5037D01*
Y2067D01*
X74119D01*
Y5845D01*
X75260D01*
X75937Y3263D01*
X76608Y5845D01*
X77755D01*
Y2067D01*
D02*
G37*
%LPC*%
G36*
X23111Y4966D02*
X22598Y3563D01*
X23641D01*
X23111Y4966D01*
D02*
G37*
G36*
X30444D02*
X29931Y3563D01*
X30974D01*
X30444Y4966D01*
D02*
G37*
G36*
X53513Y5266D02*
X53469D01*
X53436Y5261D01*
X53392Y5256D01*
X53349Y5250D01*
X53240Y5228D01*
X53119Y5185D01*
X53054Y5163D01*
X52988Y5130D01*
X52928Y5092D01*
X52863Y5048D01*
X52803Y4999D01*
X52748Y4939D01*
X52743Y4933D01*
X52737Y4922D01*
X52721Y4906D01*
X52705Y4879D01*
X52683Y4841D01*
X52661Y4802D01*
X52634Y4753D01*
X52606Y4693D01*
X52579Y4628D01*
X52552Y4557D01*
X52530Y4475D01*
X52508Y4387D01*
X52492Y4289D01*
X52475Y4185D01*
X52470Y4076D01*
X52464Y3956D01*
Y3951D01*
Y3929D01*
Y3896D01*
X52470Y3852D01*
X52475Y3798D01*
X52481Y3732D01*
X52492Y3667D01*
X52503Y3590D01*
X52535Y3432D01*
X52590Y3274D01*
X52623Y3192D01*
X52661Y3115D01*
X52710Y3044D01*
X52759Y2979D01*
X52765Y2973D01*
X52776Y2962D01*
X52792Y2946D01*
X52814Y2930D01*
X52841Y2902D01*
X52879Y2875D01*
X52917Y2842D01*
X52967Y2815D01*
X53070Y2749D01*
X53201Y2700D01*
X53272Y2678D01*
X53349Y2662D01*
X53431Y2651D01*
X53513Y2646D01*
X53556D01*
X53589Y2651D01*
X53627Y2657D01*
X53671Y2662D01*
X53775Y2689D01*
X53895Y2728D01*
X53955Y2755D01*
X54020Y2782D01*
X54080Y2820D01*
X54146Y2864D01*
X54206Y2913D01*
X54261Y2973D01*
X54266Y2979D01*
X54272Y2990D01*
X54288Y3006D01*
X54304Y3033D01*
X54332Y3072D01*
X54353Y3115D01*
X54381Y3164D01*
X54408Y3224D01*
X54435Y3290D01*
X54463Y3361D01*
X54490Y3443D01*
X54512Y3536D01*
X54528Y3629D01*
X54545Y3732D01*
X54550Y3847D01*
X54555Y3967D01*
Y3972D01*
Y3994D01*
Y4027D01*
X54550Y4076D01*
X54545Y4131D01*
X54539Y4191D01*
X54534Y4262D01*
X54517Y4333D01*
X54484Y4491D01*
X54435Y4655D01*
X54403Y4737D01*
X54364Y4808D01*
X54315Y4879D01*
X54266Y4944D01*
X54261Y4950D01*
X54255Y4961D01*
X54239Y4972D01*
X54217Y4993D01*
X54184Y5021D01*
X54151Y5048D01*
X54113Y5075D01*
X54064Y5108D01*
X54015Y5136D01*
X53955Y5163D01*
X53829Y5217D01*
X53758Y5239D01*
X53682Y5250D01*
X53600Y5261D01*
X53513Y5266D01*
D02*
G37*
G36*
X71700D02*
X71656D01*
X71623Y5261D01*
X71580Y5256D01*
X71536Y5250D01*
X71427Y5228D01*
X71307Y5185D01*
X71241Y5163D01*
X71176Y5130D01*
X71116Y5092D01*
X71050Y5048D01*
X70990Y4999D01*
X70935Y4939D01*
X70930Y4933D01*
X70925Y4922D01*
X70908Y4906D01*
X70892Y4879D01*
X70870Y4841D01*
X70848Y4802D01*
X70821Y4753D01*
X70793Y4693D01*
X70766Y4628D01*
X70739Y4557D01*
X70717Y4475D01*
X70695Y4387D01*
X70679Y4289D01*
X70662Y4185D01*
X70657Y4076D01*
X70652Y3956D01*
Y3951D01*
Y3929D01*
Y3896D01*
X70657Y3852D01*
X70662Y3798D01*
X70668Y3732D01*
X70679Y3667D01*
X70690Y3590D01*
X70723Y3432D01*
X70777Y3274D01*
X70810Y3192D01*
X70848Y3115D01*
X70897Y3044D01*
X70946Y2979D01*
X70952Y2973D01*
X70963Y2962D01*
X70979Y2946D01*
X71001Y2930D01*
X71028Y2902D01*
X71066Y2875D01*
X71105Y2842D01*
X71154Y2815D01*
X71258Y2749D01*
X71389Y2700D01*
X71460Y2678D01*
X71536Y2662D01*
X71618Y2651D01*
X71700Y2646D01*
X71744D01*
X71776Y2651D01*
X71815Y2657D01*
X71858Y2662D01*
X71962Y2689D01*
X72082Y2728D01*
X72142Y2755D01*
X72208Y2782D01*
X72268Y2820D01*
X72333Y2864D01*
X72393Y2913D01*
X72448Y2973D01*
X72453Y2979D01*
X72459Y2990D01*
X72475Y3006D01*
X72492Y3033D01*
X72519Y3072D01*
X72541Y3115D01*
X72568Y3164D01*
X72595Y3224D01*
X72623Y3290D01*
X72650Y3361D01*
X72677Y3443D01*
X72699Y3536D01*
X72715Y3629D01*
X72732Y3732D01*
X72737Y3847D01*
X72743Y3967D01*
Y3972D01*
Y3994D01*
Y4027D01*
X72737Y4076D01*
X72732Y4131D01*
X72726Y4191D01*
X72721Y4262D01*
X72704Y4333D01*
X72672Y4491D01*
X72623Y4655D01*
X72590Y4737D01*
X72552Y4808D01*
X72502Y4879D01*
X72453Y4944D01*
X72448Y4950D01*
X72442Y4961D01*
X72426Y4972D01*
X72404Y4993D01*
X72371Y5021D01*
X72339Y5048D01*
X72300Y5075D01*
X72251Y5108D01*
X72202Y5136D01*
X72142Y5163D01*
X72017Y5217D01*
X71946Y5239D01*
X71869Y5250D01*
X71787Y5261D01*
X71700Y5266D01*
D02*
G37*
G36*
X38066Y4966D02*
X37553Y3563D01*
X38596D01*
X38066Y4966D01*
D02*
G37*
G36*
X42041Y5206D02*
X41168D01*
Y4245D01*
X41910D01*
X42019Y4251D01*
X42134Y4256D01*
X42249Y4262D01*
X42298Y4267D01*
X42341Y4273D01*
X42385Y4284D01*
X42412Y4289D01*
X42418D01*
X42434Y4300D01*
X42461Y4311D01*
X42489Y4327D01*
X42560Y4377D01*
X42593Y4409D01*
X42625Y4448D01*
X42631Y4453D01*
X42636Y4469D01*
X42653Y4491D01*
X42669Y4524D01*
X42680Y4568D01*
X42696Y4617D01*
X42702Y4671D01*
X42707Y4731D01*
Y4742D01*
Y4764D01*
X42702Y4797D01*
X42696Y4841D01*
X42680Y4890D01*
X42664Y4939D01*
X42636Y4993D01*
X42603Y5037D01*
X42598Y5043D01*
X42587Y5059D01*
X42560Y5075D01*
X42527Y5103D01*
X42489Y5130D01*
X42440Y5152D01*
X42380Y5174D01*
X42314Y5190D01*
X42309D01*
X42292Y5195D01*
X42259D01*
X42210Y5201D01*
X42090D01*
X42041Y5206D01*
D02*
G37*
G36*
X45688Y4966D02*
X45175Y3563D01*
X46218D01*
X45688Y4966D01*
D02*
G37*
G36*
X40370Y-1328D02*
X40349D01*
X40321Y-1333D01*
X40294Y-1339D01*
X40256Y-1350D01*
X40218Y-1366D01*
X40174Y-1388D01*
X40136Y-1415D01*
X40130Y-1421D01*
X40119Y-1432D01*
X40103Y-1454D01*
X40081Y-1481D01*
X40054Y-1525D01*
X40032Y-1574D01*
X40005Y-1639D01*
X39983Y-1716D01*
Y-1721D01*
X39977Y-1727D01*
Y-1748D01*
X39972Y-1770D01*
X39966Y-1803D01*
X39961Y-1841D01*
X39955Y-1885D01*
X39950Y-1939D01*
X39939Y-2005D01*
X39934Y-2071D01*
X39928Y-2152D01*
X39923Y-2234D01*
X39917Y-2333D01*
Y-2431D01*
X39912Y-2546D01*
Y-2666D01*
Y-2671D01*
Y-2693D01*
Y-2731D01*
Y-2775D01*
Y-2829D01*
X39917Y-2890D01*
Y-2960D01*
X39923Y-3032D01*
X39928Y-3184D01*
X39939Y-3337D01*
X39944Y-3408D01*
X39955Y-3474D01*
X39966Y-3534D01*
X39977Y-3588D01*
X39983Y-3599D01*
X39988Y-3627D01*
X40005Y-3670D01*
X40021Y-3720D01*
X40048Y-3774D01*
X40075Y-3829D01*
X40108Y-3878D01*
X40141Y-3916D01*
X40146Y-3921D01*
X40157Y-3927D01*
X40179Y-3943D01*
X40207Y-3954D01*
X40239Y-3971D01*
X40278Y-3987D01*
X40321Y-3993D01*
X40370Y-3998D01*
X40392D01*
X40420Y-3993D01*
X40447Y-3987D01*
X40485Y-3976D01*
X40523Y-3965D01*
X40562Y-3943D01*
X40600Y-3916D01*
X40605Y-3911D01*
X40616Y-3900D01*
X40638Y-3878D01*
X40660Y-3845D01*
X40682Y-3807D01*
X40709Y-3752D01*
X40736Y-3692D01*
X40758Y-3616D01*
Y-3610D01*
X40764Y-3605D01*
Y-3583D01*
X40769Y-3561D01*
X40774Y-3528D01*
X40780Y-3490D01*
X40791Y-3447D01*
X40796Y-3392D01*
X40802Y-3332D01*
X40813Y-3261D01*
X40818Y-3184D01*
X40824Y-3097D01*
X40829Y-3004D01*
Y-2901D01*
X40835Y-2786D01*
Y-2666D01*
Y-2660D01*
Y-2638D01*
Y-2600D01*
Y-2557D01*
Y-2502D01*
X40829Y-2442D01*
Y-2371D01*
X40824Y-2300D01*
X40818Y-2147D01*
X40807Y-2000D01*
X40796Y-1929D01*
X40785Y-1858D01*
X40774Y-1798D01*
X40764Y-1748D01*
Y-1743D01*
X40758Y-1737D01*
X40753Y-1710D01*
X40736Y-1667D01*
X40720Y-1612D01*
X40692Y-1557D01*
X40665Y-1503D01*
X40633Y-1454D01*
X40600Y-1415D01*
X40594Y-1410D01*
X40583Y-1399D01*
X40562Y-1388D01*
X40534Y-1372D01*
X40501Y-1355D01*
X40463Y-1339D01*
X40420Y-1333D01*
X40370Y-1328D01*
D02*
G37*
G36*
X22167D02*
X22145D01*
X22118Y-1333D01*
X22090Y-1339D01*
X22052Y-1350D01*
X22014Y-1366D01*
X21970Y-1388D01*
X21932Y-1415D01*
X21926Y-1421D01*
X21916Y-1432D01*
X21899Y-1454D01*
X21877Y-1481D01*
X21850Y-1525D01*
X21828Y-1574D01*
X21801Y-1639D01*
X21779Y-1716D01*
Y-1721D01*
X21774Y-1727D01*
Y-1748D01*
X21768Y-1770D01*
X21763Y-1803D01*
X21757Y-1841D01*
X21752Y-1885D01*
X21746Y-1939D01*
X21735Y-2005D01*
X21730Y-2071D01*
X21724Y-2152D01*
X21719Y-2234D01*
X21714Y-2333D01*
Y-2431D01*
X21708Y-2546D01*
Y-2666D01*
Y-2671D01*
Y-2693D01*
Y-2731D01*
Y-2775D01*
Y-2829D01*
X21714Y-2890D01*
Y-2960D01*
X21719Y-3032D01*
X21724Y-3184D01*
X21735Y-3337D01*
X21741Y-3408D01*
X21752Y-3474D01*
X21763Y-3534D01*
X21774Y-3588D01*
X21779Y-3599D01*
X21784Y-3627D01*
X21801Y-3670D01*
X21817Y-3720D01*
X21845Y-3774D01*
X21872Y-3829D01*
X21905Y-3878D01*
X21937Y-3916D01*
X21943Y-3921D01*
X21954Y-3927D01*
X21976Y-3943D01*
X22003Y-3954D01*
X22036Y-3971D01*
X22074Y-3987D01*
X22118Y-3993D01*
X22167Y-3998D01*
X22189D01*
X22216Y-3993D01*
X22243Y-3987D01*
X22281Y-3976D01*
X22320Y-3965D01*
X22358Y-3943D01*
X22396Y-3916D01*
X22401Y-3911D01*
X22412Y-3900D01*
X22434Y-3878D01*
X22456Y-3845D01*
X22478Y-3807D01*
X22505Y-3752D01*
X22533Y-3692D01*
X22554Y-3616D01*
Y-3610D01*
X22560Y-3605D01*
Y-3583D01*
X22565Y-3561D01*
X22571Y-3528D01*
X22576Y-3490D01*
X22587Y-3447D01*
X22593Y-3392D01*
X22598Y-3332D01*
X22609Y-3261D01*
X22614Y-3184D01*
X22620Y-3097D01*
X22625Y-3004D01*
Y-2901D01*
X22631Y-2786D01*
Y-2666D01*
Y-2660D01*
Y-2638D01*
Y-2600D01*
Y-2557D01*
Y-2502D01*
X22625Y-2442D01*
Y-2371D01*
X22620Y-2300D01*
X22614Y-2147D01*
X22603Y-2000D01*
X22593Y-1929D01*
X22582Y-1858D01*
X22571Y-1798D01*
X22560Y-1748D01*
Y-1743D01*
X22554Y-1737D01*
X22549Y-1710D01*
X22533Y-1667D01*
X22516Y-1612D01*
X22489Y-1557D01*
X22462Y-1503D01*
X22429Y-1454D01*
X22396Y-1415D01*
X22391Y-1410D01*
X22380Y-1399D01*
X22358Y-1388D01*
X22331Y-1372D01*
X22298Y-1355D01*
X22260Y-1339D01*
X22216Y-1333D01*
X22167Y-1328D01*
D02*
G37*
G36*
X32737D02*
X32715D01*
X32688Y-1333D01*
X32661Y-1339D01*
X32623Y-1350D01*
X32584Y-1366D01*
X32541Y-1388D01*
X32502Y-1415D01*
X32497Y-1421D01*
X32486Y-1432D01*
X32470Y-1454D01*
X32448Y-1481D01*
X32421Y-1525D01*
X32399Y-1574D01*
X32372Y-1639D01*
X32350Y-1716D01*
Y-1721D01*
X32344Y-1727D01*
Y-1748D01*
X32339Y-1770D01*
X32333Y-1803D01*
X32328Y-1841D01*
X32322Y-1885D01*
X32317Y-1939D01*
X32306Y-2005D01*
X32300Y-2071D01*
X32295Y-2152D01*
X32290Y-2234D01*
X32284Y-2333D01*
Y-2431D01*
X32279Y-2546D01*
Y-2666D01*
Y-2671D01*
Y-2693D01*
Y-2731D01*
Y-2775D01*
Y-2829D01*
X32284Y-2890D01*
Y-2960D01*
X32290Y-3032D01*
X32295Y-3184D01*
X32306Y-3337D01*
X32311Y-3408D01*
X32322Y-3474D01*
X32333Y-3534D01*
X32344Y-3588D01*
X32350Y-3599D01*
X32355Y-3627D01*
X32372Y-3670D01*
X32388Y-3720D01*
X32415Y-3774D01*
X32443Y-3829D01*
X32475Y-3878D01*
X32508Y-3916D01*
X32513Y-3921D01*
X32524Y-3927D01*
X32546Y-3943D01*
X32574Y-3954D01*
X32606Y-3971D01*
X32645Y-3987D01*
X32688Y-3993D01*
X32737Y-3998D01*
X32759D01*
X32786Y-3993D01*
X32814Y-3987D01*
X32852Y-3976D01*
X32890Y-3965D01*
X32928Y-3943D01*
X32967Y-3916D01*
X32972Y-3911D01*
X32983Y-3900D01*
X33005Y-3878D01*
X33027Y-3845D01*
X33048Y-3807D01*
X33076Y-3752D01*
X33103Y-3692D01*
X33125Y-3616D01*
Y-3610D01*
X33130Y-3605D01*
Y-3583D01*
X33136Y-3561D01*
X33141Y-3528D01*
X33147Y-3490D01*
X33158Y-3447D01*
X33163Y-3392D01*
X33169Y-3332D01*
X33180Y-3261D01*
X33185Y-3184D01*
X33191Y-3097D01*
X33196Y-3004D01*
Y-2901D01*
X33201Y-2786D01*
Y-2666D01*
Y-2660D01*
Y-2638D01*
Y-2600D01*
Y-2557D01*
Y-2502D01*
X33196Y-2442D01*
Y-2371D01*
X33191Y-2300D01*
X33185Y-2147D01*
X33174Y-2000D01*
X33163Y-1929D01*
X33152Y-1858D01*
X33141Y-1798D01*
X33130Y-1748D01*
Y-1743D01*
X33125Y-1737D01*
X33119Y-1710D01*
X33103Y-1667D01*
X33087Y-1612D01*
X33059Y-1557D01*
X33032Y-1503D01*
X32999Y-1454D01*
X32967Y-1415D01*
X32961Y-1410D01*
X32950Y-1399D01*
X32928Y-1388D01*
X32901Y-1372D01*
X32868Y-1355D01*
X32830Y-1339D01*
X32786Y-1333D01*
X32737Y-1328D01*
D02*
G37*
G36*
X27938D02*
X27905D01*
X27867Y-1339D01*
X27823Y-1350D01*
X27769Y-1366D01*
X27714Y-1399D01*
X27659Y-1437D01*
X27605Y-1492D01*
X27599Y-1497D01*
X27583Y-1525D01*
X27561Y-1563D01*
X27539Y-1617D01*
X27518Y-1688D01*
X27496Y-1781D01*
X27479Y-1890D01*
X27474Y-2016D01*
Y-2021D01*
Y-2032D01*
Y-2049D01*
Y-2076D01*
X27479Y-2142D01*
X27490Y-2218D01*
X27507Y-2311D01*
X27534Y-2398D01*
X27567Y-2486D01*
X27616Y-2557D01*
X27621Y-2562D01*
X27643Y-2584D01*
X27670Y-2611D01*
X27714Y-2638D01*
X27769Y-2671D01*
X27829Y-2699D01*
X27900Y-2720D01*
X27976Y-2726D01*
X27987D01*
X28009Y-2720D01*
X28047Y-2715D01*
X28096Y-2704D01*
X28151Y-2688D01*
X28211Y-2655D01*
X28271Y-2617D01*
X28326Y-2562D01*
X28331Y-2557D01*
X28347Y-2529D01*
X28375Y-2491D01*
X28402Y-2442D01*
X28424Y-2371D01*
X28451Y-2289D01*
X28468Y-2191D01*
X28473Y-2076D01*
Y-2071D01*
Y-2060D01*
Y-2043D01*
Y-2016D01*
X28462Y-1956D01*
X28451Y-1874D01*
X28435Y-1787D01*
X28402Y-1694D01*
X28364Y-1606D01*
X28309Y-1525D01*
X28304Y-1514D01*
X28282Y-1492D01*
X28249Y-1464D01*
X28205Y-1426D01*
X28151Y-1388D01*
X28085Y-1361D01*
X28014Y-1339D01*
X27938Y-1328D01*
D02*
G37*
G36*
X161620Y2449D02*
X161146D01*
Y2292D01*
X160831D01*
Y2134D01*
X160515D01*
Y1976D01*
X160357D01*
Y1818D01*
X160042D01*
Y1660D01*
X159726D01*
Y1502D01*
X159410D01*
Y1344D01*
X159252D01*
Y1187D01*
X158937D01*
Y1029D01*
X158621D01*
Y871D01*
X158305D01*
Y713D01*
X158147D01*
Y555D01*
X157832D01*
Y397D01*
X157516D01*
Y240D01*
X157200D01*
Y82D01*
Y-76D01*
Y-234D01*
Y-392D01*
Y-550D01*
Y-708D01*
Y-865D01*
Y-1023D01*
Y-1181D01*
X157358D01*
Y-1339D01*
X157516D01*
Y-1497D01*
X157832D01*
Y-1655D01*
X158147D01*
Y-1812D01*
X158305D01*
Y-1970D01*
X158621D01*
Y-2128D01*
X158937D01*
Y-2286D01*
X159252D01*
Y-2444D01*
X159410D01*
Y-2602D01*
X159726D01*
Y-2760D01*
X160042D01*
Y-2917D01*
X160357D01*
Y-3075D01*
X160515D01*
Y-3233D01*
X160831D01*
Y-3391D01*
X161146D01*
Y-3549D01*
X161304D01*
Y-3707D01*
X161620D01*
Y-3864D01*
X161936D01*
Y-4022D01*
X162251D01*
Y-4180D01*
X162409D01*
Y-4338D01*
X162251D01*
Y-4496D01*
X161936D01*
Y-4654D01*
X161620D01*
Y-4812D01*
X160989D01*
Y-4654D01*
X160673D01*
Y-4496D01*
X160515D01*
Y-4338D01*
X160199D01*
Y-4180D01*
X159884D01*
Y-4022D01*
X159726D01*
Y-3864D01*
X159410D01*
Y-3707D01*
X159095D01*
Y-3549D01*
X158779D01*
Y-3391D01*
X158621D01*
Y-3233D01*
X158305D01*
Y-3075D01*
X157990D01*
Y-2917D01*
X157832D01*
Y-2760D01*
X157516D01*
Y-2602D01*
X157200D01*
Y-2760D01*
Y-2917D01*
Y-3075D01*
Y-3233D01*
Y-3391D01*
Y-3549D01*
Y-3707D01*
Y-3864D01*
Y-4022D01*
Y-4180D01*
Y-4338D01*
Y-4496D01*
Y-4654D01*
Y-4812D01*
X157358D01*
Y-4969D01*
X157674D01*
Y-5127D01*
X157832D01*
Y-5285D01*
X158147D01*
Y-5443D01*
X158463D01*
Y-5601D01*
X158621D01*
Y-5759D01*
X158937D01*
Y-5916D01*
X159252D01*
Y-6074D01*
X159568D01*
Y-6232D01*
X159726D01*
Y-6390D01*
X160042D01*
Y-6548D01*
X160357D01*
Y-6706D01*
X160515D01*
Y-6864D01*
X160831D01*
Y-7021D01*
X161146D01*
Y-7179D01*
X161462D01*
Y-7021D01*
X161778D01*
Y-6864D01*
X162094D01*
Y-6706D01*
X162409D01*
Y-6548D01*
X162567D01*
Y-6390D01*
X162883D01*
Y-6232D01*
X163198D01*
Y-6074D01*
X163514D01*
Y-5916D01*
X163672D01*
Y-5759D01*
X163988D01*
Y-5601D01*
X164303D01*
Y-5443D01*
X164619D01*
Y-5285D01*
X164777D01*
Y-5127D01*
X165093D01*
Y-4969D01*
X165408D01*
Y-4812D01*
X165566D01*
Y-4654D01*
Y-4496D01*
Y-4338D01*
Y-4180D01*
Y-4022D01*
Y-3864D01*
Y-3707D01*
Y-3549D01*
X165408D01*
Y-3391D01*
X165250D01*
Y-3233D01*
X164935D01*
Y-3075D01*
X164619D01*
Y-2917D01*
X164303D01*
Y-2760D01*
X164146D01*
Y-2602D01*
X163830D01*
Y-2444D01*
X163514D01*
Y-2286D01*
X163356D01*
Y-2128D01*
X163041D01*
Y-1970D01*
X162725D01*
Y-1812D01*
X162409D01*
Y-1655D01*
X162251D01*
Y-1497D01*
X161936D01*
Y-1339D01*
X161620D01*
Y-1181D01*
X161304D01*
Y-1023D01*
X161146D01*
Y-865D01*
X160831D01*
Y-708D01*
X160515D01*
Y-550D01*
X160357D01*
Y-392D01*
Y-234D01*
X160673D01*
Y-76D01*
X160989D01*
Y82D01*
X161304D01*
Y240D01*
X161462D01*
Y82D01*
X161778D01*
Y-76D01*
X161936D01*
Y-234D01*
X162251D01*
Y-392D01*
X162567D01*
Y-550D01*
X162883D01*
Y-708D01*
X163041D01*
Y-865D01*
X163356D01*
Y-1023D01*
X163672D01*
Y-1181D01*
X163830D01*
Y-1339D01*
X164146D01*
Y-1497D01*
X164461D01*
Y-1655D01*
X164777D01*
Y-1812D01*
X164935D01*
Y-1970D01*
X165250D01*
Y-2128D01*
X165566D01*
Y-1970D01*
Y-1812D01*
Y-1655D01*
Y-1497D01*
Y-1339D01*
Y-1181D01*
Y-1023D01*
Y-865D01*
Y-708D01*
Y-550D01*
Y-392D01*
Y-234D01*
Y-76D01*
Y82D01*
X165408D01*
Y240D01*
X165093D01*
Y397D01*
X164935D01*
Y555D01*
X164619D01*
Y713D01*
X164303D01*
Y871D01*
X163988D01*
Y1029D01*
X163830D01*
Y1187D01*
X163514D01*
Y1344D01*
X163198D01*
Y1502D01*
X163041D01*
Y1660D01*
X162725D01*
Y1818D01*
X162409D01*
Y1976D01*
X162094D01*
Y2134D01*
X161936D01*
Y2292D01*
X161620D01*
Y2449D01*
D02*
G37*
G36*
X161778Y6711D02*
X161146D01*
Y6553D01*
X160831D01*
Y6395D01*
X160515D01*
Y6238D01*
X160357D01*
Y6080D01*
X160042D01*
Y5922D01*
X159726D01*
Y5764D01*
X159410D01*
Y5606D01*
X159252D01*
Y5448D01*
X158937D01*
Y5291D01*
X158621D01*
Y5133D01*
X158305D01*
Y4975D01*
X158147D01*
Y4817D01*
X157832D01*
Y4659D01*
X157516D01*
Y4501D01*
X157358D01*
Y4343D01*
X157200D01*
Y4186D01*
Y4028D01*
Y3870D01*
Y3712D01*
Y3554D01*
Y3396D01*
Y3238D01*
Y3081D01*
Y2923D01*
Y2765D01*
Y2607D01*
Y2449D01*
X157358D01*
Y2607D01*
X157674D01*
Y2765D01*
X157990D01*
Y2923D01*
X158147D01*
Y3081D01*
X158463D01*
Y3238D01*
X158779D01*
Y3396D01*
X159095D01*
Y3554D01*
X159252D01*
Y3712D01*
X159568D01*
Y3870D01*
X159884D01*
Y4028D01*
X160199D01*
Y4186D01*
X160357D01*
Y4343D01*
X160673D01*
Y4501D01*
X160989D01*
Y4659D01*
X161146D01*
Y4817D01*
X161620D01*
Y4659D01*
X161778D01*
Y4501D01*
X162094D01*
Y4343D01*
X162409D01*
Y4186D01*
X162725D01*
Y4028D01*
X162883D01*
Y3870D01*
X163198D01*
Y3712D01*
X163514D01*
Y3554D01*
X163672D01*
Y3396D01*
X163988D01*
Y3238D01*
X164303D01*
Y3081D01*
X164619D01*
Y2923D01*
X164777D01*
Y2765D01*
X165093D01*
Y2607D01*
X165408D01*
Y2449D01*
X165566D01*
Y2607D01*
Y2765D01*
Y2923D01*
Y3081D01*
Y3238D01*
Y3396D01*
Y3554D01*
Y3712D01*
Y3870D01*
Y4028D01*
Y4186D01*
Y4343D01*
Y4501D01*
X165250D01*
Y4659D01*
X164935D01*
Y4817D01*
X164619D01*
Y4975D01*
X164461D01*
Y5133D01*
X164146D01*
Y5291D01*
X163830D01*
Y5448D01*
X163672D01*
Y5606D01*
X163356D01*
Y5764D01*
X163041D01*
Y5922D01*
X162725D01*
Y6080D01*
X162567D01*
Y6238D01*
X162251D01*
Y6395D01*
X161936D01*
Y6553D01*
X161778D01*
Y6711D01*
D02*
G37*
G36*
X155148Y-1181D02*
X154991D01*
Y-1339D01*
X154675D01*
Y-1497D01*
X154359D01*
Y-1655D01*
X154201D01*
Y-1812D01*
X153886D01*
Y-1970D01*
X153570D01*
Y-2128D01*
X153254D01*
Y-2286D01*
Y-2444D01*
Y-2602D01*
Y-2760D01*
Y-2917D01*
Y-3075D01*
Y-3233D01*
Y-3391D01*
Y-3549D01*
Y-3707D01*
Y-3864D01*
Y-4022D01*
Y-4180D01*
Y-4338D01*
Y-4496D01*
Y-4654D01*
Y-4812D01*
Y-4969D01*
Y-5127D01*
Y-5285D01*
Y-5443D01*
Y-5601D01*
Y-5759D01*
Y-5916D01*
Y-6074D01*
Y-6232D01*
Y-6390D01*
Y-6548D01*
Y-6706D01*
Y-6864D01*
Y-7021D01*
Y-7179D01*
X153570D01*
Y-7337D01*
X153886D01*
Y-7495D01*
X154043D01*
Y-7653D01*
X154359D01*
Y-7811D01*
X154675D01*
Y-7968D01*
X154833D01*
Y-8126D01*
X155148D01*
Y-8284D01*
X155464D01*
Y-8442D01*
X155780D01*
Y-8600D01*
X155938D01*
Y-8758D01*
X156253D01*
Y-8916D01*
X156569D01*
Y-9073D01*
X156885D01*
Y-9231D01*
X157043D01*
Y-9389D01*
X157674D01*
Y-9231D01*
X157990D01*
Y-9073D01*
X158147D01*
Y-8916D01*
X158463D01*
Y-8758D01*
X158779D01*
Y-8600D01*
X159095D01*
Y-8442D01*
X159252D01*
Y-8284D01*
X158937D01*
Y-8126D01*
X158779D01*
Y-7968D01*
X158463D01*
Y-7811D01*
X158147D01*
Y-7653D01*
X157832D01*
Y-7495D01*
X157674D01*
Y-7337D01*
X157358D01*
Y-7179D01*
X157043D01*
Y-7021D01*
X156727D01*
Y-6864D01*
X156569D01*
Y-6706D01*
X156253D01*
Y-6548D01*
X155938D01*
Y-6390D01*
X155622D01*
Y-6232D01*
X155464D01*
Y-6074D01*
X155148D01*
Y-5916D01*
Y-5759D01*
Y-5601D01*
Y-5443D01*
Y-5285D01*
Y-5127D01*
Y-4969D01*
Y-4812D01*
Y-4654D01*
Y-4496D01*
Y-4338D01*
Y-4180D01*
Y-4022D01*
Y-3864D01*
Y-3707D01*
Y-3549D01*
Y-3391D01*
Y-3233D01*
Y-3075D01*
Y-2917D01*
Y-2760D01*
Y-2602D01*
Y-2444D01*
Y-2286D01*
Y-2128D01*
Y-1970D01*
Y-1812D01*
Y-1655D01*
Y-1497D01*
Y-1339D01*
Y-1181D01*
D02*
G37*
G36*
X167776D02*
X167618D01*
Y-1339D01*
Y-1497D01*
Y-1655D01*
Y-1812D01*
Y-1970D01*
Y-2128D01*
Y-2286D01*
Y-2444D01*
Y-2602D01*
Y-2760D01*
Y-2917D01*
Y-3075D01*
Y-3233D01*
Y-3391D01*
Y-3549D01*
Y-3707D01*
Y-3864D01*
Y-4022D01*
Y-4180D01*
Y-4338D01*
Y-4496D01*
Y-4654D01*
Y-4812D01*
Y-4969D01*
Y-5127D01*
Y-5285D01*
Y-5443D01*
Y-5601D01*
Y-5759D01*
Y-5916D01*
Y-6074D01*
X167302D01*
Y-6232D01*
X167145D01*
Y-6390D01*
X166829D01*
Y-6548D01*
X166513D01*
Y-6706D01*
X166355D01*
Y-6864D01*
X166040D01*
Y-7021D01*
X165724D01*
Y-7179D01*
X165408D01*
Y-7337D01*
X165093D01*
Y-7495D01*
X164935D01*
Y-7653D01*
X164619D01*
Y-7811D01*
X164303D01*
Y-7968D01*
X163988D01*
Y-8126D01*
X163830D01*
Y-8284D01*
X163514D01*
Y-8442D01*
X163672D01*
Y-8600D01*
X163988D01*
Y-8758D01*
X164303D01*
Y-8916D01*
X164461D01*
Y-9073D01*
X164777D01*
Y-9231D01*
X165093D01*
Y-9389D01*
X165724D01*
Y-9231D01*
X165882D01*
Y-9073D01*
X166198D01*
Y-8916D01*
X166513D01*
Y-8758D01*
X166829D01*
Y-8600D01*
X166987D01*
Y-8442D01*
X167302D01*
Y-8284D01*
X167618D01*
Y-8126D01*
X167934D01*
Y-7968D01*
X168092D01*
Y-7811D01*
X168407D01*
Y-7653D01*
X168723D01*
Y-7495D01*
X169039D01*
Y-7337D01*
X169197D01*
Y-7179D01*
X169512D01*
Y-7021D01*
Y-6864D01*
Y-6706D01*
Y-6548D01*
Y-6390D01*
Y-6232D01*
Y-6074D01*
Y-5916D01*
Y-5759D01*
Y-5601D01*
Y-5443D01*
Y-5285D01*
Y-5127D01*
Y-4969D01*
Y-4812D01*
Y-4654D01*
Y-4496D01*
Y-4338D01*
Y-4180D01*
Y-4022D01*
Y-3864D01*
Y-3707D01*
Y-3549D01*
Y-3391D01*
Y-3233D01*
Y-3075D01*
Y-2917D01*
Y-2760D01*
Y-2602D01*
Y-2444D01*
Y-2286D01*
X169354D01*
Y-2128D01*
X169197D01*
Y-1970D01*
X168881D01*
Y-1812D01*
X168565D01*
Y-1655D01*
X168249D01*
Y-1497D01*
X168092D01*
Y-1339D01*
X167776D01*
Y-1181D01*
D02*
G37*
%LPD*%
D25*
X93799Y20079D02*
G03*
X93799Y20079I-787J0D01*
G01*
D31*
X78051Y65748D02*
X104429D01*
X78051Y39370D02*
X104429D01*
X78051D02*
Y65748D01*
X104429Y39370D02*
Y65748D01*
X84350Y23228D02*
X96161D01*
X84350Y14567D02*
X96161D01*
Y23228D01*
X84350Y14567D02*
Y23228D01*
X120374Y38287D02*
X124311D01*
X120374Y45374D02*
X124311D01*
X41837Y72542D02*
Y77266D01*
X45472Y77264D02*
X48622D01*
X45472Y72539D02*
X48622D01*
X51181Y18996D02*
X54331D01*
X51181Y23720D02*
X54331D01*
X47546Y18998D02*
Y23723D01*
Y11124D02*
Y15849D01*
X51181Y15846D02*
X54331D01*
X51181Y11122D02*
X54331D01*
D38*
X101673Y43307D02*
G03*
X101673Y43307I-1181J0D01*
G01*
D39*
X108858Y38976D02*
G03*
X108858Y38976I-492J0D01*
G01*
X96752Y25886D02*
G03*
X96752Y25886I-492J0D01*
G01*
D40*
X35335Y38458D02*
Y40758D01*
X59083Y38458D02*
Y40758D01*
X35335Y26958D02*
Y29258D01*
Y40758D02*
X58957D01*
X59083Y26958D02*
Y29258D01*
X35335Y26958D02*
X58957D01*
X150787Y22153D02*
X153937D01*
X151152Y22142D02*
X151162Y22153D01*
X148425Y37653D02*
Y39567D01*
Y37653D02*
X156299D01*
Y39567D01*
X164173Y21063D02*
Y39567D01*
X140551Y21063D02*
Y39567D01*
X164173D01*
X140551Y21063D02*
X150787D01*
Y22142D01*
X153937Y21073D02*
X164144D01*
X153937D02*
Y22153D01*
X179331D02*
X182480D01*
X179695Y22142D02*
X179706Y22153D01*
X176969Y37653D02*
Y39567D01*
Y37653D02*
X184843D01*
Y39567D01*
X192717Y21063D02*
Y39567D01*
X169095Y21063D02*
Y39567D01*
X192717D01*
X169095Y21063D02*
X179331D01*
Y22142D01*
X182480Y21073D02*
X192687D01*
X182480D02*
Y22153D01*
X179331Y59554D02*
X182480D01*
X179695Y59544D02*
X179706Y59554D01*
X176969Y75054D02*
Y76968D01*
Y75054D02*
X184843D01*
Y76968D01*
X192717Y58465D02*
Y76968D01*
X169095Y58465D02*
Y76968D01*
X192717D01*
X169095Y58465D02*
X179331D01*
Y59544D01*
X182480Y58475D02*
X192687D01*
X182480D02*
Y59554D01*
X150787D02*
X153937D01*
X151152Y59544D02*
X151162Y59554D01*
X148425Y75054D02*
Y76968D01*
Y75054D02*
X156299D01*
Y76968D01*
X164173Y58465D02*
Y76968D01*
X140551Y58465D02*
Y76968D01*
X164173D01*
X140551Y58465D02*
X150787D01*
Y59544D01*
X153937Y58475D02*
X164144D01*
X153937D02*
Y59554D01*
X33229Y49508D02*
Y61713D01*
X50629D01*
X33229Y49508D02*
X50629D01*
Y61713D01*
X-18209Y20669D02*
Y57677D01*
X-7900Y54173D02*
X-6500D01*
X-7900Y24173D02*
X-6500D01*
D41*
X115748Y49114D02*
X131496D01*
Y66437D01*
X115748Y49114D02*
Y66437D01*
X131496D01*
D42*
X50684Y62823D02*
X50689Y70642D01*
X36122Y62823D02*
X39469D01*
X36122Y70642D02*
X39469D01*
X47343Y62823D02*
X50689D01*
X47343Y70642D02*
X50689D01*
X36117Y62823D02*
X36122Y70642D01*
X21555Y62823D02*
X21560Y70642D01*
X32776D02*
X36122D01*
X32776Y62823D02*
X36122D01*
X21555Y70642D02*
X24902D01*
X21555Y62823D02*
X24902D01*
X36122D02*
X36127Y70642D01*
D43*
X26035Y53709D02*
Y59709D01*
X32035Y53709D02*
Y59709D01*
X53988Y72587D02*
X59988D01*
X53988Y66587D02*
X59988D01*
X53988Y60579D02*
X59988D01*
X53988Y54579D02*
X59988D01*
X11661Y32433D02*
Y38433D01*
X5661Y32433D02*
Y38433D01*
X11661Y42768D02*
Y48768D01*
X5661Y42768D02*
Y48768D01*
X68555Y67079D02*
X74555D01*
X68555Y73079D02*
X74555D01*
X110287Y23181D02*
Y29181D01*
X116287Y23181D02*
Y29181D01*
X107138Y73079D02*
X113138D01*
X107138Y67079D02*
X113138D01*
X116291Y23181D02*
Y29181D01*
X122291Y23181D02*
Y29181D01*
X68555Y31350D02*
X74555D01*
X68555Y37350D02*
X74555D01*
X8811Y21504D02*
X14811D01*
X8811Y15504D02*
X14811D01*
X124362Y31252D02*
X130362D01*
X124362Y37252D02*
X130362D01*
X114716Y31252D02*
X120717D01*
X114716Y37252D02*
X120717D01*
X131646Y60287D02*
Y66287D01*
X137646Y60287D02*
Y66287D01*
X131547Y49264D02*
Y55264D01*
X137547Y49264D02*
Y55264D01*
X152803Y12157D02*
Y18158D01*
X146803Y12157D02*
Y18158D01*
X175051Y12157D02*
Y18158D01*
X181051Y12157D02*
Y18158D01*
X180856Y49264D02*
Y55264D01*
X174856Y49264D02*
Y55264D01*
X122295Y23181D02*
Y29181D01*
X128295Y23181D02*
Y29181D01*
X152350Y49389D02*
Y55388D01*
X146351Y49389D02*
Y55388D01*
X53988Y66583D02*
X59988D01*
X53988Y60583D02*
X59988D01*
X32728Y77902D02*
X38728D01*
X32728Y71902D02*
X38728D01*
X11665Y32433D02*
Y38433D01*
X17665Y32433D02*
Y38433D01*
X11665Y42768D02*
Y48768D01*
X17665Y42768D02*
Y48768D01*
X6882Y57335D02*
X12882D01*
X6882Y63335D02*
X12882D01*
X20819Y45815D02*
X26819D01*
X20819Y39815D02*
X26819D01*
X20917Y35091D02*
X26917D01*
X20917Y41091D02*
X26917D01*
X98280Y23083D02*
Y29083D01*
X104279Y23083D02*
Y29083D01*
X110284Y23142D02*
Y29142D01*
X104283Y23142D02*
Y29142D01*
X38142Y24358D02*
X44142D01*
X38142Y18358D02*
X44142D01*
X38142Y10386D02*
X44142D01*
X38142Y16386D02*
X44142D01*
X8811Y21508D02*
X14811D01*
X8811Y27508D02*
X14811D01*
X152807Y12157D02*
Y18158D01*
X158807Y12157D02*
Y18158D01*
X140898Y12157D02*
Y18158D01*
X146898Y12157D02*
Y18158D01*
X187055Y12256D02*
Y18256D01*
X181055Y12256D02*
Y18256D01*
X175047Y12197D02*
Y18197D01*
X169047Y12197D02*
Y18197D01*
X180858Y49264D02*
Y55264D01*
X186858Y49264D02*
Y55264D01*
X168803Y49290D02*
Y55290D01*
X174803Y49290D02*
Y55290D01*
X158315Y49362D02*
Y55362D01*
X152315Y49362D02*
Y55362D01*
X146307Y49362D02*
Y55362D01*
X140307Y49362D02*
Y55362D01*
D44*
X45406Y34612D02*
X44881Y35137D01*
X43832D01*
X43307Y34612D01*
Y34087D01*
X43832Y33562D01*
X44881D01*
X45406Y33038D01*
Y32513D01*
X44881Y31988D01*
X43832D01*
X43307Y32513D01*
X46456Y35137D02*
Y31988D01*
X47505Y33038D01*
X48555Y31988D01*
Y35137D01*
X49604Y31988D02*
X50654D01*
X50129D01*
Y35137D01*
X49604Y34612D01*
X100885Y20079D02*
X98261D01*
X97736Y19554D01*
Y18504D01*
X98261Y17980D01*
X100885D01*
X100360Y16930D02*
X100885Y16405D01*
Y15356D01*
X100360Y14831D01*
X99835D01*
X99310Y15356D01*
Y15881D01*
Y15356D01*
X98786Y14831D01*
X98261D01*
X97736Y15356D01*
Y16405D01*
X98261Y16930D01*
X79035Y77755D02*
Y75131D01*
X79560Y74606D01*
X80610D01*
X81134Y75131D01*
Y77755D01*
X84283Y74606D02*
X82184D01*
X84283Y76705D01*
Y77230D01*
X83758Y77755D01*
X82709D01*
X82184Y77230D01*
X140551Y78937D02*
Y82086D01*
X142125D01*
X142650Y81561D01*
Y80511D01*
X142125Y79987D01*
X140551D01*
X145799Y82086D02*
X143700D01*
Y80511D01*
X144749Y81036D01*
X145274D01*
X145799Y80511D01*
Y79462D01*
X145274Y78937D01*
X144225D01*
X143700Y79462D01*
X169095Y78937D02*
Y82086D01*
X170669D01*
X171194Y81561D01*
Y80511D01*
X170669Y79987D01*
X169095D01*
X173817Y78937D02*
Y82086D01*
X172243Y80511D01*
X174342D01*
X169095Y41535D02*
Y44684D01*
X170669D01*
X171194Y44159D01*
Y43110D01*
X170669Y42585D01*
X169095D01*
X172243Y44159D02*
X172768Y44684D01*
X173817D01*
X174342Y44159D01*
Y43635D01*
X173817Y43110D01*
X173293D01*
X173817D01*
X174342Y42585D01*
Y42060D01*
X173817Y41535D01*
X172768D01*
X172243Y42060D01*
X140551Y41535D02*
Y44684D01*
X142125D01*
X142650Y44159D01*
Y43110D01*
X142125Y42585D01*
X140551D01*
X145799Y41535D02*
X143700D01*
X145799Y43635D01*
Y44159D01*
X145274Y44684D01*
X144225D01*
X143700Y44159D01*
X40748Y42913D02*
Y46062D01*
X42322D01*
X42847Y45537D01*
Y44488D01*
X42322Y43963D01*
X40748D01*
X41798D02*
X42847Y42913D01*
X45996Y46062D02*
X43897D01*
Y42913D01*
X45996D01*
X43897Y44488D02*
X44946D01*
X49144Y45537D02*
X48619Y46062D01*
X47570D01*
X47045Y45537D01*
Y45013D01*
X47570Y44488D01*
X48619D01*
X49144Y43963D01*
Y43438D01*
X48619Y42913D01*
X47570D01*
X47045Y43438D01*
X52293Y46062D02*
X50194D01*
Y42913D01*
X52293D01*
X50194Y44488D02*
X51243D01*
X53342Y46062D02*
X55441D01*
X54392D01*
Y42913D01*
X53445Y73819D02*
Y76968D01*
X55019D01*
X55544Y76443D01*
Y75393D01*
X55019Y74868D01*
X53445D01*
X56594Y76968D02*
Y73819D01*
X57643Y74868D01*
X58693Y73819D01*
Y76968D01*
X59742Y73819D02*
Y76968D01*
X61316D01*
X61841Y76443D01*
Y75393D01*
X61316Y74868D01*
X59742D01*
X60792D02*
X61841Y73819D01*
X60827Y14960D02*
Y12336D01*
X61352Y11811D01*
X62401D01*
X62926Y12336D01*
Y14960D01*
X66074Y14435D02*
X65550Y14960D01*
X64500D01*
X63975Y14435D01*
Y13910D01*
X64500Y13385D01*
X65550D01*
X66074Y12861D01*
Y12336D01*
X65550Y11811D01*
X64500D01*
X63975Y12336D01*
X67124Y11811D02*
Y14960D01*
X68698D01*
X69223Y14435D01*
Y13385D01*
X68698Y12861D01*
X67124D01*
X68173D02*
X69223Y11811D01*
X60827Y22637D02*
Y19488D01*
X62401D01*
X62926Y20013D01*
Y22112D01*
X62401Y22637D01*
X60827D01*
X63975D02*
Y19488D01*
X65550D01*
X66074Y20013D01*
Y20538D01*
X65550Y21062D01*
X63975D01*
X65550D01*
X66074Y21587D01*
Y22112D01*
X65550Y22637D01*
X63975D01*
X69223Y22112D02*
X68698Y22637D01*
X67649D01*
X67124Y22112D01*
Y20013D01*
X67649Y19488D01*
X68698D01*
X69223Y20013D01*
Y21062D01*
X68173D01*
M02*
